<?xml version="1.0" encoding="utf-8"?>
<!-- Generator: Adobe Illustrator 24.1.3, SVG Export Plug-In . SVG Version: 6.00 Build 0)  -->
<svg version="1.1" xmlns="http://www.w3.org/2000/svg" xmlns:xlink="http://www.w3.org/1999/xlink" x="0px" y="0px"
	 viewBox="0 0 1366 500" style="enable-background:new 0 0 1366 500;" xml:space="preserve">
<style type="text/css">
	.st0{filter:url(#Adobe_OpacityMaskFilter);}
	.st1{fill-rule:evenodd;clip-rule:evenodd;fill:url(#SVGID_2_);}
	.st2{mask:url(#SVGID_1_);}
	.st3{fill-rule:evenodd;clip-rule:evenodd;fill:none;stroke:#DBDBDB;stroke-width:0.5669;stroke-miterlimit:22.9256;}
</style>
<g id="Layer_1">
	<defs>
		<filter id="Adobe_OpacityMaskFilter" filterUnits="userSpaceOnUse" x="-510.93" y="-443.37" width="2403.69" height="1336.38">
			<feColorMatrix  type="matrix" values="1 0 0 0 0  0 1 0 0 0  0 0 1 0 0  0 0 0 1 0"/>
		</filter>
	</defs>
	<mask maskUnits="userSpaceOnUse" x="-510.93" y="-443.37" width="2403.69" height="1336.38" id="SVGID_1_">
		<g class="st0">
			<linearGradient id="SVGID_2_" gradientUnits="userSpaceOnUse" x1="-46.7178" y1="-37.67" x2="1437.7076" y2="547.5215">
				<stop  offset="0" style="stop-color:#FFFFFF"/>
				<stop  offset="0.1039" style="stop-color:#E0E0E0"/>
				<stop  offset="0.4375" style="stop-color:#818181"/>
				<stop  offset="0.7079" style="stop-color:#3C3C3C"/>
				<stop  offset="0.9016" style="stop-color:#111111"/>
				<stop  offset="1" style="stop-color:#000000"/>
			</linearGradient>
			<rect class="st1" width="1366" height="500"/>
		</g>
	</mask>
	<g class="st2">
		<g>
			<path class="st3" d="M1053.94-427.73C-501.34,32.36-501.34,32.36-501.34,32.36"/>
			<path class="st3" d="M1075.21-406.07C-480.08,54.03-480.08,54.03-480.08,54.03"/>
			<path class="st3" d="M1096.47-384.4C-458.82,75.69-458.82,75.69-458.82,75.69"/>
			<path class="st3" d="M1117.73-362.73C-437.55,97.36-437.55,97.36-437.55,97.36"/>
			<path class="st3" d="M1138.99-341.07C-416.29,119.03-416.29,119.03-416.29,119.03"/>
			<path class="st3" d="M1160.26-319.4C-395.03,140.69-395.03,140.69-395.03,140.69"/>
			<path class="st3" d="M1181.52-297.73C-373.77,162.36-373.77,162.36-373.77,162.36"/>
			<path class="st3" d="M1202.78-276.07C-352.5,184.03-352.5,184.03-352.5,184.03"/>
			<path class="st3" d="M1224.04-254.4C-331.24,205.69-331.24,205.69-331.24,205.69"/>
			<path class="st3" d="M1245.3-232.73C-309.98,227.36-309.98,227.36-309.98,227.36"/>
			<path class="st3" d="M1266.57-211.06C-288.72,249.03-288.72,249.03-288.72,249.03"/>
			<path class="st3" d="M1287.83-189.4C-267.46,270.7-267.46,270.7-267.46,270.7"/>
			<path class="st3" d="M1309.09-167.73C-246.19,292.36-246.19,292.36-246.19,292.36"/>
			<path class="st3" d="M1330.35-146.06C-224.93,314.03-224.93,314.03-224.93,314.03"/>
			<path class="st3" d="M1351.62-124.4C-203.67,335.7-203.67,335.7-203.67,335.7"/>
			<path class="st3" d="M1372.88-102.73C-182.41,357.36-182.41,357.36-182.41,357.36"/>
			<path class="st3" d="M1394.14-81.06C-161.14,379.03-161.14,379.03-161.14,379.03"/>
			<path class="st3" d="M1415.4-59.4C-139.88,400.7-139.88,400.7-139.88,400.7"/>
			<path class="st3" d="M1436.67-37.73C-118.62,422.36-118.62,422.36-118.62,422.36"/>
			<path class="st3" d="M1457.93-16.06C-97.36,444.03-97.36,444.03-97.36,444.03"/>
			<path class="st3" d="M1479.19,5.6C-76.09,465.7-76.09,465.7-76.09,465.7"/>
			<path class="st3" d="M1500.45,27.27C-54.83,487.36-54.83,487.36-54.83,487.36"/>
			<path class="st3" d="M1521.71,48.94C-33.57,509.03-33.57,509.03-33.57,509.03"/>
			<path class="st3" d="M1542.98,70.6C-12.31,530.7-12.31,530.7-12.31,530.7"/>
			<path class="st3" d="M1564.24,92.27C8.95,552.36,8.95,552.36,8.95,552.36"/>
			<path class="st3" d="M1585.5,113.94C30.22,574.03,30.22,574.03,30.22,574.03"/>
			<path class="st3" d="M1606.76,135.6C51.48,595.7,51.48,595.7,51.48,595.7"/>
			<path class="st3" d="M1628.02,157.27C72.74,617.36,72.74,617.36,72.74,617.36"/>
			<path class="st3" d="M1649.29,178.94C94,639.03,94,639.03,94,639.03"/>
			<path class="st3" d="M1670.55,200.6C115.27,660.7,115.27,660.7,115.27,660.7"/>
			<path class="st3" d="M1691.81,222.27C136.53,682.36,136.53,682.36,136.53,682.36"/>
			<path class="st3" d="M1713.07,243.94C157.79,704.03,157.79,704.03,157.79,704.03"/>
			<path class="st3" d="M1734.34,265.6C179.05,725.7,179.05,725.7,179.05,725.7"/>
			<path class="st3" d="M1755.6,287.27C200.31,747.36,200.31,747.36,200.31,747.36"/>
			<path class="st3" d="M1776.86,308.94C221.58,769.03,221.58,769.03,221.58,769.03"/>
			<path class="st3" d="M1798.12,330.6C242.84,790.7,242.84,790.7,242.84,790.7"/>
			<path class="st3" d="M1819.39,352.27C264.1,812.36,264.1,812.36,264.1,812.36"/>
			<path class="st3" d="M1840.65,373.94C285.36,834.03,285.36,834.03,285.36,834.03"/>
			<path class="st3" d="M1861.91,395.61C306.63,855.7,306.63,855.7,306.63,855.7"/>
			<path class="st3" d="M1883.17,417.27C327.89,877.36,327.89,877.36,327.89,877.36"/>
			<g>
				<path class="st3" d="M1892.56,437.52c-864.25-880.69-864.25-880.69-864.25-880.69"/>
				<path class="st3" d="M1853.09,449.19C988.85-431.5,988.85-431.5,988.85-431.5"/>
				<path class="st3" d="M1813.63,460.87C949.38-419.82,949.38-419.82,949.38-419.82"/>
				<path class="st3" d="M1774.17,472.54C909.92-408.15,909.92-408.15,909.92-408.15"/>
				<path class="st3" d="M1734.71,484.22C870.46-396.48,870.46-396.48,870.46-396.48"/>
				<path class="st3" d="M1695.25,495.89C831-384.8,831-384.8,831-384.8"/>
				<path class="st3" d="M1655.78,507.56C791.53-373.13,791.53-373.13,791.53-373.13"/>
				<path class="st3" d="M1616.32,519.24C752.07-361.46,752.07-361.46,752.07-361.46"/>
				<path class="st3" d="M1576.86,530.91C712.61-349.78,712.61-349.78,712.61-349.78"/>
				<path class="st3" d="M1537.4,542.59C673.15-338.11,673.15-338.11,673.15-338.11"/>
				<path class="st3" d="M1497.93,554.26C633.68-326.43,633.68-326.43,633.68-326.43"/>
				<path class="st3" d="M1458.47,565.93C594.22-314.76,594.22-314.76,594.22-314.76"/>
				<path class="st3" d="M1419.01,577.61C554.76-303.08,554.76-303.08,554.76-303.08"/>
				<path class="st3" d="M1379.55,589.28C515.3-291.41,515.3-291.41,515.3-291.41"/>
				<path class="st3" d="M1340.08,600.96C475.83-279.74,475.83-279.74,475.83-279.74"/>
				<path class="st3" d="M1300.62,612.63C436.37-268.06,436.37-268.06,436.37-268.06"/>
				<path class="st3" d="M1261.16,624.3C396.91-256.39,396.91-256.39,396.91-256.39"/>
				<path class="st3" d="M1221.7,635.98C357.45-244.71,357.45-244.71,357.45-244.71"/>
				<path class="st3" d="M1182.23,647.65C317.99-233.04,317.99-233.04,317.99-233.04"/>
				<path class="st3" d="M1142.77,659.33C278.52-221.37,278.52-221.37,278.52-221.37"/>
				<path class="st3" d="M1103.31,671C239.06-209.69,239.06-209.69,239.06-209.69"/>
				<path class="st3" d="M1063.85,682.67C199.6-198.02,199.6-198.02,199.6-198.02"/>
				<path class="st3" d="M1024.38,694.35C160.14-186.35,160.14-186.35,160.14-186.35"/>
				<path class="st3" d="M984.92,706.02C120.67-174.67,120.67-174.67,120.67-174.67"/>
				<path class="st3" d="M945.46,717.7C81.21-163,81.21-163,81.21-163"/>
				<path class="st3" d="M906,729.37C41.75-151.32,41.75-151.32,41.75-151.32"/>
				<path class="st3" d="M866.53,741.04C2.29-139.65,2.29-139.65,2.29-139.65"/>
				<path class="st3" d="M827.07,752.72C-37.18-127.98-37.18-127.98-37.18-127.98"/>
				<path class="st3" d="M787.61,764.39C-76.64-116.3-76.64-116.3-76.64-116.3"/>
				<path class="st3" d="M748.15,776.07C-116.1-104.63-116.1-104.63-116.1-104.63"/>
				<path class="st3" d="M708.68,787.74C-155.56-92.95-155.56-92.95-155.56-92.95"/>
				<path class="st3" d="M669.22,799.41C-195.03-81.28-195.03-81.28-195.03-81.28"/>
				<path class="st3" d="M629.76,811.09C-234.49-69.61-234.49-69.61-234.49-69.61"/>
				<path class="st3" d="M590.3,822.76C-273.95-57.93-273.95-57.93-273.95-57.93"/>
				<path class="st3" d="M550.84,834.44C-313.41-46.26-313.41-46.26-313.41-46.26"/>
				<path class="st3" d="M511.37,846.11C-352.88-34.58-352.88-34.58-352.88-34.58"/>
				<path class="st3" d="M471.91,857.78C-392.34-22.91-392.34-22.91-392.34-22.91"/>
				<path class="st3" d="M432.45,869.46C-431.8-11.24-431.8-11.24-431.8-11.24"/>
				<path class="st3" d="M392.98,881.13C-471.26,0.44-471.26,0.44-471.26,0.44"/>
				<path class="st3" d="M353.52,892.81C-510.73,12.11-510.73,12.11-510.73,12.11"/>
			</g>
		</g>
	</g>
</g>
<g id="Layer_2">
</g>
</svg>
