<?xml version="1.0" encoding="utf-8"?>
<!-- Generator: Adobe Illustrator 24.1.3, SVG Export Plug-In . SVG Version: 6.00 Build 0)  -->
<svg version="1.1" id="Layer_1" xmlns="http://www.w3.org/2000/svg" xmlns:xlink="http://www.w3.org/1999/xlink" x="0px" y="0px"
	 viewBox="0 0 1440 800" style="enable-background:new 0 0 1440 800;" xml:space="preserve">
<style type="text/css">
	.st0{fill:none;}
	.st1{opacity:0.2;}
	.st2{fill:#4A4421;}
</style>
<desc>Created with Sketch.</desc>
<rect x="1872" y="704.2" class="st0" width="728.6" height="485.8"/>
<g class="st1">
	<g>
		<path class="st2" d="M1322.4,197c2.5,9.3-8.2,16.8-15.2,20.2c-11.7,5.7-25.5,6.7-38,3.5c-23.3-5.9-45.7-24.1-55.8-46
			c-5.2-11.4-7-25.1-0.7-36.4c6.1-11.1,18.1-18.1,30.3-20.4c11.3-2.2,24.7-0.4,30.9,10.5c4.2,7.5,1.5,15.4,2.9,23.4
			c2,12,13.9,19.1,23.3,25.1C1308.9,182.6,1318.9,186.3,1322.4,197c0.5,1.5,2.8,0.9,2.3-0.6c-7.5-22.9-45.7-22.3-45.9-49.6
			c-0.1-9.5,0.3-17.6-6.9-24.8c-7.7-7.7-20.1-8.3-30.2-6.2c-12.3,2.5-24.3,9.7-30.7,20.7c-6.4,11-5.7,24.2-1.2,35.8
			c9.4,24.2,33.7,44.5,58.8,50.8c14.1,3.5,29.9,2.1,42.6-5.3c7.2-4.2,16-12.1,13.5-21.4C1324.3,194.9,1322,195.5,1322.4,197z"/>
	</g>
</g>
<g class="st1">
	<path class="st2" d="M1274,210.2c4.2,4.2,7.8-0.2,10.6-0.3c2.8-0.2,7-3,2.7-6s-10.8-7.5-12.9-5c-2.2,2.5,1.3,5.3,0.5,7.1
		C1274,207.9,1272.3,208.6,1274,210.2z"/>
	<path class="st2" d="M1273.7,203.7c0.4,0.8,0.7,1.6,0.5,2.1s-0.5,0.9-0.8,1.2c-0.7,0.9-1.5,2.1,0.1,3.7c3.3,3.3,6.4,1.8,8.7,0.8
		c0.9-0.4,1.8-0.8,2.5-0.9c2-0.1,4.6-1.4,5.1-3.3c0.2-0.8,0.2-1.9-1-3.1c-0.3-0.3-0.6-0.5-1-0.8c-4.8-3.3-11.3-7.8-13.9-4.9
		C1272.2,200.2,1273,202.2,1273.7,203.7z M1288.3,206.9c-0.3,1.2-2.3,2.2-3.8,2.3c-1,0.1-2,0.5-3,1c-2.3,1.1-4.5,2.1-7-0.5
		c-0.7-0.7-0.6-0.9,0.1-1.9c0.3-0.4,0.6-0.9,0.9-1.5c0.5-1,0-2.2-0.5-3.3c-0.7-1.6-1-2.6-0.1-3.7c1.7-2,8.4,2.6,12,5.1
		C1287.7,205.1,1288.6,206,1288.3,206.9z"/>
</g>
<g class="st1">
	<path class="st2" d="M1306.6,201.1c3.6-1.4-0.8-4.8-4-6.6c-3.1-1.8-9.3-4-7,1C1298,200.4,1304,202.1,1306.6,201.1z"/>
	<path class="st2" d="M1295,195.7c2.4,5.2,8.7,7.2,11.8,6c1.4-0.5,1.8-1.3,1.8-1.9c0.1-1-0.6-2-1.6-2.9c-1.3-1.3-3.1-2.4-4.1-3.1
		c-0.3-0.1-6-3.4-8-1.6C1294.3,192.9,1294.3,194.1,1295,195.7z M1307.2,199.7c0,0.1-0.1,0.3-0.2,0.4c-0.2,0.2-0.5,0.3-0.7,0.4
		c-1.7,0.7-5.6-0.1-8.2-2.7c-0.7-0.7-1.3-1.6-1.8-2.6c-0.5-1.1-0.5-1.7-0.3-1.9c0.6-0.6,3.7,0.3,6.3,1.8
		C1305.3,196.8,1307.3,198.7,1307.2,199.7z"/>
</g>
<g class="st1">
	<path class="st2" d="M1242.6,191.5c1.9,3.2,5.1,1.8,9.4,0.2c4.3-1.7,5.1,2.8,7.1-0.5s-6.8-6.5-9.1-8.5c-2.3-2-5.3-6.6-7.8-4.5
		C1239.8,180.4,1241.1,189,1242.6,191.5z"/>
	<path class="st2" d="M1242,191.8c2.2,3.6,5.7,2.3,9.8,0.7l0.5-0.2c1.8-0.7,2.8-0.2,3.8,0.3c1.1,0.5,2.3,1.2,3.7-1.1
		c0.4-0.6,0.5-1.3,0.3-2s-0.6-1.3-1.2-1.9c-1.3-1.3-3.4-2.5-5.3-3.6c-1.2-0.7-2.4-1.3-3-1.9c-0.5-0.5-1.1-1.1-1.7-1.7
		c-2-2.2-4.6-4.9-7-2.8l-0.1,0.1C1239,180.5,1240.5,189.3,1242,191.8z M1247.8,181.4c0.6,0.7,1.2,1.3,1.8,1.8c0.7,0.6,1.9,1.3,3.3,2
		c2.3,1.3,5.4,3,5.8,4.6c0.1,0.3,0,0.6-0.1,0.9c-0.7,1.2-0.9,1.1-1.9,0.6s-2.5-1.3-4.9-0.4l-0.5,0.2c-3.8,1.5-6,2.2-7.5,0.7
		c-0.2-0.2-0.4-0.5-0.6-0.8c-1.4-2.4-2.6-10.5-0.5-12.4C1244,177.6,1245.7,179.2,1247.8,181.4z"/>
</g>
<g class="st1">
	<path class="st2" d="M1219.4,156c0-3.5,6.6-3.3,11.9,0s4.6,9.9,2,11.3c-2.7,1.3-5.1,0.5-6.8-3.8
		C1226.5,163.5,1219.4,160.6,1219.4,156z"/>
	<path class="st2" d="M1218.7,156c0,4.6,5.9,7.4,7.3,8c0.9,2.2,2.1,3.7,3.6,4.3c1.2,0.5,2.6,0.4,4-0.4c1.4-0.7,2.3-2.4,2.4-4.6
		c0.1-2.5-0.8-4.8-2.6-6.6c-0.5-0.5-1.1-1-1.7-1.4c-4-2.5-9-3.4-11.5-2c-0.3,0.2-0.5,0.3-0.7,0.5
		C1219,154.5,1218.7,155.2,1218.7,156z M1233,166.7c-1.1,0.5-2,0.6-2.9,0.3c-0.4-0.2-0.8-0.4-1.2-0.8c-0.7-0.7-1.2-1.7-1.7-3
		l-0.1-0.3l-0.3-0.1c0,0-2.9-1.2-4.9-3.2c-1-1-1.8-2.2-1.8-3.6c0-0.6,0.3-1.1,0.8-1.4c1.8-1,6.1-0.5,10,1.9c2.4,1.5,3.8,4,3.7,6.7
		C1234.6,164.9,1233.9,166.2,1233,166.7z"/>
</g>
<g class="st1">
	<path class="st2" d="M1241.6,139.4c2,1.2,2.5,11.1-2.5,8.8s-11.3-4.6-8.5-7.8C1233.5,137.3,1239.3,138.1,1241.6,139.4z"/>
	<path class="st2" d="M1229.3,142.5c0.5,2.3,4.1,3.9,7.9,5.6c0.6,0.2,1.1,0.5,1.6,0.8c1.8,0.8,3.4,0.4,4.2-1.3
		c1.2-2.4,0.8-7-0.7-8.5c-0.1-0.1-0.2-0.2-0.4-0.3c-2.6-1.5-8.7-2.3-11.8,1.1C1229.4,140.8,1229.2,141.6,1229.3,142.5z
		 M1239.4,147.6c-0.5-0.3-1.1-0.5-1.6-0.8c-2.5-1.1-5.2-2.3-6.4-3.6c-0.4-0.4-0.6-0.7-0.7-1c0-0.2-0.1-0.6,0.5-1.3l0.2-0.2
		c2.6-2.6,7.8-1.8,9.9-0.7c0.8,0.5,1.6,4.7,0.5,6.9C1241.3,147.9,1240.6,148.1,1239.4,147.6z"/>
</g>
<g class="st1">
	<path class="st2" d="M1255.1,136.3c2.5,2.5,9.4,2.5,6.5-2.5c-3-5-8.6-10.3-11.1-7.5C1247.9,129.1,1252.7,133.9,1255.1,136.3z"/>
	<path class="st2" d="M1254.6,136.8c1.9,1.9,5.7,2.5,7.4,1.1c0.7-0.5,1.7-1.9,0.1-4.4c-1.1-1.8-2.5-3.7-4-5.2
		c-1.9-1.9-3.9-3.2-5.6-3.4c-1.1-0.1-1.9,0.3-2.6,1C1247,129.2,1252.1,134.3,1254.6,136.8z M1260.9,134.2c0.5,0.8,1,2,0.2,2.6
		c-1.2,0.9-4.3,0.4-5.6-1c-2-2-6.6-6.6-4.6-9c0.4-0.4,0.8-0.6,1.4-0.5C1254.9,126.5,1258.7,130.5,1260.9,134.2z"/>
</g>
<g class="st1">
	<g>
		<path class="st2" d="M1270.9,175.4c5.5-1.9,0.4-9-1.6-11.8c-3.4-4.5-7.2-9.8-13.4-8.2c-4.2,1.1-9,5.3-6.4,10
			c2,3.6,7.1,6.4,10.7,8.1C1263.5,175,1267.2,176.1,1270.9,175.4c1.5-0.3,0.9-2.6-0.6-2.3c-5.9,1.2-12.6-3.1-16.8-6.7
			c-4-3.6-1.8-7.4,3-8.6c4.2-1.1,6.5,2,9,5c0.8,0.9,7.8,9.4,4.9,10.4C1268.9,173.5,1269.5,175.9,1270.9,175.4z"/>
	</g>
</g>
<g class="st1">
	<g>
		<path class="st2" d="M1317.6,200.5c0,0,0-0.3,0.1-0.8c0-0.5,0-1.2-0.1-1.9c-0.1-0.8-0.3-1.6-0.6-2.5c-0.2-0.4-0.4-0.9-0.6-1.3
			c-0.2-0.4-0.5-0.9-0.7-1.3c-0.3-0.5-0.6-0.8-0.9-1.3c-0.3-0.4-0.6-0.8-0.9-1.2c-0.6-0.8-1.2-1.5-1.8-2.1c-1.1-1.2-1.8-2.2-1.8-2.2
			s1.1,0.3,2.6,1.2c0.7,0.4,1.6,1,2.4,1.7c0.4,0.4,0.8,0.8,1.2,1.2c0.4,0.4,0.8,1,1,1.4c0.3,0.6,0.6,1.1,0.8,1.6
			c0.2,0.6,0.4,1.1,0.5,1.7c0.2,1.1,0.2,2.2,0,3.1c-0.2,0.9-0.5,1.6-0.8,2c-0.1,0.2-0.3,0.4-0.4,0.5
			C1317.6,200.5,1317.6,200.5,1317.6,200.5z"/>
	</g>
</g>
<g class="st1">
	<g>
		<path class="st2" d="M1307.7,184.1c0,0-0.3,0.3-0.5,0.5c-0.3,0.2-0.6,0.3-0.8,0.2c-0.2-0.1-0.4-0.4-0.5-0.7s-0.1-0.7-0.1-0.7
			s0.3-0.3,0.5-0.5c0.3-0.2,0.6-0.3,0.8-0.2c0.2,0.1,0.4,0.4,0.5,0.7C1307.7,183.7,1307.7,184.1,1307.7,184.1z"/>
	</g>
</g>
<g class="st1">
	<g>
		<path class="st2" d="M1212.8,147.6c0,0-0.1-0.3-0.2-0.8c-0.1-0.3-0.1-0.6-0.1-1s-0.1-0.8,0-1.3c0-0.9,0.2-2,0.5-3.1
			c0.4-1.1,0.9-2.3,1.5-3.3c0.7-1.1,1.5-2,2.4-2.8s1.8-1.4,2.6-1.8c0.4-0.2,0.8-0.4,1.2-0.5c0.3-0.1,0.7-0.2,0.9-0.3
			c0.5-0.1,0.8-0.2,0.8-0.2s-0.2,0.2-0.6,0.6c-0.4,0.4-0.9,0.9-1.5,1.5c-0.3,0.3-0.6,0.7-0.9,1c-0.3,0.4-0.6,0.8-1,1.2
			c-0.7,0.8-1.3,1.7-1.9,2.7c-0.6,0.9-1.1,1.9-1.6,2.9c-0.2,0.5-0.5,0.9-0.6,1.4c-0.2,0.5-0.4,0.9-0.5,1.3c-0.3,0.8-0.5,1.5-0.7,2
			C1212.9,147.3,1212.8,147.6,1212.8,147.6z"/>
	</g>
</g>
<g class="st1">
	<path class="st2" d="M1342.6,146.2l28.8-1.3l2.3-2c0,0-5.6-9.6-7.1-10.4c-1.5-0.8-33.5,1.7-33.5,1.7L1342.6,146.2z"/>
	<path class="st2" d="M1342.3,147l2-0.1l27.5-1.3l3-2.5l-0.3-0.5c-0.3-0.5-0.9-1.6-1.8-3c-0.4-0.7-0.8-1.4-1.3-2.1
		c-1.3-2.1-2.8-4.3-3.8-5.2c-0.2-0.2-0.4-0.4-0.5-0.4c-1.5-0.8-23.2,0.8-33.2,1.5c-0.2,0-0.4,0-0.7,0l-1.3,0.1L1342.3,147z
		 M1334.8,134.7c12.1-0.9,30-2.1,31.4-1.6c0.8,0.4,3.9,5.2,6.6,9.7l-1.7,1.5l-27.9,1.3h-0.4l-8.4-10.8
		C1334.6,134.7,1334.7,134.7,1334.8,134.7z"/>
</g>
<g class="st1">
	<path class="st2" d="M1329.5,129.5l28.8-3l2.3-2c0,0-7.1-9.6-8.6-10.4s-32,6.8-32,6.8L1329.5,129.5z"/>
	<path class="st2" d="M1329.3,130.2l1.6-0.2l27.8-2.9l3-2.6l-0.4-0.5c-0.1-0.2-0.4-0.4-0.6-0.8c-0.4-0.6-1-1.3-1.6-2.1
		c-1.8-2.4-4.3-5.5-5.8-7c-0.4-0.4-0.7-0.6-0.9-0.8c-1.5-0.8-20,3.6-31.5,6.5c-0.4,0.1-0.7,0.2-1,0.2l-1.3,0.3L1329.3,130.2z
		 M1322.1,121.1c11.4-2.8,28.1-6.7,29.6-6.4c0.8,0.5,4.7,5.2,8,9.7l-1.6,1.4l-28.3,2.9l-0.4-0.3c0,0,0,0-0.1-0.1l-7.8-7.2
		C1321.7,121.2,1321.9,121.1,1322.1,121.1z"/>
</g>
<g class="st1">
	<g>
		<path class="st2" d="M1398.8,155.7c8-3.4,6.8-7.1,3.9-13.3c-4.4-9.3-10-18.2-16.1-26.4c-22.3-30.1-53.1-53.5-87.4-68.3
			c-26.4-11.4-56-17.4-84.5-11.2c-7.9,1.7-15.6,4.4-22.8,8c-2.4,1.2-7.6,3.2-9.1,5.7c-2.9,4.7,8.4,15.2,10.7,18
			c6.3,7.8,12.6,15.7,18.8,23.5c0.2,0.3,0.8,0.4,1.2,0.3c13.5-5.1,29.7-5,43.7-2.6c30.3,5.3,58.6,25,77.5,48.9
			c4.2,5.3,8.4,11.2,11.1,17.4c0.2,0.4,0.7,0.6,1,0.6c17.1-0.2,34.2-0.3,51.4-0.5c1.5,0,1.5-2.4,0-2.4c-13.9,0.1-27.8,0.3-41.7,0.4
			c-2.6,0-5.9-0.5-8.4,0.1c-1.5,0.4-0.3,1.1-0.7-0.5c-1.3-5.5-6.8-11.5-10.2-15.8c-27.3-35.2-74.3-60.8-119.5-49.4
			c-1.4,0.4-3.1,1.2-4.5,1.3c-1,0.1,1.3,0.7,0.7,0.3c-0.7-0.5-1.3-1.6-1.8-2.2c-4.9-6.2-9.9-12.3-14.8-18.5
			c-3.7-4.6-8.4-9.2-11.5-14.3c-2.3-3.8,0.4-4.4,3.4-6.1c34.1-20,77.2-13.2,111.6,2.3c31.4,14.1,59.7,35.4,80.9,62.5
			c6.2,8,11.9,16.5,16.6,25.5c1.3,2.5,2.5,5,3.6,7.6c1.6,3.8,0.2,5.1-4.3,7C1396.2,154.2,1397.4,156.3,1398.8,155.7z"/>
	</g>
</g>
<g class="st1">
	<g>
		<path class="st2" d="M1399.2,153.3c-3.3-9.5-8.6-18.5-14.1-26.9c-13-19.9-30-37.2-49.4-50.9c-36.5-25.8-83.8-41.1-128.2-29.8
			c-7.8,2-16.1,4.6-23,8.9c-1.3,0.8-0.1,2.9,1.2,2.1c18.5-11.6,43.9-13.7,65-11.8c51.3,4.7,100.1,36.4,129.4,78.2
			c6.6,9.4,13,19.8,16.9,30.8C1397.3,155.3,1399.7,154.7,1399.2,153.3L1399.2,153.3z"/>
	</g>
</g>
<g class="st1">
	<g>
		<path class="st2" d="M1371.9,139.7c5.1-0.4,10.3-0.7,15.4-1.1c1.3-0.1,2.9,0,4.1-0.6c1.8-0.9,3.4-3.4,4.8-4.8
			c1.1-1.1-0.6-2.8-1.7-1.7c-1.5,1.5-2.9,3.4-4.6,4.6c0.5-0.4,0.7,0-0.4-0.1s-2.4,0.2-3.5,0.2c-4.7,0.3-9.4,0.7-14,1
			C1370.4,137.4,1370.3,139.8,1371.9,139.7L1371.9,139.7z"/>
	</g>
</g>
<g class="st1">
	<g>
		<path class="st2" d="M1359.6,123.4c5.4-0.5,10.8-1,16.2-1.6c1.3-0.1,3,0,4.1-0.7c1.9-1.1,3.5-4.2,4.9-5.9c1-1.2-0.7-2.9-1.7-1.7
			c-1.5,1.9-3,3.9-4.7,5.6c0,0,0.8,0.1-0.7,0.1c-1.1,0-2.3,0.2-3.5,0.3c-4.9,0.5-9.9,0.9-14.8,1.4
			C1358.1,121.1,1358.1,123.5,1359.6,123.4L1359.6,123.4z"/>
	</g>
</g>
<g class="st1">
	<g>
		<path class="st2" d="M1317.3,119.3c10.1-3.1,20.2-6.2,30.4-9.3c5.3-1.6,10.6-3.2,15.9-4.9c3.3-1,4.9-3.3,7.3-5.9
			c1.1-1.1-0.6-2.8-1.7-1.7c-3.1,3.3-3.5,4.5-7.3,5.6c-5.5,1.7-11,3.4-16.5,5c-9.6,2.9-19.1,5.9-28.7,8.8
			C1315.2,117.5,1315.8,119.8,1317.3,119.3L1317.3,119.3z"/>
	</g>
</g>
<g class="st1">
	<path class="st2" d="M1314.7,116c0.5-0.5,24.2-12.9,24.2-12.9l1.3-2.3L1329,90.5l-24,18.7L1314.7,116z"/>
	<path class="st2" d="M1306.2,111L1306.2,111l8.1,5.6l0.4,0.4l0.4-0.4c0.1-0.1,0.5-0.3,1.2-0.6c3.6-2,15.1-8.1,22.9-12.2l0.2-0.1
		l1.7-3l-4.7-4.3l-1.7-1.6l-5.8-5.3l-23.3,18.2l-1.9,1.5l0,0L1306.2,111z M1306.9,108.6l22-17.2l10.4,9.5l-0.9,1.6
		c-7.7,4.1-19.8,10.4-23.3,12.4c-0.2,0.1-0.3,0.2-0.4,0.2l-8.6-6L1306.9,108.6z"/>
</g>
<g class="st1">
	<polygon class="st2" points="1302.5,107.4 1323.5,90 1325,87.2 1311.6,78.1 1308.8,80.6 1293.2,101.1 	"/>
	<path class="st2" d="M1293.2,100l-1,1.3l10.3,7l1.8-1.5l19.6-16.3l0.1-0.1l1.9-3.5l-5.7-3.9l0,0l-1.9-1.3l-6.7-4.6l-3.3,3
		L1293.2,100z M1311.6,79l12.4,8.5l-1.1,2.1L1303,106l-0.7,0.5l-8.2-5.6l0.2-0.3l14.8-19.6L1311.6,79z"/>
</g>
<g class="st1">
	<polygon class="st2" points="1290.9,100.5 1305.1,76.9 1305.5,74.6 1291.4,68.1 1289.2,71.6 1280.8,95.7 	"/>
	<path class="st2" d="M1288.6,71.3l-8,22.7l-0.7,2.1l1.6,0.8l0.2,0.1l0.2,0.1l6.8,3.2l0.5,0.2l2,1l1.2-1.9l13.4-22.2l0.5-3.1
		l-5.5-2.5L1299,71l0,0l-7.8-3.6L1288.6,71.3z M1290.6,99.6l-9-4.3l0.3-0.8l7.9-22.5l1.8-2.9l13,6l-0.2,1.6L1291,98.8L1290.6,99.6z"
		/>
</g>
<g class="st1">
	<g>
		<path class="st2" d="M1336.4,96.4c3.6-2.3,7.2-4.7,10.9-7c2.8-1.8,4.2-3.9,6.2-6.7c0.9-1.2-1.2-2.4-2.1-1.2c-1,1.5-2,3.2-3.2,4.5
			c0,0,0.2-0.2-0.5,0.3c-0.8,0.6-1.7,1.1-2.5,1.6c-3.3,2.2-6.7,4.3-10,6.5C1333.9,95.2,1335.1,97.3,1336.4,96.4L1336.4,96.4z"/>
	</g>
</g>
<g class="st1">
	<g>
		<path class="st2" d="M1320.4,82.9c2.1-3.1,5.6-5.5,8.2-8.2c1.9-1.9,3.4-4.2,5-6.3c0.9-1.2-0.8-2.9-1.7-1.7
			c-1.7,2.3-3.4,4.7-5.4,6.7c-2.7,2.7-6.1,5.2-8.3,8.4C1317.4,82.9,1319.5,84.1,1320.4,82.9L1320.4,82.9z"/>
	</g>
</g>
<g class="st1">
	<g>
		<path class="st2" d="M1301.1,71.2c1.4-3.3,2.9-6.6,4.3-10c1.1-2.6,3.3-4.1,5.6-6.3c1.1-1.1-0.6-2.7-1.7-1.7
			c-2.1,2-4.6,3.6-5.8,6.3c-1.6,3.5-3,7-4.6,10.4C1298.4,71.4,1300.5,72.6,1301.1,71.2L1301.1,71.2z"/>
	</g>
</g>
<g class="st1">
	<g>
		<path class="st2" d="M1279.3,93.5c1.6-9.1,3.1-18.3,4.7-27.4c0.7-4,0.7-9,2.2-12.8c0.3-0.7,0.7-1,2.2-2.3c1.6-1.4,3.2-2.9,4.8-4.3
			c1.1-1-0.6-2.7-1.7-1.7c-2.3,2.1-6.1,4.4-7.5,7.1c-1.5,3.1-1.4,8.3-2,11.7c-1.7,9.7-3.3,19.4-5,29
			C1276.7,94.4,1279,95.1,1279.3,93.5L1279.3,93.5z"/>
	</g>
</g>
<g class="st1">
	<polygon class="st2" points="1274.8,92 1276.4,60.8 1261.4,57.7 1259.2,60.2 1263.2,90 	"/>
	<path class="st2" d="M1258.5,60l3.7,28.1l0.3,2.4v0.1l1.5,0.3h0.1h0.2l11.2,1.9v-0.9l1.7-31.7l-8.9-1.9l-2.4-0.5l-4.8-1L1258.5,60z
		 M1275.7,61.4l-1.6,29.8l-1.8-0.3l0,0l-8.4-1.4l-0.1-1l-3.7-28l1.7-1.9L1275.7,61.4z"/>
</g>
<g class="st1">
	<polygon class="st2" points="1259.9,88.2 1256.2,57.9 1243.8,57.4 1242.1,60 1249.6,87 	"/>
	<path class="st2" d="M1241.4,59.9l7.2,26l0,0l0.5,1.8l11.6,1.3l-0.2-1.3l-3.7-30.5l-5.5-0.2l-2.3-0.1l-5.6-0.2L1241.4,59.9z
		 M1255.6,58.5l3.5,28.8h-0.2h-0.2l-8.5-0.9l-0.1-0.4l-7.2-25.9l1.3-2L1255.6,58.5z"/>
</g>
<g class="st1">
	<g>
		<path class="st2" d="M1268.3,58.3c-0.2-3.7-0.3-7.6-0.8-11.3c-0.2-1.1,0.3-1.1-0.4-0.4c0.5-0.6,1.2-1.1,1.8-1.6
			c1.4-1.2,2.8-2.5,4.1-3.7c1.2-1-0.5-2.7-1.7-1.7c-1.9,1.7-6.1,4-6.3,6.7c-0.3,3.9,0.5,8.1,0.8,12
			C1266.1,59.9,1268.4,59.9,1268.3,58.3L1268.3,58.3z"/>
	</g>
</g>
<g class="st1">
	<g>
		<path class="st2" d="M1251.3,56.4c-0.3-1.6-0.6-3.3-0.9-4.9c-0.3-2-0.3-5.3-1.2-7c-0.3-0.6-0.8,0.6,0.1,0.1
			c0.8-0.4,1.7-1.7,2.3-2.3c1.4-1.4,2.8-2.8,4.2-4.2c1.1-1.1-0.6-2.8-1.7-1.7c-1.6,1.6-3.3,3.3-4.9,4.9c-1,1-2.3,1.8-2.4,3.3
			c-0.1,1.9,0.7,4.3,1.1,6.2c0.4,2.1,0.7,4.2,1.1,6.2C1249.3,58.5,1251.6,57.9,1251.3,56.4L1251.3,56.4z"/>
	</g>
</g>
<g class="st1">
	<g>
		<path class="st2" d="M1247.9,86.1c-3.1-9.7-6.3-19.4-9.4-29.1c-1.4-4.2-3.4-8.7-4.2-13.1c-0.2-1.3-0.5,0.7-0.3,0.3
			c0.4-0.8,1.5-1.6,2.1-2.3c1.8-2,3.6-3.9,5.4-5.9c1-1.1-0.6-2.8-1.7-1.7c-2.6,2.8-5.2,5.7-7.8,8.5c-0.3,0.3-0.4,0.7-0.3,1.2
			c4.6,14.2,9.2,28.5,13.8,42.7C1246,88.2,1248.3,87.6,1247.9,86.1L1247.9,86.1z"/>
	</g>
</g>
<g class="st1">
	<polygon class="st2" points="1244.3,86.4 1235,57.9 1224.7,59.5 1223.2,61.7 1235.5,86.9 	"/>
	<path class="st2" d="M1222.4,61.6l11.7,24.1l0.9,1.9l10.1-0.6l-0.4-1.4l-9.3-28.6l-8.1,1.3l-2.3,0.4l-0.8,0.1L1222.4,61.6z
		 M1234.5,58.6l8.7,26.9l0.1,0.2l-7.4,0.4l-0.3-0.5L1224,61.7l1.1-1.6L1234.5,58.6z"/>
</g>
<g class="st1">
	<path class="st2" d="M1233.1,86.4L1219.6,60c0,0-10,3.7-9.8,3.2s-1.7,2-1.3,2.3c0.3,0.3,16.5,22.1,16.5,22.1L1233.1,86.4z"/>
	<path class="st2" d="M1208.8,63.2c-1.5,2.1-1,2.6-0.8,2.8c0.5,0.6,10.9,14.5,15.7,21c0.3,0.4,0.5,0.7,0.8,1l0.2,0.3l9.6-1.3
		l-0.6-1.2l-13.6-26.6l-0.6,0.2c-1.7,0.6-3.5,1.2-5,1.8c-0.8,0.3-1.6,0.5-2.3,0.7l0,0c-0.8,0.3-1.5,0.5-1.9,0.6
		C1209.5,62.2,1209.1,62.7,1208.8,63.2z M1219.3,60.9l12.7,25l-6.7,1l-0.1-0.1c-4.7-6.3-14.4-19.4-16-21.4c0.2-0.4,0.6-1,0.9-1.4
		C1210.9,63.8,1213.1,63.1,1219.3,60.9z"/>
</g>
<g class="st1">
	<polygon class="st2" points="1222.1,87.7 1205.1,65.1 1197.2,68.8 1196,71.6 1213.2,90.8 	"/>
	<path class="st2" d="M1195.6,70.8l-0.4,1l11.6,13l0.1,0.1l6.1,6.8l10.2-3.6l-0.7-0.9l-17.2-22.9l-3.7,1.7l-2.2,1l0,0l-2.8,1.3l0,0
		L1195.6,70.8z M1200.7,67.9l1.1-0.5l3.1-1.4l16,21.4l-0.8,0.3l-6.2,2.2l0,0l-0.3,0.1l-0.2,0.1l-0.2-0.2l-0.2-0.2l-16.2-18.1l0.8-2
		l0.1-0.2L1200.7,67.9L1200.7,67.9z"/>
</g>
<g class="st1">
	<g>
		<path class="st2" d="M1337.7,151.8c0,0-0.4-0.5-1.2-1.5c-0.7-1-1.8-2.3-3-3.8c-0.6-0.8-1.4-1.6-2.1-2.5s-1.6-1.7-2.4-2.7
			c-0.9-0.9-1.8-1.8-2.7-2.8c-0.9-0.9-1.9-1.9-2.8-2.8c-1.9-1.9-3.9-3.7-5.7-5.4c-0.9-0.8-1.8-1.7-2.7-2.5c-0.8-0.8-1.6-1.5-2.4-2.2
			c-2.9-2.8-4.8-4.8-4.8-4.8s2.4,1.3,5.8,3.6c1.7,1.1,3.6,2.5,5.6,4.1c1,0.8,2,1.6,3,2.5s2,1.8,3,2.7c1,1,1.9,1.9,2.8,2.9
			s1.8,2,2.6,3c1.6,2,3,4,4,5.8c0.5,0.9,1,1.7,1.3,2.5c0.4,0.7,0.7,1.4,0.9,2C1337.5,151.2,1337.7,151.8,1337.7,151.8z"/>
	</g>
</g>
<g class="st1">
	<g>
		<path class="st2" d="M1303.1,117.8c0,0-0.5,0.3-1.1,0.3c-0.6,0.1-1.2,0-1.8-0.3c-0.5-0.3-1-0.8-1.2-1.3s-0.3-1.1-0.3-1.1
			s0.5-0.3,1.1-0.3c0.6-0.1,1.2,0,1.8,0.3c0.5,0.3,1,0.8,1.2,1.3C1303,117.3,1303.1,117.8,1303.1,117.8z"/>
	</g>
</g>
<g>
	<g class="st1">
		<g>
			<path class="st2" d="M120,349.5c-22-0.9-44.1-1.8-66.1-3.3c-4.4-0.3-9.7,0-14-1.2c-0.8-0.2-1.7,0-2.1-0.7
				c-0.5-1.1,1.1-4.3,1.5-5.4c6.3-18.2,9.2-35.9,9.7-55.2c0.4-12.3,1.1-25.5-1.2-37.7c-0.4,0.5-0.8,1-1.2,1.5
				c11.1,0.3,22.2,0.5,33.3,0.6c8.8,0.1,17.5,0.1,26.3-0.1c4.3-0.1,8.5-0.2,12.8-0.4c2.3-0.1,6.2,0.4,8.3-0.6
				c1.6-0.8,0.4,0.4,0.2-0.8c0.1,0.4,0.2,1.1,0.1,1.5c-0.4,1.8-0.1,4.3-0.2,6.2c-0.4,6.3-0.9,12.7-1.5,19
				c-1.2,13.3-2.7,26.6-3.9,39.9c-1.2,12.6-2.2,25.2-3.1,37.9c-0.1,1.5,2.3,1.5,2.4,0c2-25.7,4.7-51.3,7-77
				c0.6-6.7,1.2-13.5,1.6-20.2c0.1-1.8,1.2-6.9-0.2-8.4c-1.6-1.8-9.3,0.2-11.4,0.3c-9.7,0.4-19.4,0.6-29.1,0.5
				c-14.1-0.1-28.3-0.4-42.4-0.7c-0.8,0-1.3,0.8-1.2,1.5c2.2,11.7,1.5,24.3,1.1,36.1c-0.4,13-1.2,25.8-4.3,38.5
				c-1.6,6.7-4.2,12.9-6.2,19.5c-2.3,7.6,4.2,6.9,10.1,7.4c14,1.1,28,1.8,42,2.4c10.6,0.5,21.2,1,31.8,1.4
				C121.5,352,121.5,349.6,120,349.5z"/>
		</g>
	</g>
	<g class="st1">
		<g>
			<path class="st2" d="M80.9,246.8c0.6-2.1,1.1-4.1,1.7-6.2c0.5-1.7,1.9-8.3,2.7-8.8c0.4-0.3,6.3,1.4,7.7,1.7
				c5.6,1.2,11.1,2.3,16.7,3.4c19.6,3.8,39.5,6.7,59.4,8.4c-0.3-0.6-0.7-1.2-1-1.8c-10.7,15.6-19.2,33.4-24.6,51.5
				c-3.6,12.1-6.5,24.5-9.4,36.8c-0.6,2.6-1,7.8-2.7,9.9c-1.9,2.3-7.1,0.8-9.9,0.4c-1.5-0.3-2.2,2.1-0.6,2.3
				c4.6,0.8,10.9,2.8,13-2.4c4-9.8,5.2-21.2,7.9-31.4c6-23.4,14.8-45.9,28.5-66c0.6-0.8-0.2-1.7-1-1.8c-23.5-2-46.9-5.8-70-10.5
				c-4.1-0.8-8.2-2-12.3-2.5c-1.4-0.2-2-0.5-3.1,0.4c-1.7,1.4-2.3,6.1-2.9,8.1c-0.8,2.6-1.5,5.2-2.2,7.9
				C78.2,247.6,80.5,248.3,80.9,246.8L80.9,246.8z"/>
		</g>
	</g>
	<g class="st1">
		<g>
			<path class="st2" d="M158.2,264.2c8.9,4.4,19.5,10.3,29.5,10.7c-0.3-0.7-0.6-1.4-0.8-2c-12.7,11.7-24.7,25.4-32.2,41.1
				c-5.3,11-9.7,22.7-15.8,33.2c-2.6,4.5-4.8,3.7-9.6,2.6c-3-0.7-6-1.4-9-2.3c-1.5-0.4-2.1,1.9-0.6,2.3c3.2,0.9,6.4,1.7,9.6,2.4
				c2.2,0.5,5.9,1.7,8.1,0.7c2.4-1.2,4-5.2,5.1-7.4c3.1-6,5.8-12.2,8.6-18.4c6.1-13.4,12.6-25.4,22.2-36.6c4.8-5.6,9.9-11,15.3-16
				c0.8-0.7,0.1-2-0.8-2c-9.6-0.4-19.8-6.2-28.3-10.4C158,261.4,156.8,263.5,158.2,264.2L158.2,264.2z"/>
		</g>
	</g>
	<g class="st1">
		<g>
			<path class="st2" d="M55.8,258.9c20.1,1.2,40.6,2.1,60.7,0.3c1.5-0.1,1.5-2.5,0-2.4c-20.1,1.8-40.6,0.9-60.7-0.3
				C54.3,256.5,54.3,258.9,55.8,258.9L55.8,258.9z"/>
		</g>
	</g>
	<g class="st1">
		<g>
			<path class="st2" d="M55.8,266c20,0.9,40.8,2.6,60.7,0.3c1.5-0.2,1.5-2.6,0-2.4c-19.9,2.3-40.7,0.6-60.7-0.3
				C54.3,263.6,54.3,266,55.8,266L55.8,266z"/>
		</g>
	</g>
	<g class="st1">
		<g>
			<path class="st2" d="M55.8,273c20.1,1.2,40.6,2.1,60.7,0.3c1.5-0.1,1.5-2.5,0-2.4c-20.1,1.8-40.6,0.9-60.7-0.3
				C54.3,270.5,54.3,272.9,55.8,273L55.8,273z"/>
		</g>
	</g>
	<g class="st1">
		<g>
			<path class="st2" d="M55.8,280.1c11.4,0.7,22.9,1,34.3,0.9c1.5,0,1.5-2.4,0-2.4c-11.4,0.1-22.9-0.3-34.3-0.9
				C54.3,277.6,54.3,280,55.8,280.1L55.8,280.1z"/>
		</g>
	</g>
	<g class="st1">
		<g>
			<path class="st2" d="M56.6,289c19.8,1,40,1.7,59.8-0.3c1.5-0.2,1.5-2.6,0-2.4c-19.8,2-40,1.3-59.8,0.3
				C55.1,286.5,55.1,288.9,56.6,289L56.6,289z"/>
		</g>
	</g>
	<g class="st1">
		<g>
			<path class="st2" d="M56.1,296.2c19.7,0.7,40.2,2.2,59.8-0.3c1.5-0.2,1.5-2.6,0-2.4c-19.6,2.5-40.1,1-59.8,0.3
				C54.5,293.7,54.5,296.1,56.1,296.2L56.1,296.2z"/>
		</g>
	</g>
	<g class="st1">
		<g>
			<path class="st2" d="M53.6,311c19.8,1,40,1.7,59.8-0.3c1.5-0.2,1.5-2.6,0-2.4c-19.8,2-40,1.3-59.8,0.3
				C52.1,308.5,52.1,310.9,53.6,311L53.6,311z"/>
		</g>
	</g>
	<g class="st1">
		<g>
			<path class="st2" d="M54.9,303.4c11.2,0.6,22.5,0.8,33.8,0.6c1.5,0,1.5-2.4,0-2.4c-11.3,0.2-22.5,0-33.8-0.6
				C53.4,300.9,53.4,303.3,54.9,303.4L54.9,303.4z"/>
		</g>
	</g>
	<g class="st1">
		<g>
			<path class="st2" d="M51.6,317.6c21.1,1.1,42.4,1.9,63.4,0.8c1.5-0.1,1.5-2.5,0-2.4c-21.1,1.1-42.4,0.3-63.4-0.8
				C50.1,315.1,50.1,317.5,51.6,317.6L51.6,317.6z"/>
		</g>
	</g>
	<g class="st1">
		<g>
			<path class="st2" d="M50.4,324.3c20.8,1.4,42.3,3.5,63.2,1.9c1.5-0.1,1.5-2.5,0-2.4c-20.9,1.6-42.3-0.6-63.2-1.9
				C48.9,321.8,48.9,324.2,50.4,324.3L50.4,324.3z"/>
		</g>
	</g>
	<g class="st1">
		<g>
			<path class="st2" d="M49.3,330.8c21.4,1.7,43.1,3.1,64.6,1.9c1.5-0.1,1.5-2.5,0-2.4c-21.5,1.1-43.2-0.3-64.6-1.9
				C47.8,328.2,47.8,330.6,49.3,330.8L49.3,330.8z"/>
		</g>
	</g>
	<g class="st1">
		<g>
			<path class="st2" d="M48.2,337.4c12.1,1,24.3,1.6,36.4,1.8c1.5,0,1.5-2.4,0-2.4c-12.2-0.2-24.3-0.9-36.4-1.8
				C46.6,334.9,46.6,337.3,48.2,337.4L48.2,337.4z"/>
		</g>
	</g>
	<g class="st1">
		<g>
			<path class="st2" d="M87.5,244.3c6.5,1.7,13.1,3,19.8,3.6c1.5,0.1,1.5-2.3,0-2.4c-6.5-0.6-12.9-1.9-19.2-3.5
				C86.6,241.6,86,243.9,87.5,244.3L87.5,244.3z"/>
		</g>
	</g>
	<g class="st1">
		<g>
			<path class="st2" d="M128.4,251.4c7.5,1.9,15.2,3,22.9,3.6c1.5,0.1,1.5-2.3,0-2.4c-7.5-0.6-15-1.6-22.3-3.5
				C127.5,248.7,126.9,251,128.4,251.4L128.4,251.4z"/>
		</g>
	</g>
	<g class="st1">
		<g>
			<path class="st2" d="M128.1,258.2c6.8,1.3,13.7,2.2,20.5,2.9c1.5,0.1,1.5-2.3,0-2.4c-6.7-0.6-13.3-1.5-19.9-2.8
				C127.3,255.6,126.6,257.9,128.1,258.2L128.1,258.2z"/>
		</g>
	</g>
	<g class="st1">
		<g>
			<path class="st2" d="M143.1,270.7c-5.1-0.7-10.1-1.7-15-2.8c-1.5-0.3-2.1,2-0.6,2.3c5,1.1,10,2.1,15,2.8
				C144,273.2,144.6,270.9,143.1,270.7L143.1,270.7z"/>
		</g>
	</g>
	<g class="st1">
		<g>
			<path class="st2" d="M139.7,277.1c-4.1-0.5-8.1-1.2-12.1-1.8c-1.5-0.3-2.2,2.1-0.6,2.3c4.2,0.7,8.5,1.4,12.8,1.9
				C141.3,279.7,141.2,277.3,139.7,277.1L139.7,277.1z"/>
		</g>
	</g>
	<g class="st1">
		<g>
			<path class="st2" d="M137.9,283.3c-3.7-0.5-7.5-1.1-11.2-1.7c-1.5-0.2-2.2,2.1-0.6,2.3c3.9,0.6,7.9,1.2,11.8,1.7
				C139.4,285.9,139.4,283.5,137.9,283.3L137.9,283.3z"/>
		</g>
	</g>
	<g class="st1">
		<g>
			<path class="st2" d="M134.8,289.8c-3.1-0.4-6.2-0.8-9.3-1.1c-1.5-0.2-1.5,2.2,0,2.4c3.1,0.3,6.2,0.7,9.3,1.1
				C136.3,292.4,136.3,290,134.8,289.8L134.8,289.8z"/>
		</g>
	</g>
	<g class="st1">
		<g>
			<path class="st2" d="M131.5,303.5c-2.3-0.3-4.8-0.6-7-1.3c-1.5-0.5-2.1,1.8-0.6,2.3c2.4,0.8,5.1,1.1,7.7,1.4
				C133,306.1,133,303.7,131.5,303.5L131.5,303.5z"/>
		</g>
	</g>
	<g class="st1">
		<g>
			<path class="st2" d="M129.6,310.4c-1.9-0.3-3.8-0.6-5.6-0.9c-1.5-0.2-2.2,2.1-0.6,2.3c1.9,0.3,3.8,0.6,5.6,0.9
				C130.5,313,131.2,310.7,129.6,310.4L129.6,310.4z"/>
		</g>
	</g>
	<g class="st1">
		<g>
			<path class="st2" d="M127.7,317.1c-1.6-0.2-3.2-0.4-4.8-0.5c-1.5-0.2-1.5,2.2,0,2.4c1.6,0.2,3.2,0.4,4.8,0.5
				C129.3,319.7,129.3,317.3,127.7,317.1L127.7,317.1z"/>
		</g>
	</g>
	<g class="st1">
		<g>
			<path class="st2" d="M154.5,271.9c5.3,2.8,10.9,5.5,16.7,7c1.5,0.4,2.1-1.9,0.6-2.3c-5.6-1.5-11-4-16.1-6.8
				C154.3,269.1,153.1,271.2,154.5,271.9L154.5,271.9z"/>
		</g>
	</g>
	<g class="st1">
		<g>
			<path class="st2" d="M151.5,277.5c4.9,2.6,10.1,4.8,15.3,6.6c1.5,0.5,2.1-1.8,0.6-2.3c-5-1.8-10-3.9-14.7-6.4
				C151.3,274.7,150.1,276.8,151.5,277.5L151.5,277.5z"/>
		</g>
	</g>
	<g class="st1">
		<g>
			<path class="st2" d="M148.8,283.5c4.2,2.2,8.7,4.3,13.3,5.4c1.5,0.4,2.1-1.9,0.6-2.3c-4.5-1.1-8.7-3-12.8-5.2
				C148.7,280.7,147.5,282.8,148.8,283.5L148.8,283.5z"/>
		</g>
	</g>
	<g class="st1">
		<g>
			<path class="st2" d="M155.6,297.2c-3.3-1-6.6-2.3-9.6-4.1c-1.3-0.8-2.5,1.3-1.2,2.1c3.2,1.9,6.6,3.3,10.2,4.4
				C156.4,299.9,157.1,297.6,155.6,297.2L155.6,297.2z"/>
		</g>
	</g>
	<g class="st1">
		<g>
			<path class="st2" d="M152.6,302.3c-3-0.8-5.9-1.9-8.7-3.2c-1.4-0.7-2.6,1.4-1.2,2.1c3,1.5,6.1,2.6,9.3,3.5
				C153.4,305.1,154.1,302.7,152.6,302.3L152.6,302.3z"/>
		</g>
	</g>
</g>
<g>
	<g class="st1">
		<g>
			<g>
				<path class="st2" d="M58.6,123c2.4,1.7,5.2,2.6,8.2,2.6c1.1,0,1.1-1.7,0-1.7c-2.7,0-5.2-0.8-7.4-2.4
					C58.6,120.9,57.7,122.4,58.6,123L58.6,123z"/>
			</g>
		</g>
		<g>
			<g>
				<path class="st2" d="M58.7,120c2.5,1.4,5.1,2.4,7.9,2.9c1.1,0.2,1.5-1.4,0.5-1.6c-2.6-0.5-5.1-1.4-7.5-2.7
					C58.6,118,57.8,119.5,58.7,120L58.7,120z"/>
			</g>
		</g>
		<g>
			<g>
				<path class="st2" d="M61.4,117.1c1.6,0.9,3.4,1.7,5.2,2.3c1,0.3,1.5-1.3,0.5-1.6c-1.7-0.5-3.2-1.2-4.7-2.1
					C61.3,115.1,60.5,116.6,61.4,117.1L61.4,117.1z"/>
			</g>
		</g>
		<g>
			<g>
				<path class="st2" d="M62.7,113.2c1.5,1.7,3.4,2.9,5.6,3.3c1.1,0.2,1.5-1.4,0.5-1.6c-1.9-0.4-3.6-1.4-4.9-2.9
					C63.2,111.2,62,112.4,62.7,113.2L62.7,113.2z"/>
			</g>
		</g>
	</g>
	<g class="st1">
		<g>
			<g>
				<path class="st2" d="M95.9,117c-9,3.5-18.3,8.9-21.6,18.4c-1.2,3.3-1.7,6.7-2.2,10.1c0,0-0.3,4-0.6,4.2c1.1-0.4,0.3-0.3-0.2-1.9
					c-1.7-5.6-4.5-13.6-0.6-18.8c0.6-0.9-0.4-2-1.4-1.8c-5,1.5-10.9-1.1-9.4-7.4c0.9-3.8,4.5-7,7.7-9c1.3-0.8,0.1-2.9-1.2-2.1
					c-4.9,3.1-10.5,8.8-8.8,15.1c1.5,5.6,7.4,7.1,12.4,5.6c-0.5-0.6-0.9-1.2-1.4-1.8c-3.6,4.8-2.2,12.2-0.7,17.5
					c0.5,1.6,2,8.6,5,6.7c1.2-0.8,1.2-3.7,1.4-4.8c0.7-5.2,1.4-10.8,4.3-15.4c3.8-6,11.5-9.9,18-12.5C98,118.8,97.4,116.5,95.9,117
					L95.9,117z"/>
			</g>
		</g>
		<g>
			<g>
				<path class="st2" d="M89.9,67.6c-0.1,0.6,2.5-1.2,2.9-1.3c4.2-1.3,7.1,3.6,6.7,7.2c-0.2,1.8-1,3.6-1.8,5.1
					c-0.6,1.2,0.9,2.5,1.9,1.5c4.1-4.4,9.4,0,9.1,4.6c-0.1,1.3,1.6,1.5,2.2,0.6c2.6-3.8,9.8-4.7,13.2-1.9c2.7,2.2,2.6,5.8,1.7,9
					c-0.3,1.2,1.1,1.9,2,1.2c3.7-3.2,10.3-1.5,11.7,3.2c1.1,3.8-0.7,8.2-3.2,11c-2.8,3.1-9.6,6.8-13.9,4.4c-2.3-1.3-2.9-3.9-3.3-6.2
					c-0.3-1.2-2-1.1-2.3,0c-4.5,14.7-31.3,15.4-36,0.4c-0.2-0.8-1.4-1.3-2-0.5c-3.7,4.7-12.6,3.5-17.2,1.1c-4.8-2.5-7.7-8-5-13.3
					c2-3.9,8.7-8.8,12-2.6c0.6,1.1,2.2,0.5,2.2-0.6c0.2-7.5,10.8-5.8,10.7,1.1c0,1.2,1.6,1.6,2.2,0.6c4.6-7.4,17.2-2.6,14,6
					c-0.4,1.1,1.3,2.1,2,1.2c1.2-1.6,2.8-2.4,5.6-0.5c1.3,0.9,2.5-1.2,1.2-2.1c-2.9-2-6.2-2.1-8.5,0.9c0.7,0.4,1.3,0.8,2,1.2
					c4.2-11.4-12.4-17.5-18.4-7.8c0.7,0.2,1.5,0.4,2.2,0.6c0.2-10.2-15.2-11.8-15.4-1.1c0.7-0.2,1.5-0.4,2.2-0.6
					c-6.1-11.4-20.9,2.8-16.6,12.6c3.7,8.5,20.1,13,26.4,5.1c-0.7-0.2-1.3-0.4-2-0.5c5.3,17.3,35.4,16.7,40.6-0.4
					c-0.8,0-1.5,0-2.3,0c2.7,13.1,18.5,9.2,23.7-0.6c2.1-4.1,2.8-10.2-0.8-13.8c-3.5-3.5-9.9-3.5-13.6-0.4c0.7,0.4,1.3,0.8,2,1.2
					c1.2-4.3,1-10.1-3.5-12.4c-4.8-2.6-12.6-1-15.8,3.6c0.7,0.2,1.5,0.4,2.2,0.6c0.4-7-8-11.9-13.2-6.3c0.6,0.5,1.3,1,1.9,1.5
					c2.3-4.3,3.9-10.8-0.3-14.5c-2.6-2.4-11.4-2.5-12,2.3C87.3,69.1,89.7,69.1,89.9,67.6L89.9,67.6z"/>
			</g>
		</g>
		<g>
			<g>
				<path class="st2" d="M140.2,100.1c4.4,7,13.1,8.6,20.2,5.1c6.1-2.9,13.5-12.9,5-17.7c0.1,0.6,0.2,1.3,0.2,1.9
					c4.1-3.5,6.7-9.2,3.2-14c-3.1-4.2-8.8-5.4-13.5-3.3c0.5,0.5,1.1,1.1,1.6,1.6c2.3-4.7,3.6-11.2,0.4-15.8
					c-3.7-5.2-11.5-6.4-16.4-2.3c-1.2,1,0.5,2.7,1.7,1.7c5.3-4.5,13.5-0.1,14.2,6.4c0.3,2.8-0.7,6.2-2,8.8c-0.6,1.1,0.5,2.1,1.6,1.6
					c4.3-1.9,11.5,0.1,11.6,6c0.1,2.9-2.2,5.7-4.3,7.5c-0.6,0.5-0.4,1.5,0.2,1.9c9.2,5.2-5.2,14.5-10.3,15
					c-4.6,0.4-9.2-1.7-11.7-5.7C141.5,97.6,139.4,98.8,140.2,100.1L140.2,100.1z"/>
			</g>
		</g>
		<g>
			<g>
				<path class="st2" d="M61.3,87c-3.8-3.5-7.7-8.8-7.1-14.2c1-8.7,9.8-9.7,16.6-8.3c0.8,0.2,1.8-0.6,1.5-1.5
					c-1.4-3.8-2.4-7.9-1.3-11.9c2.2-7.6,10.9-10.9,17.8-12.5c6.2-1.4,13.8-1.6,19.1,2.6c4.8,3.7,2.9,9.6,0.2,14.1
					c-0.7,1.1,0.6,2.1,1.6,1.6c4.4-2,6.7,5.4,3.8,8.3c-0.8,0.8,0,2.5,1.2,2c2.8-1.1,7-2.1,8.2,2c0.4,1.5,2.8,0.8,2.3-0.6
					c-1.6-5.1-6.7-5.4-11.2-3.7c0.4,0.7,0.8,1.3,1.2,2c5.4-5.6,1.4-15.9-6.7-12.1c0.5,0.5,1.1,1.1,1.6,1.6c2.7-4.4,5-10.6,1.4-15.2
					c-4.4-5.5-12.8-6.5-19.3-5.8c-7.9,0.9-18,4.1-22.3,11.5c-3,5.2-2.1,11.2-0.2,16.5c0.5-0.5,1-1,1.5-1.5c-7.2-1.5-15.6-0.7-18.9,7
					c-2.9,7.1,1.8,14.8,6.9,19.5C60.8,89.7,62.5,88,61.3,87L61.3,87z"/>
			</g>
		</g>
		<g>
			<g>
				<path class="st2" d="M113,44.5c4.1-5.5,14.1-3.9,19.4-1.5c8.4,3.8,10.5,14,4.8,21.2c-0.8,1,0.2,2.7,1.5,1.9
					c2.7-1.7,2.2-1.1,4.5,1.9s2.7,3.3,0.6,6.1c-0.6,0.8-0.3,2.1,0.8,2c4.6,0,9.8,4.6,5.3,9.2c-1.1,1.1,0.6,2.8,1.7,1.7
					c6-6.2,0.4-13.4-7-13.3c0.3,0.7,0.6,1.4,0.8,2c5.3-6.8,1-17.5-8-11.8c0.5,0.6,1,1.3,1.5,1.9c5.9-7.4,5.3-18.8-3.2-23.9
					c-6.7-4.1-19.3-6.1-24.7,1.3C110,44.6,112.1,45.8,113,44.5L113,44.5z"/>
			</g>
		</g>
		<g>
			<g>
				<path class="st2" d="M72.6,69.5c-1.5-1.5-1.5-3.7-0.2-5.3c1.6-2,4.1-2.4,6.4-1.7c1.5,0.4,2.1-1.9,0.6-2.3
					c-3.4-1-7.1-0.2-9.2,2.8c-1.8,2.6-1.7,6,0.6,8.2C72,72.3,73.7,70.6,72.6,69.5L72.6,69.5z"/>
			</g>
		</g>
	</g>
	<g class="st1">
		<g>
			<path class="st2" d="M95,43.1c0,0,0.1-0.2,0.4-0.4c0.2-0.2,0.7-0.6,1.3-0.9c0.6-0.3,1.3-0.5,2.1-0.6c0.8-0.1,1.6,0,2.5,0.2
				c0.8,0.2,1.6,0.6,2.3,1c0.7,0.5,1.2,1,1.5,1.5c0.4,0.5,0.6,1,0.7,1.3c0.1,0.4,0.1,0.6,0.1,0.6s-0.7-0.3-1.8-0.8
				c-1-0.4-2.2-0.9-3.5-1.2S98,43.3,97,43.2c-0.5,0-1-0.1-1.4-0.1C95.3,43.1,95,43.1,95,43.1z"/>
		</g>
	</g>
	<g class="st1">
		<g>
			<path class="st2" d="M148.1,99.5c0,0,0.2,0,0.5,0c0.2,0,0.3,0.1,0.5,0.2s0.4,0.2,0.6,0.2c0.2,0.1,0.5,0.2,0.6,0.2
				c0.2,0.1,0.4,0.1,0.6,0.2c0.4,0.1,0.9,0.2,1.3,0.3c0.9,0.2,1.8,0.2,2.7,0.3c0.2,0,0.4,0,0.6,0c0.2,0,0.4,0,0.5,0
				c0.3,0,0.5,0,0.5,0s-0.1,0.2-0.2,0.4c-0.1,0.3-0.4,0.6-0.8,1c-0.4,0.3-0.9,0.6-1.6,0.8c-0.6,0.2-1.3,0.2-2,0.1s-1.4-0.4-1.9-0.8
				c-0.3-0.2-0.5-0.4-0.7-0.6s-0.4-0.5-0.5-0.7c-0.2-0.2-0.2-0.4-0.3-0.6s-0.1-0.3-0.2-0.5C148.2,99.7,148.1,99.5,148.1,99.5z"/>
		</g>
	</g>
	<g class="st1">
		<g>
			<path class="st2" d="M158.9,98.4c0,0,0-0.1,0-0.3c0-0.2,0-0.4,0.1-0.6c0.1-0.5,0.4-0.9,0.8-1.1c0.4-0.2,0.9-0.3,1.3-0.2
				c0.4,0.1,0.8,0.3,0.9,0.3c0,0,0.1,0.5-0.1,0.9c-0.1,0.5-0.4,0.9-0.8,1.1c-0.4,0.2-0.9,0.3-1.3,0.2
				C159.3,98.6,158.9,98.4,158.9,98.4z"/>
		</g>
	</g>
	<g class="st1">
		<g>
			<path class="st2" d="M99.2,112.4c0,0,0.2,0,0.5,0.1c0.3,0,0.7,0.1,1.1,0.1c0.5,0,0.9,0,1.5,0c0.3,0,0.5,0,0.8,0s0.5,0,0.8-0.1
				c0.3,0,0.6-0.1,0.8-0.1c0.3,0,0.6-0.1,0.8-0.1c0.5-0.1,1.1-0.1,1.6-0.2c1-0.1,1.7-0.1,1.7-0.1s-0.3,0.7-1.1,1.4
				c-0.4,0.4-0.9,0.7-1.5,1c-0.3,0.1-0.6,0.3-1,0.3c-0.3,0.1-0.8,0.2-1.1,0.2c-0.4,0-0.8,0-1.1,0c-0.4,0-0.7-0.1-1.1-0.2
				c-0.7-0.2-1.3-0.5-1.7-0.9c-0.4-0.4-0.7-0.8-0.8-1.1C99.2,112.6,99.2,112.4,99.2,112.4z"/>
		</g>
	</g>
	<g class="st1">
		<g>
			<path class="st2" d="M135.3,146.8c-0.3-0.2-0.7-0.2-0.9,0.1c-0.9,0.8-1.8,0.4-2.7-0.1s-1.6-1.2-2.2-2.1c0.1-0.2,0.1-0.2,0.1-0.3
				c0.3-0.3,0.6-0.5,0.9-0.8c2.2-2.2,2.8-4.9,2.4-7.9c-0.3-2.2-2.5-3.4-4.7-1.8c-0.5,0.4-0.9,1-1.6,1.2c-0.2-0.6-0.3-1.1-0.6-1.5
				c-0.6-1.2-2-1.2-2.7-0.1c-0.2,0.3-0.3,0.6-0.4,0.9c-0.2,0.8-0.4,1.7-0.5,2.5c-0.2,1.9-0.2,3.8-0.4,5.7c-0.3,2.4-0.2,4.8-0.2,7.3
				c0,0.4,0,0.9,0.2,1.3c0.4,1,1.2,1.6,2.2,1.5s1.8-0.8,1.9-2.1c0.1-0.7,0-1.5,0-2.2c0-0.6-0.1-1.3,0.2-1.9c0.6,0.8,1.1,1.6,1.7,2.3
				c1.8,2,4.9,2.1,6.8,0.2c0.3-0.3,0.6-0.7,0.7-1.1C135.6,147.5,135.7,147.1,135.3,146.8z M126.5,140.9c-0.4-0.2-0.4-0.5-0.3-0.9
				c0.1-0.5,0.1-1.1,0.2-1.7c0.1-1.8,1-2.6,3-2.8C129.8,137.7,128.5,140.2,126.5,140.9z"/>
		</g>
		<g>
			<path class="st2" d="M149.8,130.4c-0.5-0.7-1.1-0.6-1.7,0c-0.3,0.4-0.3,1-0.9,1.3c-0.6-0.7-1.2-1.4-2.1-1.9
				c-0.8-0.5-1.6-0.8-2.5-0.2c-0.3,0.2-0.7,0.2-1.1,0.2c-1.6-0.2-2.6,0.7-3.2,2c-0.3,0.7-0.5,1.4-0.7,2.1c-0.5,2.2-0.5,4.4-0.3,6.6
				c0.2,2.4,0.7,4.7,2,6.7c0.5,0.9,1.1,1.7,2.1,2.2c0.9,0.5,1.9,0.6,2.8,0.2c1.5-0.8,2.8-1.9,3.5-3.5c1.2-3,1.3-6,0.9-9.2
				c-0.1-1.2-0.2-2.1,0.9-2.9C150.6,133,150.7,131.5,149.8,130.4z M146.5,133.6c-1.7,0.4-2.3-0.2-2.2-2.6
				C145.6,131.5,146.2,132.4,146.5,133.6z M147.1,144.1c-0.1,0.5-0.3,1.1-0.8,1.4c-1.4,0.9-2.3,0.4-3.1-0.9c-0.6-1-1-2.2-1.1-3.3
				c-0.2-1.8-0.6-3.6-0.4-5.4c0-0.4-0.1-0.9,0.4-1.3c1.3,1.5,2.7,2.6,4.7,1.5c0.5,0.2,0.5,0.6,0.6,1
				C147.6,139.3,147.7,141.7,147.1,144.1z"/>
		</g>
		<g>
			<path class="st2" d="M117.6,137.9c-0.1-0.7-0.3-1.3-0.6-1.9c-1-1.7-2.9-2.1-4.5-1.1c-0.7,0.5-1.3,1.1-1.8,1.7
				c-0.3,0.3-0.4,0.8-1,0.9c-0.2-0.1-0.3-0.3-0.5-0.4c-1.4-0.9-2.4-0.6-3.1,0.9c-0.3,0.7-0.5,1.5-0.6,2.3c-0.4,3.3-0.8,6.7-1.3,10
				c-0.1,0.7,0,1.5,0.4,2.1c0.5,0.8,1.2,1.1,2.2,1c0.9-0.1,1.4-0.7,1.6-1.5c0.2-0.7,0.3-1.4,0.4-2.2c0-0.6-0.1-1.3,0.4-1.9
				c3,0.7,5-0.7,6.7-2.9C117.3,142.8,117.9,140.5,117.6,137.9z M112.8,141.8c-0.6,1.1-1.4,2.2-3,1.9c-0.8-2.5,1.2-6.1,3.9-6.8
				C114.4,138.7,113.7,140.3,112.8,141.8z"/>
		</g>
		<g>
			<path class="st2" d="M190.2,123.1c-0.9-1.4-2.3-2-3.9-2.1c-1.1-0.1-2.1-0.1-3.2-0.4c-1.7-0.5-3-1.5-3.5-3.3c-0.3-1-0.8-2-1.1-3
				c-0.9-3.7,2.5-6.8,6.4-6.1c0.6,0.1,1,0.5,1.4,0.9c0.9,1.1,0.5,2.2-0.9,2.4c-1.3,0.2-2.4,0.6-3.1,1.8c-0.5,0.8-0.5,1.7-0.1,2.4
				c0.4,0.8,1.3,1.1,2.2,1c1.4-0.1,2.8-0.2,4.2,0.1c1.9,0.4,3.1,1.6,3.3,3.5c0.2,1.4,0.2,2.7,0,4c-0.4,2.9-2.3,3.5-4.8,2.8
				c-0.8-0.2-1.5-0.8-2-1.5c-0.4-0.5-0.6-1.1-0.3-1.8c0.3-0.7,1-0.6,1.6-0.5c0.9,0.2,1.8,0.4,2.7,0.3
				C189.4,123.6,189.8,123.7,190.2,123.1z"/>
		</g>
		<g>
			<path class="st2" d="M179.2,128.5c0-0.1,0-0.5,0-0.9c-0.1-0.7-0.2-1.3-0.4-2c-0.1-0.4-0.4-0.7-0.8-0.8c-0.5-0.1-0.7,0.3-0.9,0.7
				c-0.1,0.1-0.1,0.3-0.2,0.5c-0.4,1.4-1.4,2.5-2.3,3.5c-1,1.1-1.7,0.9-2.3-0.4c-0.2-0.5-0.2-0.9,0-1.3c0.3-0.6,0.6-1.2,0.8-1.9
				c0.5-1.8,0.9-3.6,0.3-5.5c-0.3-1-0.9-1.8-2-2.1c-1.2-0.3-2.2,0.2-3,1.1s-1.3,2-1.4,3.2c-0.1,1.5-0.2,3,0.1,4.4
				c0.3,2,0.9,4,2.2,5.6c0.8,1.1,1.9,1.9,3.3,2.2C175.7,135.3,179.9,132.5,179.2,128.5z M171.7,120.6c1.3,2.1,0.7,4,0.2,6
				C170.9,125.2,170.8,122.2,171.7,120.6z"/>
		</g>
		<g>
			<path class="st2" d="M160.7,140.7c0.7-1,1.1-2,1.5-3c0.3-0.7,0.5-1.5,1.5-1.4c1,0,1.2,0.8,1.5,1.6c0.3,1,0.2,2-0.1,3
				c-0.6,1.6-1.6,2.2-3.3,1.9c-0.3,0-0.7-0.2-1-0.1c-3.5,0.1-5.7-1.4-6.7-4.8c-1-3.4-1.2-6.7,0-10.1c0.3-0.9,0.8-1.7,1.5-2.4
				c1.7-2,3.9-2,6-1.1c0.9,0.4,1.4,1.3,1.2,2.4c-0.1,1.1-0.8,2.1-1.7,2.3s-1.7-0.5-1.9-1.5c-0.1-0.7,0.1-1.3-0.2-2
				c-1.2,0.2-1.4,1.1-1.5,2c-0.4,2.1-0.4,4.2,0,6.4c0.4,1.9,1,3.7,1.9,5.4C159.6,139.7,159.9,140.3,160.7,140.7z"/>
		</g>
		<g>
			<path class="st2" d="M199.5,112.4c0.3-1.1-0.2-1.9-0.4-2.9c-0.1-0.4-0.4-0.7-0.9-0.7c-1.8,0.2-3.4-0.7-5.1-1.2
				c-3.8-1.1-5-5-2.3-8c0.9-1,1.9-1.7,3.4-1.6c0.8,0,1.5,0.4,2,1.1c0.6,0.8,0.4,1.6-0.4,2.2c-0.2,0.2-0.5,0.3-0.8,0.3
				c-0.7,0.2-1,0.7-1.1,1.4c-0.3,1.6,0.7,3.3,2.3,3.7c1,0.3,1.9,0.6,3,0.6c1.5,0.1,2.7,0.7,3.7,1.8c1.5,1.6,1.3,4.7-0.3,6.1
				c-1.7,1.6-4.9,1.3-6.3-0.6c-0.3-0.4-0.7-0.9-0.3-1.5c0.3-0.5,0.8-0.5,1.3-0.5C198.1,112.6,198.8,112.8,199.5,112.4z"/>
		</g>
	</g>
</g>
<g>
	<g class="st1">
		<g>
			<path class="st2" d="M299.3,124.5c-30,2.3-64.4,15.5-66.5,49.6c-1.1,19.2,6.1,32.7,23.5,41c13.9,6.7,28.4,10.6,43.6,12.5
				c43,5.6,87,6,130.3,5.6c21.1-0.2,42.3-0.7,63.4-2.6c13.8-1.2,28-2.5,40.3-9.5c19.6-11.3,22.5-32.2,18.6-52.9
				c-5.1-26.4-33.7-43.6-58.8-45.4c-3.5-0.3-3.5,5.1,0,5.4c26.5,2,51.7,20.8,54.4,48.2c2.2,22.1-6.7,38.9-29.3,45.1
				c-27.4,7.5-58.9,6-87,6.2c-36.7,0.4-73.5-0.4-110-3.4c-12.4-1-25.1-1.9-37.2-4.9c-14.3-3.5-35.1-9.5-42.8-23.3
				c-11.7-20.9-0.1-46.1,19.6-56.1c11.5-5.9,25-9.3,37.9-10.3C302.8,129.7,302.8,124.3,299.3,124.5L299.3,124.5z"/>
		</g>
	</g>
	<g class="st1">
		<g>
			<path class="st2" d="M295.7,144.9c1.7,10.7,27.4,16,35.1,18.1c32.5,8.5,66.9,8.9,100.2,6.8c19.2-1.2,46.1-1.4,62.9-12.1
				c7.3-4.6,6.1-10.4,5.3-18.2c-3.5-31.6-17-64.7-43.1-84.1c-34.9-26-89.6-23.3-122.1,5.3c-22.3,19.6-37.8,53.6-38.3,83.6
				c-0.1,3.5,5.3,3.5,5.4,0c0.4-20.8,9.2-43.7,20.4-60.8c23.7-36.1,70.9-49.6,111.2-34.8c32.5,11.9,51,43.2,58.4,75.5
				c1.4,6.1,5.8,19.3,3.3,25.6c-3.9,9.8-31.8,11.3-40.2,12.4c-33.8,4.4-69.3,5.2-103-0.4c-11.5-1.9-22.9-4.5-33.8-8.7
				c-3-1.1-15.7-5.2-16.4-9.6C300.3,140.1,295.1,141.5,295.7,144.9z"/>
		</g>
	</g>
	<g class="st1">
		<g>
			<path class="st2" d="M234.2,170.3c1.6,6,7.8,10.8,12.5,14.2c19.1,13.6,44.5,18.4,67.2,21.8c48.8,7.3,99.6,6.8,148.7,2.9
				c24.8-2,52.1-4.4,74.9-15.1c5-2.4,14.3-6.8,15.5-13.2c0.6-3.4-4.6-4.9-5.2-1.4c-0.6,3.2-7.1,6.9-10.5,8.7
				c-20.2,10.5-45.5,12.9-67.7,15c-44.9,4.2-91,4.7-135.8,0.2c-26-2.6-54.7-6.5-78-19.5c-5.6-3.1-14.8-9-16.4-14.9
				C238.5,165.6,233.3,167,234.2,170.3L234.2,170.3z"/>
		</g>
	</g>
	<g class="st1">
		<g>
			<path class="st2" d="M298.8,226.7c-9.4,41-18.7,81.9-28.1,122.9c-0.8,3.4,4.4,4.8,5.2,1.4c9.4-41,18.7-81.9,28.1-122.9
				C304.8,224.7,299.6,223.3,298.8,226.7L298.8,226.7z"/>
		</g>
	</g>
	<g class="st1">
		<g>
			<path class="st2" d="M486.4,229.7c7.6,40.3,15.2,80.5,22.8,120.8c0.6,3.4,5.9,2,5.2-1.4c-7.6-40.3-15.2-80.5-22.8-120.8
				C490.9,224.8,485.7,226.3,486.4,229.7L486.4,229.7z"/>
		</g>
	</g>
	<g class="st1">
		<g>
			<path class="st2" d="M336.4,246.3c-2.5,14.3-4.9,28.6-7.4,42.9c-0.6,3.4,4.6,4.9,5.2,1.4c2.5-14.3,4.9-28.6,7.4-42.9
				C342.2,244.3,337,242.8,336.4,246.3L336.4,246.3z"/>
		</g>
	</g>
	<g class="st1">
		<g>
			<path class="st2" d="M460.4,253c3.9,22.8,7.8,45.6,11.7,68.3c0.6,3.4,5.8,2,5.2-1.4c-3.9-22.8-7.8-45.6-11.7-68.3
				C465,248.1,459.8,249.6,460.4,253L460.4,253z"/>
		</g>
	</g>
	<g class="st1">
		<g>
			<path class="st2" d="M326.4,304c-1.6,8.5-3.2,17-4.8,25.4c-0.6,3.4,4.6,4.9,5.2,1.4c1.6-8.5,3.2-17,4.8-25.4
				C332.2,302,327,300.6,326.4,304L326.4,304z"/>
		</g>
	</g>
	<g class="st1">
		<g>
			<path class="st2" d="M416.3,258.6c0.5,11.1,1.1,22.3,1.6,33.4c0.2,3.5,5.6,3.5,5.4,0c-0.5-11.1-1.1-22.3-1.6-33.4
				C421.6,255.2,416.2,255.1,416.3,258.6L416.3,258.6z"/>
		</g>
	</g>
	<g class="st1">
		<g>
			<path class="st2" d="M375,263.9c-1.9,21.5-3.9,43.1-5.8,64.6c-0.3,3.5,5.1,3.4,5.4,0c1.9-21.5,3.9-43.1,5.8-64.6
				C380.7,260.5,375.3,260.5,375,263.9L375,263.9z"/>
		</g>
	</g>
	<g class="st1">
		<g>
			<path class="st2" d="M417.9,302.6c0.5,8.3,1.1,16.6,1.6,24.9c0.2,3.5,5.6,3.5,5.4,0c-0.5-8.3-1.1-16.6-1.6-24.9
				C423.1,299.1,417.7,299.1,417.9,302.6L417.9,302.6z"/>
		</g>
	</g>
	<g class="st1">
		<g>
			<path class="st2" d="M276.2,152.2c-5.3-1.7-11.6,0.4-14.1,5.6c-2.8,5.8,1.5,11.3,7.2,12.8c5.3,1.4,10.7-1.2,12.6-6.3
				C284,159,281.2,154.1,276.2,152.2c-3.2-1.3-4.6,4-1.4,5.2c2.2,0.9,3,3.1,2.1,5.2c-1.1,2.4-3.6,3.4-6.1,2.8
				c-2.6-0.7-5.2-2.7-3.7-5.5s4.9-3.4,7.7-2.5C278.1,158.5,279.5,153.2,276.2,152.2z"/>
		</g>
	</g>
	<g class="st1">
		<g>
			<path class="st2" d="M321.2,168.6c-5.3-1.7-11.6,0.4-14.1,5.6c-2.8,5.8,1.5,11.3,7.2,12.8c5.3,1.4,10.7-1.2,12.6-6.3
				C329,175.4,326.3,170.6,321.2,168.6c-3.2-1.3-4.6,4-1.4,5.2c2.2,0.9,3,3.1,2.1,5.2c-1.1,2.4-3.6,3.4-6.1,2.8
				c-2.6-0.7-5.2-2.7-3.7-5.5s4.9-3.4,7.7-2.5C323.1,174.9,324.5,169.7,321.2,168.6z"/>
		</g>
	</g>
	<g class="st1">
		<g>
			<path class="st2" d="M376.9,176c-5.3-1.7-11.6,0.4-14.1,5.6c-2.8,5.8,1.5,11.3,7.2,12.8c5.3,1.4,10.7-1.2,12.6-6.3
				C384.6,182.9,381.9,178,376.9,176c-3.2-1.3-4.6,4-1.4,5.2c2.2,0.9,3,3.1,2.1,5.2c-1.1,2.4-3.6,3.4-6.1,2.8
				c-2.6-0.7-5.2-2.7-3.7-5.5s4.9-3.4,7.7-2.5C378.7,182.3,380.2,177.1,376.9,176z"/>
		</g>
	</g>
	<g class="st1">
		<g>
			<path class="st2" d="M434.6,177.1c-5.3-1.7-11.6,0.4-14.1,5.6c-2.8,5.8,1.5,11.3,7.2,12.8c5.3,1.4,10.7-1.2,12.6-6.3
				C442.4,183.9,439.6,179,434.6,177.1c-3.2-1.3-4.6,4-1.4,5.2c2.2,0.9,3,3.1,2.1,5.2c-1.1,2.4-3.6,3.4-6.1,2.8
				c-2.6-0.7-5.2-2.7-3.7-5.5s4.9-3.4,7.7-2.5C436.5,183.4,437.9,178.1,434.6,177.1z"/>
		</g>
	</g>
	<g class="st1">
		<g>
			<path class="st2" d="M489.2,171.3c-5.3-1.7-11.6,0.4-14.1,5.6c-2.8,5.8,1.5,11.3,7.2,12.8c5.3,1.4,10.7-1.2,12.6-6.3
				C496.9,178.1,494.2,173.2,489.2,171.3c-3.2-1.3-4.6,4-1.4,5.2c2.2,0.9,3,3.1,2.1,5.2c-1.1,2.4-3.6,3.4-6.1,2.8
				c-2.6-0.7-5.2-2.7-3.7-5.5s4.9-3.4,7.7-2.5C491.1,177.5,492.5,172.3,489.2,171.3z"/>
		</g>
	</g>
	<g class="st1">
		<g>
			<path class="st2" d="M524.7,149.5c-5.3-1.7-11.6,0.4-14.1,5.6c-2.8,5.8,1.5,11.3,7.2,12.8c5.3,1.4,10.7-1.2,12.6-6.3
				C532.4,156.4,529.7,151.5,524.7,149.5c-3.2-1.3-4.6,4-1.4,5.2c2.2,0.9,3,3.1,2.1,5.2c-1.1,2.4-3.6,3.4-6.1,2.8
				c-2.6-0.7-5.2-2.7-3.7-5.5s4.9-3.4,7.7-2.5C526.6,155.8,528,150.6,524.7,149.5z"/>
		</g>
	</g>
	<g class="st1">
		<g>
			<path class="st2" d="M438.1,68.7c0,0,0.5-0.2,1.5-0.3c1-0.1,2.3-0.2,4,0c1.6,0.2,3.5,0.8,5.4,1.7c0.9,0.5,1.8,1,2.7,1.7
				c0.9,0.6,1.7,1.3,2.6,2.1c0.7,0.7,1.5,1.6,2.1,2.4c0.7,0.8,1.2,1.7,1.8,2.6c1,1.7,1.8,3.4,2.3,5c1,3,1.1,5.2,1.1,5.2
				s-1.6-1.5-3.7-3.8c-1-1.1-2.1-2.4-3.4-3.8c-0.6-0.7-1.2-1.3-1.9-2c-0.7-0.7-1.3-1.4-2-2c-0.6-0.6-1.3-1.3-2-1.9s-1.4-1.2-2.1-1.7
				c-1.4-1.1-2.7-2-4-2.8c-1.2-0.8-2.4-1.4-3.2-1.8C438.6,68.9,438.1,68.7,438.1,68.7z"/>
		</g>
	</g>
	<g class="st1">
		<g>
			<path class="st2" d="M466.3,101.2c0,0,1.1,0.1,2.1,0.9c1,0.7,2,1.9,2.5,3.3s0.4,3-0.1,4.1c-0.4,1.2-1.2,1.9-1.2,1.9
				s-0.9-0.6-1.7-1.4c-0.8-0.8-1.5-1.9-1.9-3.1s-0.4-2.4-0.3-3.6C465.9,102.2,466.3,101.2,466.3,101.2z"/>
		</g>
	</g>
	<g class="st1">
		<g>
			<path class="st2" d="M297.4,134.7c4.6,6.3,9.2,12.7,13.8,19c1.4,2,4.7,0.1,3.3-1.9c-4.6-6.3-9.2-12.7-13.8-19
				C299.3,130.9,296,132.8,297.4,134.7L297.4,134.7z"/>
		</g>
	</g>
	<g class="st1">
		<g>
			<path class="st2" d="M301.3,122.2c6.2,11.5,12.4,23.1,18.6,34.6c1.2,2.2,4.5,0.2,3.3-1.9c-6.2-11.5-12.4-23.1-18.6-34.6
				C303.5,118.1,300.2,120,301.3,122.2L301.3,122.2z"/>
		</g>
	</g>
	<g class="st1">
		<g>
			<path class="st2" d="M304.8,110.4c8.5,16.6,16.9,33.2,25.4,49.8c1.1,2.2,4.4,0.3,3.3-1.9c-8.5-16.6-16.9-33.2-25.4-49.8
				C306.9,106.2,303.6,108.2,304.8,110.4L304.8,110.4z"/>
		</g>
	</g>
	<g class="st1">
		<g>
			<path class="st2" d="M309.8,102.5c10.9,20.7,21.8,41.4,32.7,62.1c1.1,2.2,4.4,0.2,3.3-1.9c-10.9-20.7-21.8-41.4-32.7-62.1
				C311.9,98.5,308.6,100.4,309.8,102.5L309.8,102.5z"/>
		</g>
	</g>
	<g class="st1">
		<g>
			<path class="st2" d="M536.9,194.5c1.3,5.3,1.3,10.6,0,15.9c-0.6,2.4,3.1,3.4,3.7,1c1.5-6,1.5-12,0-18
				C540,191.1,536.4,192.1,536.9,194.5L536.9,194.5z"/>
		</g>
	</g>
	<g class="st1">
		<g>
			<path class="st2" d="M527.5,196.1c-0.4,7.4-0.7,14.8-1.1,22.3c-0.1,2.5,3.7,2.4,3.8,0c0.4-7.4,0.7-14.8,1.1-22.3
				C531.4,193.7,527.6,193.7,527.5,196.1L527.5,196.1z"/>
		</g>
	</g>
	<g class="st1">
		<g>
			<path class="st2" d="M515.7,200.4c0,8.5,0,17,0,25.4c0,2.5,3.8,2.5,3.8,0c0-8.5,0-17,0-25.4C519.5,197.9,515.7,197.9,515.7,200.4
				L515.7,200.4z"/>
		</g>
	</g>
	<g class="st1">
		<g>
			<path class="st2" d="M502.1,202.5c-0.3,8.1-0.6,16.3-0.9,24.4c-0.1,2.5,3.7,2.5,3.8,0c0.3-8.1,0.6-16.2,0.9-24.4
				C506,200,502.2,200,502.1,202.5L502.1,202.5z"/>
		</g>
	</g>
	<g class="st1">
		<g>
			<path class="st2" d="M336,79c0.7-2,2.7-2.9,4.7-2.7c2.4,0.3,2.4-3.6,0-3.8c-3.8-0.4-7.1,2-8.3,5.5C331.5,80.3,335.1,81.3,336,79
				L336,79z"/>
		</g>
	</g>
	<g class="st1">
		<g>
			<path class="st2" d="M340.6,85.7c1.1,0,2.1,0,3.2,0c2.5,0,2.5-3.8,0-3.8c-1.1,0-2.1,0-3.2,0C338.2,81.9,338.2,85.7,340.6,85.7
				L340.6,85.7z"/>
		</g>
	</g>
	<g class="st1">
		<g>
			<path class="st2" d="M252.3,198.6c0.3,1.1,0.6,2.1,0.9,3.2c0.7,2.4,4.4,1.4,3.7-1c-0.3-1.1-0.6-2.1-0.9-3.2
				C255.3,195.3,251.6,196.3,252.3,198.6L252.3,198.6z"/>
		</g>
	</g>
	<g class="st1">
		<g>
			<path class="st2" d="M264.1,204.9c0.4,0.4,0.7,0.7,1.1,1.1c1.7,1.7,4.4-1,2.7-2.7c-0.4-0.4-0.7-0.7-1.1-1.1
				C265,200.4,262.3,203.1,264.1,204.9L264.1,204.9z"/>
		</g>
	</g>
</g>
<g>
	<g class="st1">
		<g>
			<path class="st2" d="M259.9,660c4.5-2.3,8-2.9,5.8-8c-3.1-7-6.8-14.4-11.6-20.4c-10.6-13.3-28.9-14.9-42.3-4.3
				c-12.6,10-15.5,29.8-6.3,43c1.9,2.8,4.4,5,7.5,6.4c2.6,1.2,5.4,1.3,8,2.4c5.7,2.5,2.1,11.3-1.5,14.2c-3.9,3.1-9,4.2-13.5,5.9
				c-7.9,3.1-14,8.3-14.4,17.3c-0.4,7.8,2.6,16.1,6.1,23c0.3,0.5,0.8,0.6,1.4,0.6c24.8-4.5,49.6-8.9,74.4-13.4
				c0.6-0.1,0.8-0.7,0.9-1.2c0.7-6,1-13-1.2-18.7c-2.9-7.4-12.2-7.9-18.7-10.3c-3-1.1-5.3-2.1-6.2-5.4c-0.8-2.8-0.7-6.4,0-9.1
				c1.7-7.2,7.7-4.7,12.5-7.8c4.9-3.2,1.2-11.2-0.2-15.7c-0.5-1.5-2.8-0.8-2.3,0.6c0.8,2.3,1.5,4.7,2,7.2c0.7,3.2,1.5,4.7-2.2,6.4
				c-2.1,1-4.7,0.8-6.8,1.7c-5.3,2.1-6.1,8.6-5.8,13.7c0.3,5.7,2.4,8.6,7.8,10.5c7.6,2.8,16.9,2.8,18.6,12.3
				c0.7,3.5,0.6,7.1,0.5,10.7c0,0.9-0.4,2.2-0.2,3.1c0.2,1.4,0.2-0.2,0.6-0.3c-2.5,0.5-5.1,0.9-7.6,1.4c-11.4,2.1-22.8,4.1-34.2,6.2
				c-9.9,1.8-19.8,3.6-29.8,5.4c-0.8,0.1-1.7,0.5-2.5,0.5c-0.6,0,1.2,0.8,1,0.4c-0.4-0.9-0.9-1.8-1.3-2.7
				c-3.5-8.1-7.5-19.9-1.3-27.6c8.1-10.1,32.3-7.8,28.9-26.2c-0.7-3.8-3.3-4.6-6.8-5.4c-9.1-2.3-14.2-8.8-16.1-18
				c-4.3-21.4,18-44.1,39.5-33.3c6.3,3.1,10.6,8.8,14.1,14.8c2.3,3.9,6.6,9.7,7.3,14.2c0.2,1.6,0.6,1-1.6,2
				c-1.2,0.5-2.4,1.3-3.6,1.9C257.3,658.7,258.6,660.7,259.9,660z"/>
		</g>
	</g>
	<g class="st1">
		<g>
			<path class="st2" d="M220.5,656.8c-1.8-1.3-4.1-1.5-5.3,0.7c-1.3,2.4-0.3,5.7,0.9,7.9c1.2,2.3,3.4,4.4,6.2,3.7
				c1.4-0.4,3.3-1.6,3.9-3c0.6-1.4-1.5-2.6-2.1-1.2c-0.3,0.6-1,1.2-1.6,1.5c-1.6,0.9-2.9,0.2-3.9-1.3s-1.9-3.6-1.7-5.5
				c0.2-1.7,0.9-1.7,2.2-0.8C220.5,659.8,221.7,657.7,220.5,656.8L220.5,656.8z"/>
		</g>
	</g>
	<g class="st1">
		<g>
			<path class="st2" d="M242,649.9c1.4,2.3,4.1,4.4,6.9,3c2.8-1.4,2.5-4.8,1.1-7.1c-0.8-1.3-2.9-0.1-2.1,1.2
				c0.7,1.1,1.3,3.2-0.3,3.9c-1.4,0.6-2.9-1-3.6-2.1C243.3,647.3,241.2,648.5,242,649.9L242,649.9z"/>
		</g>
	</g>
	<g class="st1">
		<g>
			<path class="st2" d="M246.3,638.5c-3,0.5-5.8,2-7.8,4.2c-1,1.1,0.7,2.8,1.7,1.7c1.8-2,4.1-3.2,6.8-3.6
				C248.4,640.6,247.8,638.3,246.3,638.5L246.3,638.5z"/>
		</g>
	</g>
	<g class="st1">
		<g>
			<path class="st2" d="M196.2,709.6c8.3-6.5,15.9,20.9,17.4,26.5c0.4,1.5,2.7,0.9,2.3-0.6c-1.8-6.8-9.5-36.9-21.4-27.5
				C193.2,708.8,195,710.5,196.2,709.6L196.2,709.6z"/>
		</g>
	</g>
	<g class="st1">
		<g>
			<path class="st2" d="M282.7,622.5c-0.5-5.2-0.6-10.8,0.4-16c0.6-3.1,3-9.2,7.1-4.8c2.1,2.3,0.7,6.4-0.5,8.8
				c-0.6,1.2,0.9,2.3,1.9,1.5c1.5-1.3,3.8-3.2,5.8-3.5c3.3-0.6,3.9,3.1,2.6,5.4c-0.8,1.5-2.4,2.5-3.8,3.3c-4.3,2.5-9.7,3.6-14.6,4.2
				c-1.5,0.2-1.5,2.6,0,2.4c6.6-0.7,17.9-2.5,20.9-9.5c1.3-3.1,0.5-8-3.4-8.5c-3.3-0.4-6.9,2.4-9.2,4.4c0.6,0.5,1.3,1,1.9,1.5
				c1.5-2.9,2.8-7.1,1.2-10.2c-1.6-3.2-6.4-4.7-9.2-2.2c-5.3,4.8-4,16.8-3.4,23.2C280.5,624,282.9,624,282.7,622.5z"/>
		</g>
	</g>
	<g class="st1">
		<g>
			<path class="st2" d="M261,607c2.3,1.1,4.6,1.9,7,2.6c1.5,0.4,2.1-1.9,0.6-2.3c-2.2-0.6-4.4-1.3-6.4-2.3
				C260.8,604.2,259.6,606.3,261,607L261,607z"/>
		</g>
	</g>
	<g class="st1">
		<g>
			<path class="st2" d="M266.9,591.4c1.8,2,3.9,3.7,6.1,5.3c1.3,0.9,2.5-1.2,1.2-2.1c-2-1.4-3.9-3.1-5.6-4.9
				C267.6,588.6,265.9,590.3,266.9,591.4L266.9,591.4z"/>
		</g>
	</g>
	<g class="st1">
		<g>
			<path class="st2" d="M283.4,584.9c0-0.3,0-0.7,0-1c-0.8,0-1.6,0-2.4,0c0.1,2.2,0.2,4.4,0.4,6.6c0.1,1.5,2.5,1.5,2.4,0
				c-0.2-2.2-0.3-4.4-0.4-6.6c0-1.5-2.4-1.5-2.4,0c0,0.3,0,0.7,0,1C281,586.5,283.4,586.5,283.4,584.9L283.4,584.9z"/>
		</g>
	</g>
	<g class="st1">
		<g>
			<path class="st2" d="M297.7,586.9c-0.7,2-1.3,3.9-1.7,6c-0.3,1.5,2,2.1,2.3,0.6c0.4-2,1-4,1.7-6
				C300.5,586.1,298.2,585.5,297.7,586.9L297.7,586.9z"/>
		</g>
	</g>
	<g class="st1">
		<g>
			<path class="st2" d="M311.2,594c-1.8,1.1-3.5,2.2-5.2,3.3c-1.3,0.9-0.1,2.9,1.2,2.1c1.7-1.1,3.4-2.2,5.2-3.3
				C313.7,595.3,312.5,593.2,311.2,594L311.2,594z"/>
		</g>
	</g>
	<g class="st1">
		<g>
			<path class="st2" d="M309.9,608.6c2.3,0.1,4.6,0.4,6.9,0.7c1.5,0.2,2.2-2.1,0.6-2.3c-2.5-0.3-5-0.6-7.6-0.8
				C308.4,606.1,308.4,608.5,309.9,608.6L309.9,608.6z"/>
		</g>
	</g>
	<g class="st1">
		<g>
			<path class="st2" d="M307.3,621.8c2.2,0.7,4.3,1.5,6.4,2.6c1.4,0.7,2.6-1.4,1.2-2.1c-2.2-1.2-4.6-2.1-7-2.8
				C306.5,619.1,305.9,621.4,307.3,621.8L307.3,621.8z"/>
		</g>
	</g>
	<g class="st1">
		<g>
			<path class="st2" d="M297.2,629.7c0.2,2.2,0.8,4.2,1.9,6.1c0.8,1.3,2.9,0.1,2.1-1.2c-0.9-1.5-1.4-3.1-1.6-4.9
				C299.5,628.2,297.1,628.2,297.2,629.7L297.2,629.7z"/>
		</g>
	</g>
	<g class="st1">
		<g>
			<path class="st2" d="M275.3,773.8c2.2-8.1-6-14.3-13-9.3c0.6,0.5,1.2,0.9,1.8,1.4c2.8-11.2-6.2-19.5-17.2-17.8
				c-11.5,1.7-17.1,9.6-14.6,20.8c0.6-0.5,1.2-0.9,1.8-1.4c-6.4-4.1-14.4,0.2-17.8,6.2c-0.4,0.8,0.1,1.8,1,1.8
				c19-0.3,37.9-0.5,56.9-0.8c1.5,0,1.5-2.4,0-2.4c-19,0.3-37.9,0.5-56.9,0.8c0.3,0.6,0.7,1.2,1,1.8c2.7-4.8,9.2-8.7,14.5-5.3
				c0.9,0.6,2-0.4,1.8-1.4c-2-9.2,2-15.4,11-17.5c9.6-2.2,18.8,4,16.2,14.5c-0.2,0.9,0.9,2,1.8,1.4c2-2.1,4-1.9,6.1,0.6
				c3.7,0.6,4.8,2.6,3.4,6C272.6,774.6,274.9,775.2,275.3,773.8z"/>
		</g>
	</g>
	<g class="st1">
		<g>
			<path class="st2" d="M291.2,789.8c16.6-17.9,33.3-35.7,49.9-53.6c-0.6-0.1-1.3-0.2-1.9-0.2c2.6,5,5.3,10,7.9,15
				c0.3,0.5,1.1,0.8,1.6,0.4c18.4-13.2,36.8-26.3,55.2-39.5c-0.5-0.6-1-1.3-1.5-1.9c-19.3,22-38.7,44.1-58,66.1
				c0.6,0.1,1.3,0.2,1.9,0.2c-3.1-5.6-6.2-11.2-9.3-16.8c-0.3-0.6-1.1-0.8-1.6-0.4c-15.2,9.6-30.4,19.2-45.7,28.7
				c-1.3,0.8-0.1,2.9,1.2,2.1c15.2-9.6,30.4-19.2,45.7-28.7c-0.5-0.1-1.1-0.3-1.6-0.4c3.1,5.6,6.2,11.2,9.3,16.8
				c0.4,0.6,1.4,0.8,1.9,0.2c19.3-22,38.7-44.1,58-66.1c0.8-1-0.3-2.7-1.5-1.9c-18.4,13.2-36.8,26.3-55.2,39.5
				c0.5,0.1,1.1,0.3,1.6,0.4c-2.6-5-5.3-10-7.9-15c-0.4-0.7-1.4-0.8-1.9-0.2c-16.6,17.9-33.3,35.7-49.9,53.6
				C288.5,789.2,290.1,790.9,291.2,789.8z"/>
		</g>
	</g>
	<g class="st1">
		<g>
			<path class="st2" d="M349.5,764.3c0,0,0.3-0.9,1-2s1.7-2.5,2.9-3.8c1.2-1.3,2.5-2.4,3.6-3.1c1.1-0.8,1.9-1.1,1.9-1.1
				s-0.3,0.9-1,2s-1.7,2.5-2.9,3.8c-1.2,1.3-2.5,2.4-3.6,3.1C350.3,764,349.5,764.3,349.5,764.3z"/>
		</g>
	</g>
	<g class="st1">
		<g>
			<path class="st2" d="M361.8,751c0,0-0.2-0.4-0.2-0.7c-0.1-0.3,0-0.7,0.2-0.8c0.2-0.2,0.5-0.2,0.8-0.1c0.3,0.1,0.7,0.2,0.7,0.2
				s0.2,0.4,0.2,0.7c0.1,0.3,0,0.7-0.2,0.8c-0.2,0.2-0.5,0.2-0.8,0.1C362.1,751.2,361.8,751,361.8,751z"/>
		</g>
	</g>
	<g class="st1">
		<g>
			<path class="st2" d="M351.9,657.4c-6.7-8.2-17.8-10.6-25.5-2.3c-9.9,10.6-4.5,27.2,3.3,37.2c3.3,4.2,6.4,6.3,11.8,6
				c3.4-0.2,6.3-0.4,9.7,0.2c2.9,0.6,5.8,1.4,8.8,0.9c6.4-1.2,10.5-7.7,13.4-13c3.3-6.2,6-13.6,4.8-20.7
				c-2.3-13.6-18.3-16.7-27.9-8.3c-1.2,1,0.5,2.7,1.7,1.7c4.8-4.2,12-5.8,17.6-2.3c7.4,4.6,7.3,13.5,4.9,20.9
				c-2.3,7.1-7.7,18.6-16,19.4c-4.9,0.5-9.7-1.9-14.8-1.5c-2,0.2-4.2,0.6-6.2,0.1c-3.7-1.1-6.2-5.1-8.2-8.1
				c-3.9-6-6.5-13.3-5.7-20.5c0.9-8.2,8-17.1,17-14.7c3.7,1,7.1,3.7,9.6,6.6C351.1,660.3,352.8,658.6,351.9,657.4z"/>
		</g>
	</g>
	<g class="st1">
		<g>
			<path class="st2" d="M352,657.4c1.9-4.8,2.8-11.1,0.3-15.9c-2.6-5-8.4-8.8-13.7-10.5c-0.6-0.2-1.3,0.2-1.5,0.8
				c-2.2,7.9-1,17.4,6.5,22c1.3,0.8,2.5-1.3,1.2-2.1c-6.5-4-7.3-12.5-5.4-19.3c-0.5,0.3-1,0.6-1.5,0.8c4.8,1.5,10.4,5.1,12.4,9.8
				c1.8,4.2,0.9,9.4-0.7,13.6C349.1,658.2,351.4,658.8,352,657.4L352,657.4z"/>
		</g>
	</g>
	<g class="st1">
		<g>
			<path class="st2" d="M352.2,658.1c2.1-6.1,6.4-10.8,12.1-13.6c1.4-0.7,0.2-2.7-1.2-2.1c-6.3,3-11,8.4-13.2,15
				C349.4,658.9,351.7,659.5,352.2,658.1L352.2,658.1z"/>
		</g>
	</g>
	<g class="st1">
		<g>
			<path class="st2" d="M337.8,633.1c5.4,7.4,9.2,15.5,11.4,24.4c0.4,1.5,2.7,0.9,2.3-0.6c-2.2-9.1-6.1-17.4-11.6-25
				C339,630.7,336.9,631.9,337.8,633.1L337.8,633.1z"/>
		</g>
	</g>
	<g class="st1">
		<g>
			<path class="st2" d="M335.2,659.8c0,0-0.2,0.1-0.5,0.3s-0.7,0.4-1,0.8c-0.4,0.4-0.7,0.8-1,1.3c-0.2,0.3-0.3,0.5-0.4,0.8
				s-0.2,0.6-0.3,0.9c-0.1,0.4-0.2,0.6-0.2,1c-0.1,0.3-0.1,0.7-0.2,1c-0.1,0.7-0.2,1.3-0.2,1.9c-0.1,1.2-0.4,2-0.4,2
				s-0.5-0.7-0.9-1.8c-0.2-0.6-0.4-1.3-0.5-2.1c0-0.4,0-0.8,0-1.2s0.1-0.9,0.2-1.3c0.2-0.5,0.3-0.9,0.5-1.3c0.2-0.4,0.5-0.8,0.8-1.1
				c0.6-0.6,1.3-1,2-1.2s1.2-0.2,1.6-0.1c0.2,0,0.3,0.1,0.4,0.1C335.1,659.8,335.2,659.8,335.2,659.8z"/>
		</g>
	</g>
	<g class="st1">
		<g>
			<path class="st2" d="M331.8,673.8c0,0,0.4,0,0.7,0.2c0.3,0.1,0.6,0.4,0.7,0.6c0.1,0.3,0,0.6-0.2,0.9c-0.2,0.3-0.5,0.6-0.5,0.6
				s-0.4,0-0.7-0.2c-0.3-0.1-0.6-0.4-0.7-0.6c-0.1-0.3,0-0.6,0.2-0.9C331.5,674.1,331.8,673.8,331.8,673.8z"/>
		</g>
	</g>
	<g class="st1">
		<g>
			<path class="st2" d="M211.6,730.6c-0.9,1.4-1.9,2.8-2.8,4.2c-0.6,0.9,0.9,1.8,1.5,0.9c0.9-1.4,1.9-2.8,2.8-4.2
				C213.6,730.5,212.2,729.7,211.6,730.6L211.6,730.6z"/>
		</g>
	</g>
	<g class="st1">
		<g>
			<path class="st2" d="M210.4,725.3c-2.1,4-4.3,7.9-6.4,11.9c-0.5,1,0.9,1.8,1.5,0.9c2.1-4,4.3-7.9,6.4-11.9
				C212.4,725.2,210.9,724.3,210.4,725.3L210.4,725.3z"/>
		</g>
	</g>
	<g class="st1">
		<g>
			<path class="st2" d="M208.6,721.1c-2.7,5-5.3,10-8,15c-0.5,1,0.9,1.8,1.5,0.9c2.7-5,5.3-10,8-15
				C210.6,721,209.1,720.1,208.6,721.1L208.6,721.1z"/>
		</g>
	</g>
	<g class="st1">
		<g>
			<path class="st2" d="M263.8,711.5c0.9,0.1,1.9,0.3,2.8,0.4c1.1,0.2,1.5-1.5,0.4-1.6c-0.9-0.1-1.9-0.3-2.8-0.4
				C263.2,709.7,262.7,711.3,263.8,711.5L263.8,711.5z"/>
		</g>
	</g>
	<g class="st1">
		<g>
			<path class="st2" d="M264.5,716.8c0.2,0,0.3,0,0.5,0c1.1,0,1.1-1.7,0-1.7c-0.2,0-0.3,0-0.5,0
				C263.4,715.1,263.4,716.8,264.5,716.8L264.5,716.8z"/>
		</g>
	</g>
	<g class="st1">
		<g>
			<path class="st2" d="M366.3,664.5c1.1-0.2,2.2-0.3,3.3-0.5c1.1-0.2,0.6-1.8-0.5-1.6s-2.2,0.3-3.3,0.5
				C364.8,663,365.2,664.7,366.3,664.5L366.3,664.5z"/>
		</g>
	</g>
	<g class="st1">
		<g>
			<path class="st2" d="M366.1,668.4c0.8,0,1.6,0,2.4,0c1.1,0,1.1-1.7,0-1.7c-0.8,0-1.6,0-2.4,0C365,666.7,365,668.4,366.1,668.4
				L366.1,668.4z"/>
		</g>
	</g>
	<g class="st1">
		<g>
			<path class="st2" d="M366.1,674c0.2,0,0.3,0,0.5,0c1.1,0,1.1-1.7,0-1.7c-0.2,0-0.3,0-0.5,0C365,672.3,365,674,366.1,674
				L366.1,674z"/>
		</g>
	</g>
	<g class="st1">
		<g>
			<path class="st2" d="M300,777.3c0.3,1.3,0.6,2.5,1,3.8c0.3,1.1,1.9,0.6,1.6-0.5c-0.3-1.3-0.6-2.5-1-3.8
				C301.4,775.8,299.8,776.2,300,777.3L300,777.3z"/>
		</g>
	</g>
	<g class="st1">
		<g>
			<path class="st2" d="M303.6,773.8c0,1.9,0,3.8,0,5.6c0,1.1,1.7,1.1,1.7,0c0-1.9,0-3.8,0-5.6C305.3,772.7,303.6,772.7,303.6,773.8
				L303.6,773.8z"/>
		</g>
	</g>
	<g class="st1">
		<g>
			<path class="st2" d="M307.8,770.5c0,1.9,0,3.8,0,5.6c0,1.1,1.7,1.1,1.7,0c0-1.9,0-3.8,0-5.6C309.5,769.4,307.8,769.4,307.8,770.5
				L307.8,770.5z"/>
		</g>
	</g>
	<g class="st1">
		<g>
			<path class="st2" d="M312.2,766.3c0.1,2.2,0.3,4.4,0.4,6.6c0.1,1.1,1.8,1.1,1.7,0c-0.1-2.2-0.3-4.4-0.4-6.6
				C313.8,765.2,312.1,765.2,312.2,766.3L312.2,766.3z"/>
		</g>
	</g>
</g>
<g>
	<g class="st1">
		<g>
			<path class="st2" d="M155.5,456.9c-3.2,1-18.4,5.8-13.8,11.8c1.2,1.6,7.1,2,7.5,3.3c0.4,1.5-9.4,5.7-10.7,6.6
				c-4.3,3.3-3.9,8.1,1.6,9.9c7,2.3,15.3-1.5,22.1-3c2.3-0.5,2.3-1.1,1.7,1.2c-0.4,1.2-1.3,2.3-1.7,3.6c-0.7,2-1,3.9,1.1,5
				c4.5,2.4,14.2-3.1,17.6-5.7c2.6-2,3.5-3.7,3.4-7c0-2.1-0.7-1.6,0.5-3c1.1-1.2,3.6-1.6,4.9-2.8c5.3-4.9-1-9.1-6-10
				c-2.6-0.4-5.4-0.4-8.1-0.2c-0.9,0.1-1.7,0.2-2.6,0.3c-0.7,0.1-1.4,0.2-2.1,0.3c-1.3-0.2-1.6,0.3-1.1,1.4c1.7-0.3,5.5-4.7,5.8-6.6
				C176.7,453.5,159.6,455.9,155.5,456.9c-1.5,0.4-0.9,2.7,0.6,2.3c3.8-1,21.1-2.7,14.9,5.4c-1.1,1.5-3.7,2.2-3.9,4.3
				c0,0.4,0.3,0.9,0.6,1c1.6,0.7,3.6-0.2,5.3-0.5c3.5-0.5,13.1-1.8,15.4,1.9c3.1,4.8-4.8,5.3-6.4,7.1c-1,1.1-0.6,1.4-0.6,2.8
				c-0.1,2.8,0.9,4.1-1.4,6.2c-1.4,1.3-3.3,2.2-5,3c-1.8,0.9-10.4,5.2-10.8,1.2c-0.2-2.3,5.3-6.7,1.4-8.6c-3.1-1.5-10.3,2-13.4,2.7
				c-3.2,0.7-8.4,2.1-11.5,0.6c-6.7-3.1,1.5-7.2,4.3-8.6c2.1-1.1,8.4-3.3,6.5-6.7c-1-1.8-3.7-1.5-5.2-2.5c-6.5-4.4,6.5-8.2,9.8-9.3
				C157.6,458.8,157,456.5,155.5,456.9z"/>
		</g>
	</g>
	<g class="st1">
		<g>
			<path class="st2" d="M172.4,473.3c0,0,0.5-0.5,1.4-0.8c0.5-0.1,1-0.2,1.7-0.1c0.1,0,0.1,0,0.3,0.1c0.1,0,0.1,0,0.2,0.1
				c0.2,0.1,0.4,0.1,0.5,0.2c0.3,0.2,0.6,0.4,0.9,0.6c0.6,0.5,1,1.3,1.1,2.1c0.1,0.9-0.3,1.5-0.7,2c-0.4,0.4-0.9,0.6-1.2,0.6
				s-0.5-0.1-0.5-0.1s0.1-0.1,0.2-0.4c0.1-0.2,0.2-0.5,0.1-0.8c0-0.3-0.1-0.7-0.3-0.8c-0.1-0.3-0.3-0.4-0.6-0.7
				c-0.5-0.5-1.2-0.9-2-1.2c-0.4-0.2-0.7-0.3-1-0.5C172.6,473.4,172.4,473.3,172.4,473.3z"/>
		</g>
	</g>
	<g class="st1">
		<g>
			<path class="st2" d="M135.4,419.9c1.9-3.7,5.3-5.8,9.4-4.2c0.6,0.2,1.3-0.3,1.5-0.8c1.3-4.7,6.2-5.3,10.1-3.2
				c0.7,0.4,1.5,0,1.8-0.7c1.6-4,6.9-3.6,9.5-1.4c1.2,1,2.9-0.7,1.7-1.7c-4.3-3.7-11.3-3-13.5,2.5c0.6-0.2,1.2-0.5,1.8-0.7
				c-5.6-3.1-11.7-2.1-13.6,4.6c0.5-0.3,1-0.6,1.5-0.8c-5.1-2-9.7,0.6-12.1,5.3C132.6,420.1,134.7,421.3,135.4,419.9L135.4,419.9z"
				/>
		</g>
	</g>
	<g class="st1">
		<path class="st2" d="M154.8,438.3c0,0,4.5-3.1,9.4-2.8c-0.2,2.6-2,11.2-2,11.2L154.8,438.3z"/>
	</g>
	<g class="st1">
		<g>
			<path class="st2" d="M77.1,420.8c0.6,0.9,0.9,1.9,1.1,3c0.1,0.6,0.9,1,1.5,0.8c0.7-0.2,0.9-0.8,0.8-1.5c-0.2-1.3-0.6-2.5-1.3-3.6
				C78.4,418.3,76.3,419.5,77.1,420.8L77.1,420.8z"/>
		</g>
	</g>
	<g class="st1">
		<g>
			<path class="st2" d="M36,535.5c-1.2-1,1.7-12.7,2.1-14.9c1.7-9.4,3.7-18.7,5.7-28c3.1-14.2,5.7-28.6,9.6-42.6
				c-0.1,0.4-1.4-0.1,0.2,0.7c1.6,0.8,4.8,0.4,6.5,0.6c4.1,0.4,8.3,0.8,12.4,1.2c-0.4-0.5-0.8-1-1.2-1.5
				c-2.6,12.6-5.2,25.3-7.8,37.9c-2,9.6-4,19.2-6,28.8c-1.3,6.2-3.3,12.6-3.9,18.8c-0.1,0.6-0.2,1.2-0.4,1.8
				c-0.2,0.5,1.3-0.7,0.9-0.7c-0.7,0-1.4,0-2.1-0.1c-5.4-0.8-11.4-0.1-16.6-2.2c-1.4-0.6-2.1,1.7-0.6,2.3c5.8,2.3,13.4,2,19.6,2.4
				c0.5,0,1.1-0.4,1.2-0.9c6-29.2,12.1-58.3,18.1-87.5c0.2-0.8-0.4-1.4-1.2-1.5c-6.7-0.6-13.5-1.3-20.2-1.9c-0.5,0-1,0.4-1.2,0.9
				c-3.5,15.1-6.9,30.2-10.1,45.3c-2.1,9.9-4.2,19.7-5.9,29.7c-0.4,2.3-3.1,11.2-0.8,13.2C35.5,538.2,37.2,536.5,36,535.5z"/>
		</g>
	</g>
	<g class="st1">
		<g>
			<path class="st2" d="M44.9,524.1c-2.1,0.9-3.5,2.9-3,5.2s2.9,3.2,5,2.4s3-2.9,2.4-5C48.8,524.7,46.9,523.4,44.9,524.1
				c-1.5,0.5-0.8,2.8,0.6,2.3c1.7-0.6,2.1,2.3,0.7,3c-2.4,1-2.5-2.2-0.7-3C47,525.8,46.3,523.5,44.9,524.1z"/>
		</g>
	</g>
	<g class="st1">
		<g>
			<path class="st2" d="M38.2,514.7c6.8,0.9,13.6,1.7,20.5,2.6c1.5,0.2,1.5-2.2,0-2.4c-6.8-0.9-13.6-1.7-20.5-2.6
				C36.7,512.1,36.7,514.5,38.2,514.7L38.2,514.7z"/>
		</g>
	</g>
	<g class="st1">
		<g>
			<path class="st2" d="M41.7,498c6.7,0.9,13.5,1.7,20.2,2.6c1.5,0.2,1.5-2.2,0-2.4c-6.7-0.9-13.5-1.7-20.2-2.6
				C40.2,495.4,40.2,497.8,41.7,498L41.7,498z"/>
		</g>
	</g>
	<g class="st1">
		<g>
			<path class="st2" d="M45.9,481.8c6.4,0.8,12.9,1.6,19.3,2.4c1.5,0.2,1.5-2.2,0-2.4c-6.4-0.8-12.9-1.6-19.3-2.4
				C44.4,479.2,44.4,481.6,45.9,481.8L45.9,481.8z"/>
		</g>
	</g>
	<g class="st1">
		<g>
			<path class="st2" d="M49,467c6.5,0.6,13,1.3,19.5,1.9c1.5,0.1,1.5-2.3,0-2.4c-6.5-0.6-13-1.3-19.5-1.9
				C47.5,464.4,47.5,466.8,49,467L49,467z"/>
		</g>
	</g>
	<g class="st1">
		<g>
			<path class="st2" d="M68.1,478.4c4.3-7,8.6-14,12.9-20.9c-0.5,0.1-1.1,0.3-1.6,0.4c6.1,3.1,12.2,6.1,18.3,9.2
				c-0.1-0.5-0.3-1.1-0.4-1.6c-14.5,23-29,46.1-43.5,69.1c-0.8,1.3,1.2,2.5,2.1,1.2c14.5-23,29-46.1,43.5-69.1
				c0.3-0.5,0.1-1.4-0.4-1.6c-6.1-3.1-12.2-6.1-18.3-9.2c-0.6-0.3-1.3-0.2-1.6,0.4c-4.3,7-8.6,14-12.9,20.9
				C65.3,478.5,67.3,479.7,68.1,478.4L68.1,478.4z"/>
		</g>
	</g>
	<g class="st1">
		<g>
			<path class="st2" d="M72.4,470.8c5.5,3.1,11,6.1,16.5,9.2c1.3,0.8,2.6-1.3,1.2-2.1c-5.5-3.1-11-6.1-16.5-9.2
				C72.2,468,71,470.1,72.4,470.8L72.4,470.8z"/>
		</g>
	</g>
	<g class="st1">
		<g>
			<path class="st2" d="M65.8,482.6c5.1,3,10.2,6,15.3,8.9c1.3,0.8,2.5-1.3,1.2-2.1c-5.1-3-10.2-6-15.3-8.9
				C65.7,479.7,64.5,481.8,65.8,482.6L65.8,482.6z"/>
		</g>
	</g>
	<g class="st1">
		<g>
			<path class="st2" d="M62.3,498.8c3.8,2,7.7,4.1,11.5,6.1c1.4,0.7,2.6-1.3,1.2-2.1c-3.8-2-7.7-4.1-11.5-6.1
				C62.1,496,60.9,498.1,62.3,498.8L62.3,498.8z"/>
		</g>
	</g>
	<g class="st1">
		<g>
			<path class="st2" d="M60.8,513.1c-0.7,0-0.6-0.2-0.2,0.1c0.2,0.2,0.5,0.3,0.7,0.4c0.7,0.4,1.4,0.8,2,1.2s1.3,0.8,1.9,1.2
				c0.2,0.2,0.5,0.3,0.7,0.5c0.4,0.2,0.4,0.5,0-0.1c0.7,1.4,2.8,0.1,2.1-1.2c-0.2-0.4-0.8-0.7-1.2-1c-0.8-0.5-1.5-0.9-2.3-1.4
				c-0.8-0.5-1.6-0.9-2.4-1.4c-0.4-0.2-1-0.6-1.5-0.6C59.2,510.7,59.2,513.1,60.8,513.1L60.8,513.1z"/>
		</g>
	</g>
	<g class="st1">
		<g>
			<path class="st2" d="M75,504.9c12-8,24-16,36-24c-0.5-0.1-1.1-0.3-1.6-0.4c3.6,5.9,7.2,11.8,10.8,17.6c0.1-0.5,0.3-1.1,0.4-1.6
				c-22,13-44,26-66.1,39c-1.3,0.8-0.1,2.9,1.2,2.1c22-13,44-26,66.1-39c0.5-0.3,0.8-1.1,0.4-1.6c-3.6-5.9-7.2-11.8-10.8-17.6
				c-0.3-0.5-1.1-0.8-1.6-0.4c-12,8-24,16-36,24C72.5,503.7,73.7,505.8,75,504.9L75,504.9z"/>
		</g>
	</g>
	<g class="st1">
		<g>
			<path class="st2" d="M97.3,489.7c3.2,5,6.4,10,9.6,15c0.8,1.3,2.9,0.1,2.1-1.2c-3.2-5-6.4-10-9.6-15
				C98.6,487.2,96.5,488.4,97.3,489.7L97.3,489.7z"/>
		</g>
	</g>
	<g class="st1">
		<g>
			<path class="st2" d="M84.2,497.9c3.1,5.2,6.3,10.3,9.4,15.5c0.8,1.3,2.9,0.1,2.1-1.2c-3.1-5.2-6.3-10.3-9.4-15.5
				C85.4,495.4,83.4,496.6,84.2,497.9L84.2,497.9z"/>
		</g>
	</g>
	<g class="st1">
		<g>
			<path class="st2" d="M73.1,506.6c2.6,4.7,5.2,9.4,7.8,14.1c0.7,1.4,2.8,0.1,2.1-1.2c-2.6-4.7-5.2-9.4-7.8-14.1
				C74.4,504,72.4,505.3,73.1,506.6L73.1,506.6z"/>
		</g>
	</g>
	<g class="st1">
		<g>
			<path class="st2" d="M64.4,519.5c1.5,2.8,3,5.6,4.5,8.5c0.7,1.4,2.8,0.2,2.1-1.2c-1.5-2.8-3-5.6-4.5-8.5
				C65.8,517,63.7,518.2,64.4,519.5L64.4,519.5z"/>
		</g>
	</g>
	<g class="st1">
		<g>
			<path class="st2" d="M79.3,524.1c9.1,0.4,18.3,0.8,27.4,1.2c5.2,0.2,10.4,0.5,15.6,0.7c1,0,2.4,0.3,3.4,0.2
				c-1.2,0.2-0.2-1.5-1.1-0.3c-0.4,0.5-0.2,3-0.3,3.7c-0.2,3-0.5,6-0.7,9c-0.1,0.9-0.4,2.2-0.2,3.1c0.5,2.4-0.4-0.3,1,0.2
				c-2-0.8-5.3-0.3-7.5-0.5c-11.9-0.8-23.8-1.5-35.7-2.3c-8.9-0.6-17.8-1.1-26.7-1.7c-1.5-0.1-1.5,2.3,0,2.4
				c23.4,1.5,46.7,3,70.1,4.5c0.7,0,1.2-0.6,1.2-1.2c0.5-6,0.9-12.1,1.4-18.1c0.1-0.7-0.6-1.2-1.2-1.2c-15.5-0.7-31-1.4-46.6-2.1
				C77.8,521.7,77.8,524.1,79.3,524.1L79.3,524.1z"/>
		</g>
	</g>
	<g class="st1">
		<g>
			<path class="st2" d="M108.7,524.8c-0.3,5.4-0.6,10.8-0.9,16.2c-0.1,1.5,2.3,1.5,2.4,0c0.3-5.4,0.6-10.8,0.9-16.2
				C111.2,523.3,108.8,523.3,108.7,524.8L108.7,524.8z"/>
		</g>
	</g>
	<g class="st1">
		<g>
			<path class="st2" d="M94.1,524.3c-0.5,5.3-0.9,10.7-1.4,16c-0.1,1.5,2.3,1.5,2.4,0c0.5-5.3,0.9-10.7,1.4-16
				C96.7,522.8,94.3,522.8,94.1,524.3L94.1,524.3z"/>
		</g>
	</g>
	<g class="st1">
		<g>
			<path class="st2" d="M79.5,524.1c-0.5,5.1-1.1,10.2-1.6,15.3c-0.2,1.5,2.2,1.5,2.4,0c0.5-5.1,1.1-10.2,1.6-15.3
				C82.1,522.6,79.7,522.6,79.5,524.1L79.5,524.1z"/>
		</g>
	</g>
	<g class="st1">
		<g>
			<path class="st2" d="M65,530c-0.2,2.9-0.3,5.8-0.5,8.7c-0.1,1.5,2.3,1.5,2.4,0c0.2-2.9,0.3-5.8,0.5-8.7
				C67.4,528.4,65,528.4,65,530L65,530z"/>
		</g>
	</g>
	<g class="st1">
		<g>
			<path class="st2" d="M39.2,507.7c1.2,2.4,2.4,4.8,3.6,7.1c0.5,1,2,0.1,1.5-0.9c-1.2-2.4-2.4-4.8-3.6-7.1
				C40.1,505.9,38.7,506.7,39.2,507.7L39.2,507.7z"/>
		</g>
	</g>
	<g class="st1">
		<g>
			<path class="st2" d="M41,501.6c2.4,4.4,4.7,8.8,7.1,13.3c0.5,1,2,0.1,1.5-0.9c-2.4-4.4-4.7-8.8-7.1-13.3
				C41.9,499.8,40.4,500.7,41,501.6L41,501.6z"/>
		</g>
	</g>
	<g class="st1">
		<g>
			<path class="st2" d="M44.2,498.8c3.2,5.4,6.5,10.9,9.7,16.3c0.6,0.9,2,0.1,1.5-0.9c-3.2-5.4-6.5-10.9-9.7-16.3
				C45.1,497,43.6,497.9,44.2,498.8L44.2,498.8z"/>
		</g>
	</g>
	<g class="st1">
		<g>
			<path class="st2" d="M50.8,499.4c2.6,4.2,5.1,8.4,7.7,12.6c0.6,0.9,2,0.1,1.5-0.9c-2.6-4.2-5.1-8.4-7.7-12.6
				C51.7,497.6,50.2,498.5,50.8,499.4L50.8,499.4z"/>
		</g>
	</g>
	<g class="st1">
		<g>
			<path class="st2" d="M55.8,500c1.2,1.7,2.5,3.5,3.7,5.2c0.6,0.9,2.1,0,1.5-0.9c-1.2-1.7-2.5-3.5-3.7-5.2
				C56.7,498.3,55.2,499.2,55.8,500L55.8,500z"/>
		</g>
	</g>
	<g class="st1">
		<g>
			<path class="st2" d="M68.6,475.9c0,3.3,0.7,6.4,2.2,9.4c0.5,1,1.9,0.1,1.5-0.9c-1.3-2.7-2-5.5-2-8.5
				C70.3,474.8,68.6,474.8,68.6,475.9L68.6,475.9z"/>
		</g>
	</g>
	<g class="st1">
		<g>
			<path class="st2" d="M70.7,473.1c0.9,4.2,1.7,8.3,2.6,12.5c0.2,1.1,1.9,0.6,1.6-0.5c-0.9-4.2-1.7-8.3-2.6-12.5
				C72.1,471.6,70.5,472,70.7,473.1L70.7,473.1z"/>
		</g>
	</g>
	<g class="st1">
		<g>
			<path class="st2" d="M74.3,472.6c1.2,5.2,2.3,10.5,3.5,15.7c0.2,1.1,1.9,0.6,1.6-0.5c-1.2-5.2-2.3-10.5-3.5-15.7
				C75.7,471.1,74.1,471.6,74.3,472.6L74.3,472.6z"/>
		</g>
	</g>
	<g class="st1">
		<g>
			<path class="st2" d="M80.3,475.7c0.6,4.1,1.2,8.3,1.7,12.4c0.1,1.1,1.8,0.6,1.6-0.5c-0.6-4.2-1.2-8.3-1.7-12.4
				C81.8,474.1,80.2,474.6,80.3,475.7L80.3,475.7z"/>
		</g>
	</g>
	<g class="st1">
		<g>
			<path class="st2" d="M84.5,477.1c0.4,2,0.8,4.1,1.2,6.1c0.2,1.1,1.8,0.6,1.6-0.5c-0.4-2-0.8-4.1-1.2-6.1
				C85.9,475.6,84.3,476,84.5,477.1L84.5,477.1z"/>
		</g>
	</g>
	<g class="st1">
		<g>
			<path class="st2" d="M79.4,535.8c1.5,1.4,3.1,2.7,4.6,4.1c0.8,0.7,2-0.5,1.2-1.2c-1.5-1.4-3.1-2.7-4.6-4.1
				C79.8,533.9,78.6,535.1,79.4,535.8L79.4,535.8z"/>
		</g>
	</g>
	<g class="st1">
		<g>
			<path class="st2" d="M79.1,531.9c3.9,2.9,7.8,5.8,11.7,8.7c0.9,0.7,1.7-0.8,0.9-1.5c-3.9-2.9-7.8-5.8-11.7-8.7
				C79.1,529.8,78.2,531.3,79.1,531.9L79.1,531.9z"/>
		</g>
	</g>
	<g class="st1">
		<g>
			<path class="st2" d="M80.2,528.7c3.9,3.5,8.1,6.5,12.6,9c1,0.5,1.8-0.9,0.9-1.5c-4.4-2.5-8.5-5.4-12.3-8.8
				C80.6,526.7,79.4,527.9,80.2,528.7L80.2,528.7z"/>
		</g>
	</g>
	<g class="st1">
		<g>
			<path class="st2" d="M82.1,525.3c3.5,2.9,7,5.8,10.5,8.7c0.8,0.7,2-0.5,1.2-1.2c-3.5-2.9-7-5.8-10.5-8.7
				C82.5,523.4,81.3,524.6,82.1,525.3L82.1,525.3z"/>
		</g>
	</g>
	<g class="st1">
		<g>
			<path class="st2" d="M88.3,524.5c2,1.7,4.1,3.5,6.1,5.2c0.8,0.7,2-0.5,1.2-1.2c-2-1.7-4.1-3.5-6.1-5.2
				C88.7,522.6,87.5,523.8,88.3,524.5L88.3,524.5z"/>
		</g>
	</g>
	<g class="st1">
		<g>
			<path class="st2" d="M100.6,486c0.1,2.6,0.3,5.2,0.4,7.8c0.1,1.1,1.8,1.1,1.7,0c-0.1-2.6-0.3-5.2-0.4-7.8
				C102.2,484.9,100.5,484.9,100.6,486L100.6,486z"/>
		</g>
	</g>
	<g class="st1">
		<g>
			<path class="st2" d="M103.6,483.9c-0.1,4.5-0.1,8.9-0.2,13.4c0,1.1,1.7,1.1,1.7,0c0.1-4.5,0.1-8.9,0.2-13.4
				C105.3,482.8,103.6,482.8,103.6,483.9L103.6,483.9z"/>
		</g>
	</g>
	<g class="st1">
		<g>
			<path class="st2" d="M107.1,482.5c-0.2,6.6-0.3,13.2-0.5,19.7c0,1.1,1.7,1.1,1.7,0c0.2-6.6,0.3-13.2,0.5-19.7
				C108.8,481.4,107.1,481.4,107.1,482.5L107.1,482.5z"/>
		</g>
	</g>
	<g class="st1">
		<g>
			<path class="st2" d="M110.6,483.2c-0.1,6.5-0.2,13-0.3,19.5c0,1.1,1.7,1.1,1.7,0c0.1-6.5,0.2-13,0.3-19.5
				C112.3,482.1,110.6,482.1,110.6,483.2L110.6,483.2z"/>
		</g>
	</g>
	<g class="st1">
		<g>
			<path class="st2" d="M114.6,489.3c-0.1,3.6-0.1,7.2-0.2,10.8c0,1.1,1.7,1.1,1.7,0c0.1-3.6,0.1-7.2,0.2-10.8
				C116.3,488.2,114.6,488.2,114.6,489.3L114.6,489.3z"/>
		</g>
	</g>
	<g class="st1">
		<g>
			<path class="st2" d="M163.9,400.7c-1.2,1.9-1.8,4.1-1.8,6.4c0,1.1,1.7,1.1,1.7,0c0-2,0.5-3.9,1.6-5.6
				C166,400.6,164.5,399.8,163.9,400.7L163.9,400.7z"/>
		</g>
	</g>
	<g class="st1">
		<g>
			<path class="st2" d="M161.3,396.4c-1.8,3.4-3.1,7.1-3.8,10.9c-0.2,1.1,1.4,1.5,1.6,0.5c0.7-3.7,1.9-7.1,3.7-10.5
				C163.3,396.3,161.8,395.4,161.3,396.4L161.3,396.4z"/>
		</g>
	</g>
	<g class="st1">
		<g>
			<path class="st2" d="M157.4,390.5c-0.6,4.6-1.7,9.2-3.4,13.6c-0.4,1,1.3,1.5,1.6,0.5c1.7-4.6,2.8-9.2,3.4-14
				C159.2,389.5,157.6,389.5,157.4,390.5L157.4,390.5z"/>
		</g>
	</g>
	<g class="st1">
		<g>
			<path class="st2" d="M154.1,386c-1.1,4.8-2.2,9.7-3.3,14.5c-0.2,1.1,1.4,1.5,1.6,0.5c1.1-4.8,2.2-9.7,3.3-14.5
				C156,385.4,154.3,385,154.1,386L154.1,386z"/>
		</g>
	</g>
</g>
<g class="st1">
	<g>
		<path class="st2" d="M1287.8,180.3c0.9-0.1,1.8-0.2,2.7-0.3c1.1-0.1,1.1-1.8,0-1.7c-0.9,0.1-1.8,0.2-2.7,0.3
			C1286.7,178.7,1286.7,180.4,1287.8,180.3L1287.8,180.3z"/>
	</g>
</g>
<g class="st1">
	<g>
		<path class="st2" d="M1286.7,177.4c0.5-0.2,1-0.3,1.5-0.5c1-0.3,0.6-2-0.4-1.6c-0.5,0.2-1,0.3-1.5,0.5
			C1285.3,176.1,1285.7,177.8,1286.7,177.4L1286.7,177.4z"/>
	</g>
</g>
<g class="st1">
	<g>
		<path class="st2" d="M1283.6,172.2c0.1-0.1,0.2-0.2,0.2-0.2c0.8-0.8-0.4-2-1.2-1.2c-0.1,0.1-0.2,0.2-0.2,0.2
			C1281.7,171.8,1282.9,173,1283.6,172.2L1283.6,172.2z"/>
	</g>
</g>
<g class="st1">
	<g>
		<path class="st2" d="M1390,155.1c2.2-3.5,3.7-7.2,4.6-11.2c0.2-1.1-1.4-1.5-1.6-0.4c-0.9,3.8-2.4,7.4-4.5,10.8
			C1387.9,155.2,1389.4,156,1390,155.1L1390,155.1z"/>
	</g>
</g>
<g class="st1">
	<g>
		<path class="st2" d="M1385.8,155.6c1.9-4.8,3.8-9.6,5.6-14.4c0.4-1-1.2-1.4-1.6-0.4c-1.9,4.8-3.8,9.6-5.6,14.4
			C1383.8,156.2,1385.4,156.6,1385.8,155.6L1385.8,155.6z"/>
	</g>
</g>
<g class="st1">
	<g>
		<path class="st2" d="M1381.1,154.6c1.9-4.2,3.9-8.5,5.8-12.7c0.5-1-1-1.8-1.5-0.8c-1.9,4.2-3.9,8.5-5.8,12.7
			C1379.1,154.8,1380.6,155.6,1381.1,154.6L1381.1,154.6z"/>
	</g>
</g>
<g>
	<g class="st1">
		<g>
			<path class="st2" d="M830,259.6c-7.5,4.1-14.6,13.2-17.3,21.3c-2,6.3,3.8,4.8,7.3,1.9c-0.6-0.5-1.2-1-1.8-1.5
				c-2,4.2-3.4,8.7-4.5,13.2c-1.1,4.8-2.9,12.3-0.8,17.1c3,6.6,6.7-3.5,7.5-6.2c-0.8-0.1-1.6-0.3-2.3-0.4
				c-0.4,3.8-3.6,23.6,2.4,24.1c3.5,0.3,5.8-7,6.8-9.3c2.5-6.2,5-13.3,5.3-20c-0.8,0-1.6-0.1-2.4-0.1c0,1.9,0.3,7.9,3.6,6.1
				c2.7-1.5,3.5-8.8,4.2-11.5c-0.8-0.1-1.6-0.3-2.3-0.4c-0.3,3.5,1.2,8.9,5,5c5.4-5.5,8.3-16.5,8.3-23.9c0-1.5-2.4-1.7-2.4-0.1
				c0,5.5-1.6,10.8-3.9,15.8c-0.8,1.7-1.7,4.4-3.2,5.8s-1,1.4-1.6-0.6c-0.1-0.5,0-1.3,0.1-1.8c0.1-1.3-2-1.7-2.3-0.4
				c-0.5,2-1,4-1.6,6c-0.1,0.3-1.4,4.3-1.6,4.2c0.5,0.2,0.2-3.4,0.2-4c0-1.5-2.3-1.7-2.4-0.1c-0.1,3.5-5.8,27.7-9.5,26.5
				c-2.9-1-0.5-18.1-0.2-21c0.1-1.4-1.9-1.7-2.3-0.4c-0.4,1.4-1,4.7-2.2,5.5c-1.4,1-0.6,0.3-1.1-1.1c-0.7-1.8-0.1-5,0.1-6.9
				c0.6-6.7,2.4-13.6,5.3-19.7c0.6-1.2-0.7-2.4-1.8-1.5c-0.6,0.5-1.5,1.3-2.2,1.6c-2.7,1-1.4,0.6-1.2-1c0.3-2.1,2.3-4.8,3.4-6.5
				c3.2-5.2,7.2-10.5,12.7-13.4C832.5,261,831.4,258.9,830,259.6L830,259.6z"/>
		</g>
	</g>
	<g class="st1">
		<path class="st2" d="M836,264.6c-7,3-13.4,17.3-12.8,19.9c0.6,2.6,5.1-2.8,5.1-2.8s-3.9,10.8-2.1,11.5
			c1.8,0.7,16.5-14.7,17.6-21.8L836,264.6z"/>
	</g>
	<g class="st1">
		<g>
			<path class="st2" d="M836.9,247.8c-2.1,2-7.8,6.4-7.8,9.7c0.1,3.3,5.7,7.4,7.8,9.3c3.2,3,7.6,8.3,11.9,9.6c4,1.2,7.5-3.6,9.5-6.5
				c0.9-1.3-1.1-2.5-2-1.3c-2.6,3.7-5.3,6.7-9.4,3.7c-3.4-2.5-6.5-5.5-9.6-8.4c-1.5-1.5-5.8-4.8-5.6-6.9c0.2-2.3,5.1-5.9,6.8-7.6
				C839.7,248.5,838.1,246.8,836.9,247.8L836.9,247.8z"/>
		</g>
	</g>
	<g class="st1">
		<g>
			<path class="st2" d="M859.2,215.1c-8,8.2-19.1,18.5-22.5,29.9c-2,6.6,5.8,11.9,10,15.9c3,2.9,6.6,7,10.6,8.6
				c2.4,1,4.8,0.3,7.2-0.4c12.1-3.4,23.8-9.5,34.4-16.1c10.9-6.7,20.2-15.2,29.1-24.5c8.5-8.9,17.2-18.6,23-29.6
				c2.8-5.3,6.5-13.9,0.8-18.6c-6-4.9-16.2-3.2-23.1-1.8c-13.6,2.9-26.6,8.8-38.8,15.3C879,199.8,868,206.4,859.2,215.1
				c-1.1,1.1,0.5,2.8,1.6,1.8c14-13.9,33.4-23.7,51.7-30.7c9.2-3.5,46.8-15.1,38.4,7.2c-3.7,9.8-11.1,18.5-17.9,26.2
				c-6.8,7.8-14.1,15.3-22,22c-9.6,8.1-21,14.4-32.5,19.6c-5.8,2.6-16.2,9.1-22.2,5c-4.3-2.9-8-6.9-11.6-10.6
				c-2-2.1-5.9-5.1-6.1-8.1c-0.2-3.6,3.5-8.2,5.4-11c4.9-7.1,10.8-13.5,16.8-19.7C861.9,215.8,860.3,214,859.2,215.1z"/>
		</g>
	</g>
	<g class="st1">
		<g>
			<path class="st2" d="M925.4,182c8.5,3.1,17.1,13.9,19.1,22.7c0.4,1.5,2.7,1,2.3-0.5c-2.2-9.6-11.4-21-20.7-24.4
				C924.6,179.2,923.9,181.5,925.4,182L925.4,182z"/>
		</g>
	</g>
	<g class="st1">
		<g>
			<path class="st2" d="M912,191.5c-14.9,5.3-9.8,30.1,6.4,28.1c8.5-1,13.4-9.7,11.7-17.7C928.1,193.3,920.2,189.3,912,191.5
				c-1.5,0.4-1,2.7,0.5,2.3c7-1.8,13.5,1.3,15.2,8.6c1.6,7-3.1,14.7-10.7,14.8c-12.5,0.2-16.2-19.3-4.5-23.5
				C913.9,193.3,913.4,191,912,191.5z"/>
		</g>
	</g>
	<g class="st1">
		<path class="st2" d="M913.6,196.4c-7.4,2.3-7.2,13.8-1,17c6.3,3.2,12.8-1.6,12.8-7.9C925.5,199.3,920.5,194.3,913.6,196.4z"/>
	</g>
	<g class="st1">
		<g>
			<path class="st2" d="M861.1,214.2c0.3,10.2,5.8,19.6,12.2,27.4c4.7,5.7,11.4,13.3,19.1,14.6c1.5,0.3,1.6-2.1,0.1-2.4
				c-7-1.2-13.3-8.7-17.5-13.8c-5.9-7.2-11.2-16.1-11.5-25.6C863.4,212.8,861.1,212.7,861.1,214.2L861.1,214.2z"/>
		</g>
	</g>
	<g class="st1">
		<g>
			<path class="st2" d="M855.7,219.9c0.3,9.9,5.5,19,11.6,26.6c4.5,5.6,10.9,12.8,18.4,14.1c1.5,0.3,1.6-2.1,0.1-2.4
				c-6.7-1.1-12.7-8.3-16.7-13.3c-5.7-7-10.6-15.6-10.9-24.9C858.1,218.5,855.7,218.3,855.7,219.9L855.7,219.9z"/>
		</g>
	</g>
	<g class="st1">
		<g>
			<path class="st2" d="M877.3,262c-1.7,5.9-4.4,13.2-3.8,19.4c0.5,5.5,4.9,2.4,7.8,0.4c6.5-4.6,12.7-10,18.3-15.7
				c4.1-4.3,2.9-9.8,2.7-15.5c-0.1-1.5-2.4-1.7-2.4-0.1c0.1,4.4,1.4,10.3-1.7,13.6c-4.1,4.4-8.8,8.3-13.5,12.1c-2.1,1.7-4.5,4-7,5.1
				c-1.3,0.5-1.2,1.1-1.8,0.2c-0.4-0.7,0.2-2.9,0.3-3.6c0.7-5.1,2-10.2,3.5-15.2C880,261.3,877.7,260.6,877.3,262L877.3,262z"/>
		</g>
	</g>
	<g class="st1">
		<g>
			<path class="st2" d="M867.2,208.8c-5.3-0.2-12.4-1.9-17.3,0.4c-7.1,3.4-14.3,9.3-20.2,14.5c-2.6,2.4-6.8,6.7-0.8,7.4
				c6.5,0.8,14-1.5,20.3-2.9c1.5-0.3,1-2.7-0.5-2.3c-5,1.1-10.2,2.2-15.3,2.7c-0.9,0.1-4,0.7-4.8,0.1c-0.5-0.4-0.3-0.1,0.9-1.4
				c2-2.3,4.6-4.1,7-5.9c4.2-3.3,10-8.9,15.3-10.4c4.4-1.3,10.6,0.1,15.3,0.3C868.6,211.3,868.7,208.9,867.2,208.8L867.2,208.8z"/>
		</g>
	</g>
	<g class="st1">
		<g>
			<path class="st2" d="M831.8,256c2.3,3.2,4.9,6.1,7.8,8.8c1.1,1,2.9-0.6,1.8-1.6c-2.9-2.7-5.5-5.6-7.8-8.8
				C832.7,253.1,830.9,254.7,831.8,256L831.8,256z"/>
		</g>
	</g>
	<g class="st1">
		<g>
			<path class="st2" d="M842.5,267.7c0.5,1,1.3,1.9,2.3,2.4c0.6,0.3,1.3,0.2,1.7-0.4c0.3-0.5,0.2-1.4-0.4-1.7
				c-0.7-0.3-1.2-0.8-1.5-1.5C844,265.2,841.9,266.3,842.5,267.7L842.5,267.7z"/>
		</g>
	</g>
	<g class="st1">
		<g>
			<path class="st2" d="M893.1,247.1c0,0,0.3-0.3,0.9-0.7c0.6-0.4,1.5-1,2.5-1.7c2.1-1.4,4.8-3.2,7.6-5s5.5-3.6,7.6-5
				c1-0.7,1.9-1.2,2.6-1.6c0.6-0.4,1-0.6,1-0.6s-1,1.4-2.7,3.2c-0.9,0.9-2,1.9-3.2,2.9c-0.6,0.5-1.2,1-1.9,1.5s-1.4,1-2.1,1.4
				c-0.7,0.4-1.4,0.9-2.2,1.3c-0.7,0.4-1.4,0.8-2.1,1.2c-1.4,0.7-2.8,1.3-4,1.7C894.8,246.8,893.1,247.1,893.1,247.1z"/>
		</g>
	</g>
	<g class="st1">
		<g>
			<path class="st2" d="M918.3,229.6c0,0,0-0.5,0.1-0.9c0.1-0.5,0.5-0.9,0.9-1.2s1-0.4,1.5-0.3c0.5,0,0.9,0.3,0.9,0.3
				s-0.1,0.5-0.2,0.9c-0.2,0.4-0.5,0.8-0.9,1.1s-0.9,0.4-1.4,0.4C918.7,229.7,918.3,229.6,918.3,229.6z"/>
		</g>
	</g>
	<g class="st1">
		<g>
			<path class="st2" d="M807.3,238.1c2.8-2.5,4.2-8.6,6-11.8c6.3-11.1,14.5-21,23.7-29.9c12.2-11.7,27.7-25.1,44.4-29.8
				c1.2-0.3,1.2-1.9,0.1-2.3c-8.9-3.6-19.4-3.5-28,0.6c0.6,0.5,1.1,0.9,1.7,1.4c1.3-3.9,2.8-7.7,4.4-11.4c1.2-2.7,2.4-5.3,4-7.7
				c0.4-0.7,1.4-1.4,1.5-2.3c0-0.4-0.2-0.9-0.6-1.1c-1.7-0.8-4.7,1.3-6.1,2c-5.7,2.9-11.2,6.2-16.6,9.6
				c-13.9,8.6-26.9,18.2-38.7,29.6c-8.4,8.2-21.7,20.9-18.4,34.1c1.6,6.1,6.4,11.1,11.5,14.6c2.4,1.6,7.3,5.3,10.5,4.6
				c1.5-0.4,1-2.7-0.5-2.3c-2,0.5-5.4-2.2-7-3.1c-3.4-2.1-6.5-4.7-8.9-7.9c-5.7-7.6-3.7-15.4,1.2-22.8c9.6-14.7,24.8-26.7,39.2-36.5
				c6.1-4.2,12.3-8.1,18.6-11.9c2.5-1.5,5.1-3,7.6-4.4c1.5-0.8,4.1-1.5,5.3-2.7c-0.3,0.3,4.8-2.7,0.5-2.2c-0.2,0-1.1,1.4-1.2,1.5
				c-1.6,1.4-2.5,4.5-3.4,6.5c-2,4.3-3.7,8.8-5.2,13.3c-0.4,1,0.8,1.9,1.7,1.4c8.1-3.9,17.9-3.8,26.2-0.5c0-0.8,0.1-1.5,0.1-2.3
				c-15.7,4.5-30.3,16.5-42.1,27.2c-9.7,8.8-18.5,18.6-25.3,29.8c-2,3.3-3.9,6.7-5.5,10.2c-0.6,1.3-1.3,3.9-2.3,4.9
				C804.5,237.3,806.1,239.1,807.3,238.1z"/>
		</g>
	</g>
	<g class="st1">
		<g>
			<path class="st2" d="M803.7,206.6c0.2-0.6-0.1-1.1-0.1-1.6c-0.2-2.8,1.6-3.5,3.6-3.1c0.6,0.1,1.2,0.4,1.7,0.5
				c0.3-0.5,0-0.8-0.1-1.1c-0.4-0.8-0.5-1.6-0.7-2.4c-0.1-0.4,0-0.9,0-1.3c0.2-1.2,1.2-1.8,2.4-1.6c0.7,0.1,1.3,0.4,1.8,0.9
				c0.7,0.6,1.4,1.2,2,1.8c1.1,1.2,2.1,2.5,3.4,3.6c0.7,0.6,0.7,1.2,0.3,1.6c-0.4,0.4-1,0.4-1.7-0.1c-0.7-0.6-1.3-1.2-1.9-1.9
				c-0.8-0.9-1.6-1.8-2.4-2.6c-0.4-0.4-0.9-0.9-1.6-1c-0.5,0.6-0.2,1.2,0,1.7c0.7,1.8,1.6,3.6,2.7,5.3c0.2,0.3,0.4,0.6,0.5,0.9
				c0.2,0.4,0.3,0.9-0.1,1.2c-0.4,0.4-0.9,0.5-1.4,0.2c-0.3-0.2-0.6-0.5-0.9-0.7c-0.9-0.9-2-1.6-3.1-2.3c-0.6-0.4-1.3-0.7-2.1-0.5
				c-0.4,0.6-0.3,1.2-0.1,1.8c0.8,2.3,2,4.4,3.4,6.4c0.3,0.4,0.6,0.7,0.8,1.1c0.2,0.4,0.1,0.8-0.1,1.1c-0.3,0.4-0.8,0.5-1.2,0.2
				c-0.4-0.2-0.9-0.5-1.2-0.9c-1.8-1.8-3.7-3.7-5.4-5.5c-0.8-0.8-0.9-1.2-0.5-1.7s0.7-0.5,1.8,0.2c0.1,0.1,0.2,0.1,0.3,0.2
				C803.6,206.6,803.6,206.6,803.7,206.6z"/>
		</g>
		<g>
			<path class="st2" d="M845.3,175c-0.5-0.1-0.9,0.1-1.1,0.6c-0.1,0.3-0.2,0.6-0.3,1c-0.2,0.8-0.5,1.6-0.9,2.3
				c-1,1.7-2.5,2.3-4.1,1.5c-1.1-0.5-2.1-1.2-2.6-2.6c0.7-0.1,1.3-0.1,1.8-0.2c2.2-0.4,3.1-2.7,2-4.6c-0.7-1-1.6-1.7-2.8-2
				c-2.3-0.5-4.3,1.1-4.2,3.4c0.2,3.5,1.8,6.3,5.1,7.8c1.7,0.8,3.4,0.6,4.9-0.6c1.8-1.4,2.6-3.3,2.9-5.5c0-0.1,0-0.3,0-0.5
				C846,175.3,845.7,175,845.3,175z M835.2,174.3c0.2-0.8,0.7-1.2,1.4-1.1c0.7,0,1.3,0.4,1.7,1c0.5,0.7,0.2,1.4-0.6,1.5
				c-0.6,0.1-1.1,0.1-1.7-0.2C835.3,175.2,835.1,174.9,835.2,174.3z"/>
		</g>
		<g>
			<path class="st2" d="M831.7,185.8c-0.4-0.3-0.8-0.2-1.1-0.1c-0.7,0.1-1.3,0.3-2,0.5c-1.5,0.3-2.9,0.1-3.8-1.2
				c-0.9-1.3-1.1-2.7-0.5-4.2c0.5-1.2,1.3-2.1,2.7-2.2c0.3,0,0.7,0,1,0.1c0.4,0.2,0.8,0.5,0.7,1.1s-0.4,1-1,0.9s-1.1,0-1.4,0.6
				c-0.3,0.7-0.4,1.4-0.1,2.1c0.2,0.4,0.6,0.7,1.1,0.7c0.6,0,1.2,0,1.8-0.3s1.3-0.5,1.9-0.5c1.4-0.1,2.2,0.5,2.5,1.9
				c0.4,2-0.9,4.5-2.8,5.2c-1,0.4-2.1,0.5-3.2,0.4c-0.4,0-0.7-0.2-0.9-0.4c-0.5-0.4-0.4-1.1,0.2-1.4c0.6-0.3,1.2-0.2,1.8-0.2
				C830.6,188.7,831.6,187.7,831.7,185.8z"/>
		</g>
		<g>
			<path class="st2" d="M824.3,194.3c0.1,0.3,0.1,0.5,0.2,0.8c0.4,2.5-1.8,4.2-4.2,3.4c-0.8-0.3-1.5-0.7-2.2-1.3
				c-1.4-1.3-2.4-2.8-3.2-4.5c-0.1-0.2-0.1-0.4-0.2-0.7c-0.1-0.6,0.1-1.1,0.6-1.3c0.6-0.2,1,0.1,1.2,0.7c0.5,1.2,1.2,2.3,2,3.3
				c0.6,0.7,1.3,1.5,2.2,1.8c1.1,0.4,1.8-0.1,1.6-1.3c-0.1-1-0.6-1.9-1.1-2.8c-0.4-0.8-1-1.6-1.5-2.5c-0.2-0.3-0.4-0.6-0.5-0.9
				c-0.3-0.7-0.2-1.2,0.3-1.5s1-0.2,1.4,0.5C822.4,190,823.7,192,824.3,194.3z"/>
		</g>
		<g>
			<path class="st2" d="M802.4,224.3c0-0.2,0.1-0.5,0.1-0.8c0.3-1.3,0.8-2.4,1.3-3.6c0.2-0.4,0.5-0.8,0.9-1c0.5-0.3,1-0.2,1.4,0.2
				s0.4,0.8,0.1,1.2c-1,1.3-1.5,2.9-1.8,4.5c-0.1,0.5-0.3,1-1,0.9C802.8,225.6,802.4,225.1,802.4,224.3z"/>
		</g>
		<g>
			<path class="st2" d="M798.6,221.7c-0.4,0-0.7-0.2-0.8-0.6c-0.2-0.6-0.2-1.1,0.1-1.6c0.6-1.2,1.2-2.3,1.8-3.4
				c0.2-0.3,0.4-0.6,0.7-0.7c0.4-0.3,0.9-0.4,1.4,0.1c0.4,0.4,0.3,0.8,0.1,1.2c-1,1.4-1.7,2.9-2.3,4.5
				C799.3,221.4,799,221.6,798.6,221.7z"/>
		</g>
		<g>
			<path class="st2" d="M796.9,213.6c0.7-0.2,1.4,0.5,1.1,1.2c-0.3,0.9-0.8,1.8-1.1,2.8c-0.1,0.4-0.6,0.5-1,0.5s-0.6-0.3-0.8-0.6
				C794.7,216.6,796.1,213.8,796.9,213.6z"/>
		</g>
	</g>
	<g class="st1">
		<g>
			<path class="st2" d="M861.6,221.1c-1.4,1.2-2.9,2.3-4.3,3.5c-0.8,0.7,0.3,1.9,1.2,1.2c1.4-1.2,2.9-2.3,4.3-3.5
				C863.6,221.7,862.4,220.4,861.6,221.1L861.6,221.1z"/>
		</g>
	</g>
	<g class="st1">
		<g>
			<path class="st2" d="M864,224.5c-2.2,1.2-4.1,2.9-5.4,5.1c-0.6,0.9,0.9,1.8,1.4,0.9c1.1-1.9,2.7-3.5,4.7-4.5
				C865.8,225.4,865,224,864,224.5L864,224.5z"/>
		</g>
	</g>
	<g class="st1">
		<g>
			<path class="st2" d="M865.3,230.3c-1.7,0.9-3,2.3-3.8,4c-0.5,1,1,1.9,1.4,0.9c0.7-1.5,1.8-2.6,3.2-3.4
				C867.1,231.3,866.3,229.8,865.3,230.3L865.3,230.3z"/>
		</g>
	</g>
	<g class="st1">
		<g>
			<path class="st2" d="M876.8,275.6c1.6,0.7,3.2,1.5,4.8,2.2c1,0.4,1.5-1.2,0.5-1.6c-1.6-0.7-3.2-1.5-4.8-2.2
				C876.3,273.5,875.8,275.2,876.8,275.6L876.8,275.6z"/>
		</g>
	</g>
	<g class="st1">
		<g>
			<path class="st2" d="M871.7,163.7c-0.5,1.9-1,3.8-1.5,5.7c-0.3,1.1,1.3,1.6,1.6,0.5c0.5-1.9,1-3.8,1.5-5.7
				C873.6,163.1,872,162.6,871.7,163.7L871.7,163.7z"/>
		</g>
	</g>
	<g class="st1">
		<g>
			<path class="st2" d="M867.4,163.7c-0.8,2.3-1.5,4.5-2.3,6.8c-0.3,1,1.3,1.5,1.6,0.5c0.8-2.3,1.5-4.5,2.3-6.8
				C869.4,163.2,867.8,162.7,867.4,163.7L867.4,163.7z"/>
		</g>
	</g>
	<g class="st1">
		<g>
			<path class="st2" d="M862.9,164.7c-0.6,3.2-1.2,6.3-1.9,9.5c-0.2,1.1,1.4,1.6,1.6,0.5c0.6-3.2,1.2-6.3,1.9-9.5
				C864.7,164.2,863.1,163.7,862.9,164.7L862.9,164.7z"/>
		</g>
	</g>
</g>
</svg>
