<?xml version="1.0" encoding="utf-8"?>
<!-- Generator: Adobe Illustrator 24.1.3, SVG Export Plug-In . SVG Version: 6.00 Build 0)  -->
<svg version="1.1" id="Layer_1" xmlns="http://www.w3.org/2000/svg" xmlns:xlink="http://www.w3.org/1999/xlink" x="0px" y="0px"
	 viewBox="0 0 1440 800" style="enable-background:new 0 0 1440 800;" xml:space="preserve">
<style type="text/css">
	.st0{opacity:0.2;}
	.st1{fill:#22214A;}
	.st2{clip-path:url(#SVGID_2_);}
	.st3{clip-path:url(#SVGID_4_);}
	.st4{clip-path:url(#SVGID_6_);}
	.st5{clip-path:url(#SVGID_8_);}
	.st6{clip-path:url(#SVGID_10_);}
</style>
<desc>Created with Sketch.</desc>
<g class="st0">
	<g>
		<path class="st1" d="M182.7,207.8c11.1,8.5,23.1,17.2,35.8,23.2c4.3,2,8.8,0.3,13.3-0.9c8-2,15.8-4.7,23.6-7.6
			c13.6-5,27.5-10.5,40.2-17.6c5-2.8,7.9-6.7,10.7-11.7c4.1-7.2,7.1-15.1,10.4-22.7c0.2-0.4,0.2-1.1-0.3-1.3
			c-9.8-4.2-17.9-11.7-28-15.2c-4.3-1.5-8.7-0.7-13.1,0.2c-14.4,2.9-28.5,8.2-42.3,13.5c-12.7,4.9-25.7,10-37.5,16.9
			c-3.6,2.1-4.6,5.3-6.5,9c-2.2,4.2-4.4,8.5-6.6,12.7c-0.6,1.1,1.1,2,1.6,0.9c1.9-3.7,3.9-7.4,5.8-11.1c1.9-3.6,3.1-7.8,6.6-9.9
			c11.3-6.7,23.8-11.6,36-16.3c13.1-5.1,26.5-10,40.3-13.3c4.4-1.1,9.2-2.3,13.8-1.3c10.6,2.4,19,11.2,28.9,15.4
			c-0.1-0.4-0.2-0.9-0.3-1.3c-2.9,6.9-5.8,13.9-9.2,20.5c-2.8,5.5-5.8,10.1-11.2,13.2c-12.5,7.1-26.3,12.4-39.7,17.4
			c-7.1,2.6-14.3,5.1-21.7,7.1c-5.1,1.4-10.1,3.4-15,1c-12.2-6-23.9-14.4-34.6-22.6C182.7,205.4,181.7,207,182.7,207.8z"/>
	</g>
	<g>
		<path class="st1" d="M197.4,187.8c12.2,5.8,22.5,15,35.2,19.9c-0.2-0.5-0.4-0.9-0.6-1.4c-3.7,8.2-8.2,15.9-10.8,24.6
			c-0.4,1.2,1.4,1.6,1.8,0.5c2.6-8.5,7-16.1,10.7-24.1c0.3-0.6,0-1.1-0.6-1.4c-12.5-4.8-22.7-14-34.7-19.7
			C197.3,185.7,196.3,187.3,197.4,187.8L197.4,187.8z"/>
	</g>
	<g>
		<path class="st1" d="M233.1,207.7c29.3-6,57-20.9,82.7-35.6c1-0.6,0.1-2.2-0.9-1.6c-25.6,14.7-53.1,29.4-82.2,35.4
			C231.4,206.2,231.9,208,233.1,207.7L233.1,207.7z"/>
	</g>
	<g>
		<path class="st1" d="M242.5,167.6c8.1,6.3,17,11.5,25.3,17.4c2.2,1.6,4.4,3.3,6.4,5.1c2.3,2,1.1,4.9,0.6,7.6
			c-1.1,5.8-2.7,11.6-4.3,17.3c-0.3,1.2,1.5,1.7,1.8,0.5c1.6-5.7,3.2-11.4,4.3-17.3c0.4-1.9,1.6-5.3,1.1-7.2c-0.4-1.4-3.1-3.1-4.2-4
			c-9.3-7.8-20.2-13.3-29.7-20.8C242.9,165.6,241.5,166.9,242.5,167.6L242.5,167.6z"/>
	</g>
	<g>
		<path class="st1" d="M228.9,229.3c1.4-2.1,3-4.1,4.5-6.2c0.7-1-0.9-1.9-1.6-0.9c-1.4,2.1-3,4.1-4.5,6.2
			C226.6,229.3,228.2,230.3,228.9,229.3L228.9,229.3z"/>
	</g>
	<g>
		<path class="st1" d="M234,227.9c1.9-2.9,3.8-5.8,6-8.4c0.8-0.9-0.5-2.2-1.3-1.3c-2.4,2.7-4.3,5.8-6.3,8.8
			C231.7,228,233.4,228.9,234,227.9L234,227.9z"/>
	</g>
	<g>
		<path class="st1" d="M239.4,227.1c1.8-1.4,3.1-3.4,4.5-5.1c0.7-0.9-0.6-2.3-1.3-1.3c-1.4,1.8-2.7,3.7-4.5,5.1
			C237.1,226.5,238.4,227.8,239.4,227.1L239.4,227.1z"/>
	</g>
	<g>
		<path class="st1" d="M245.7,225.9c1.4-2.3,3.1-4.4,5-6.3c0.8-0.9-0.5-2.2-1.3-1.3c-2,2-3.8,4.2-5.3,6.7
			C243.4,226,245.1,226.9,245.7,225.9L245.7,225.9z"/>
	</g>
	<g>
		<path class="st1" d="M253.7,221.6c1.4-1.4,2.6-3,3.6-4.6c0.6-1-1-2-1.6-0.9c-0.9,1.6-2,3-3.3,4.3
			C251.6,221.1,252.9,222.5,253.7,221.6L253.7,221.6z"/>
	</g>
	<g>
		<path class="st1" d="M261.1,220.4c2-1,3.4-2.7,5-4.3c0.8-0.9-0.5-2.2-1.3-1.3c-1.4,1.5-2.8,3-4.6,4
			C259.1,219.3,260,220.9,261.1,220.4L261.1,220.4z"/>
	</g>
	<g>
		<path class="st1" d="M272.9,215.4c1.4-1.8,3-3.4,4.5-5.1c0.8-0.9-0.6-2.3-1.3-1.3c-1.4,1.8-3,3.4-4.5,5.1
			C270.9,215,272.2,216.4,272.9,215.4L272.9,215.4z"/>
	</g>
	<g>
		<path class="st1" d="M282.9,209.9c1.4-1.7,2.7-3.4,4.1-5.1c0.7-0.9-0.6-2.3-1.3-1.3c-1.4,1.7-2.7,3.4-4.1,5.1
			C280.8,209.6,282.1,210.9,282.9,209.9L282.9,209.9z"/>
	</g>
	<g>
		<path class="st1" d="M290.4,206.2c1.9-1.9,3.5-4.1,4.9-6.4c0.7-1-0.9-1.9-1.6-0.9c-1.4,2.1-2.9,4.2-4.7,6
			C288.3,205.7,289.6,207,290.4,206.2L290.4,206.2z"/>
	</g>
</g>
<g class="st0">
	<g>
		<path class="st1" d="M74.6,90.9c2,16.5,2.3,33.2,5.3,49.6c0.2,1.2,2,0.7,1.8-0.5c-3-16.2-3.3-32.7-5.2-49.1
			C76.3,89.8,74.4,89.7,74.6,90.9L74.6,90.9z"/>
	</g>
	<g>
		<path class="st1" d="M89.3,87c3.8,16.4,7,33.2,8.4,50c0.1,1.2,2,1.2,1.9,0c-1.4-17-4.7-33.9-8.5-50.5C90.9,85.3,89.1,85.8,89.3,87
			L89.3,87z"/>
	</g>
	<g>
		<path class="st1" d="M51.5,112.9c21.8-3.1,43.5-7.4,65.3-10.5c1.2-0.2,0.7-2-0.5-1.8c-21.8,3.1-43.5,7.4-65.3,10.5
			C49.9,111.3,50.4,113.1,51.5,112.9L51.5,112.9z"/>
	</g>
	<g>
		<path class="st1" d="M54.7,127.9c21.6-5.3,44-6.5,66.1-8.7c1.2-0.1,1.2-2,0-1.9c-22.3,2.2-44.8,3.4-66.6,8.8
			C53,126.4,53.5,128.2,54.7,127.9L54.7,127.9z"/>
	</g>
	<g>
		<path class="st1" d="M71.1,92.7c-1-3.1-4.3-5.1-7.5-4.5c-3.5,0.6-5.7,3.8-5.1,7.3c0.6,3.5,4.4,5.5,7.6,4.7
			C69.5,99.4,71.9,96.1,71.1,92.7c-0.3-1.2-2.1-0.7-1.8,0.5c0.5,2.4-1.2,4.3-3.3,5.1c-2.4,0.9-4.9-0.6-5.7-2.9
			c-1.9-5.5,7.3-7.5,8.9-2.2C69.7,94.3,71.5,93.8,71.1,92.7z"/>
	</g>
	<g>
		<path class="st1" d="M107,96.1c1.2-3.2-0.3-6.3-3.4-7.5c-2.8-1.1-5.8,0.8-7.1,3.2c-3.9,6.8,7.3,11.3,10.5,4.6
			c0.5-1.1-1.1-2-1.6-0.9c-1.2,2.6-3.8,3.1-6.3,1.8c-1.7-0.9-1.8-2.9-1-4.5c2.3-4.5,9.1-2.1,7.2,2.9C104.8,96.8,106.6,97.2,107,96.1
			z"/>
	</g>
	<g>
		<path class="st1" d="M89.6,108.2c-2.6,3.4-7,5.8-8.6,9.9c-0.4,1.1,1.4,1.6,1.8,0.5c0.7-1.8,2.2-3,3.5-4.3c1.6-1.5,3.2-3,4.6-4.8
			C91.6,108.6,90.3,107.2,89.6,108.2L89.6,108.2z"/>
	</g>
	<g>
		<path class="st1" d="M80,109.3c2.7,4.2,8.4,7.1,12.9,9c1.1,0.5,1.6-1.3,0.5-1.8c-4-1.7-9.3-4.4-11.7-8.1
			C80.9,107.4,79.3,108.3,80,109.3L80,109.3z"/>
	</g>
	<g>
		<path class="st1" d="M109.1,120.4c-1.6,4.5-3.8,8.8-5,13.4c-0.3,1.2,1.5,1.7,1.8,0.5c1.2-4.6,3.4-8.9,5-13.4
			C111.3,119.8,109.5,119.3,109.1,120.4L109.1,120.4z"/>
	</g>
	<g>
		<path class="st1" d="M101.3,123.3c5.1,3.5,10.4,7.4,16.8,7.6c1.2,0,1.2-1.8,0-1.9c-6.1-0.2-11-4.1-15.9-7.4
			C101.3,121,100.4,122.7,101.3,123.3L101.3,123.3z"/>
	</g>
</g>
<g class="st0">
	<path class="st1" d="M54.2,144.8c-6.9,1.6-13.9,6.4-14.7,14c-0.8,7.6,4.5,14.2,11.5,16.6c11,3.8,26.3-6.8,20.6-19.2
		c-2.9-6.3-10.2-8.7-16.8-8.5c-7,0.2-11.4,6.1-7.9,12.6c3,5.5,14,7.4,18.5,2.9c6.2-6.3-2.3-10.6-8-11.1c-5.3-0.4-7.6,3-5.4,7.7
		c1.2,2.4,7.5,5.3,6.8,0.4c-0.8-5.3-5.8-6.3-9.4-2.7c-3.6,3.6,6.1,6.5,7.9,7.1c1.2,0.4,1.6-1.4,0.5-1.8c-2.3-0.7-4.6-1.3-6.5-2.8
		c-0.1-1.8,0.7-2.7,2.4-2.8c1.7,0,2.8,0.8,3.2,2.6c-1.6,0.9-2.7,0.6-3.2-1c-1.2-1.7-0.8-3.2,1.1-4.7c2.7-0.8,6.3,0.1,8.7,1.4
		c6,3.1-0.2,7.3-3.1,8c-1.9,0.4-3.9,0.2-5.7-0.2c-3.8-0.8-6.8-3.5-7.1-7.5c-0.4-4.8,4.5-6.2,8.3-6.3c5.7-0.2,12.2,2.5,14.3,8.1
		c4.1,10.7-8.6,18.4-17.7,16.3c-6.5-1.5-11.5-7.5-11.3-14.2c0.3-7.2,7.2-11.6,13.4-13.1C55.9,146.3,55.4,144.5,54.2,144.8
		L54.2,144.8z"/>
</g>
<g class="st0">
	<path class="st1" d="M130.4,693c-0.5-6.1-6.1-9.7-11.9-9.9c-6.6-0.2-12.7,6.9-12.3,13.2C107.1,710,130.1,704.4,130.4,693
		c0-1.2-1.8-1.2-1.9,0c-0.3,9.1-17.1,13.6-20.3,4.2c-2-5.9,4.9-11.8,10.2-12.2c4.6-0.3,9.7,3.4,10.1,8.1
		C128.7,694.2,130.5,694.2,130.4,693z"/>
</g>
<g class="st0">
	<path class="st1" d="M20.3,718.5c1.3-7.2,11.4-12.6,17.4-15.4c8.2-3.9,23.2-5.7,23.2,7.6c0,5.4-3.9,10.4-7.5,13.9
		c-1.9,1.9-4.3,3.4-6.8,4.4c-2.7,1.1-4.9,1.2-3-1.9c5.1-8.2,20.6-17.3,26.9-5.9c4.7,8.3-3.6,20.4-10.3,24.8c-1.6,1-10.2,4.2-9.5-0.2
		c0.5-3.4,4.6-6.2,7.3-7.8c9.8-5.5,19.6,2.9,18.1,13.3c-1.3,8.9-7.7,17.5-14.5,23.1c-1.4,1.2-3,2.2-4.7,3c-1.1,0.5-0.1,2.1,0.9,1.6
		c6.9-3.3,12.2-9.9,15.9-16.4c3.3-5.7,6.4-14.1,3.1-20.5c-3.1-6.1-9.8-8.9-16.4-7.2c-4.7,1.3-10.9,5.6-11.7,10.8
		c-0.8,5.3,6.9,4.2,9.8,3.1c6.7-2.5,11.4-9.7,13.7-16.2c2.3-6.5,1.2-13.7-5-17.3c-7.3-4.3-16.8,1.4-22,6.6c-1.6,1.7-5.4,5.4-4.7,8
		c0.8,3.2,5.6,1.1,7.4,0.4c8.8-3.6,17.7-15.2,13.8-24.9c-3.9-9.9-16.2-7.6-23.8-4.5c-6.7,2.8-18,9-19.4,17
		C18.3,719.2,20.1,719.7,20.3,718.5L20.3,718.5z"/>
</g>
<g class="st0">
	<path class="st1" d="M1069.1,404c4.6,0.1,9.1,0.4,13.7-0.4c0.3-0.1,0.6-0.3,0.7-0.6c1.4-6,4.4-11.4,6.7-17c-0.6,0-1.2,0-1.8,0
		c1,5.6,2.8,11.9,5.3,16.9c0.4,0.8,1.6,1,2.4,1.2c3.1,0.9,6.1,1.7,9.2,3c-0.1-0.5-0.3-1-0.4-1.6c-3.1,2.5-5.7,5.2-9.3,7
		c-0.3,0.1-0.5,0.5-0.5,0.8c0.1,5.5,1.5,10.9,1.7,16.4c0.5-0.3,0.9-0.5,1.4-0.8c-4.2-3.2-7.8-6.9-11.3-10.8c-0.3-0.4-1-0.3-1.3,0
		c-3.5,3.4-7.5,6.4-11,10c0.5,0.3,1,0.6,1.6,0.9c1.1-5.4,1-11.1,2.3-16.5c0.8-3.4-6.7-8.5-8.7-10.2c-0.9-0.8-2.2,0.5-1.3,1.3
		c2.7,2.3,8.5,5.9,8,9.9c-0.6,5-1,10-2.1,14.9c-0.2,0.9,0.9,1.6,1.6,0.9c1.6-1.7,3.4-3.2,5.1-4.7c2.1-1.8,4.3-5.6,6.7-2.9
		c2.9,3.2,6.1,6.1,9.5,8.8c0.6,0.4,1.4-0.2,1.4-0.8c-0.3-5.1-1.4-10-1.7-15.1c-0.1-1.2,3.1-2.6,4-3.4c1.8-1.4,3.4-3.1,5.2-4.5
		c0.6-0.5,0.1-1.3-0.4-1.6c-2.3-1-10-2-10.8-4.7c-1.4-5.2-3.7-9.9-4.7-15.2c-0.2-1-1.5-0.8-1.8,0c-1.8,4.3-3.9,8.5-5.5,12.9
		c-0.3,0.9-0.6,1.9-0.9,2.8c-0.4,1.4-4.3,1.2-5.4,1.2c-2.5,0-4.9-0.2-7.4-0.2C1067.9,402.1,1067.9,403.9,1069.1,404L1069.1,404z"/>
</g>
<g class="st0">
	<path class="st1" d="M136.9,28.6c7.3-4.7,16.9-6.2,25.2-7.9c8.7-1.8,17.5-3.1,26.2-4.6c-0.4-0.2-0.8-0.4-1.1-0.7
		c3.4,11,7,22,10.2,33c1.6,5.6,3.2,11.3,4.4,17c0.9,4.3,1.9,9,0.7,13.3c-1.9,6.8-10.4,5.4-15,2.5c-1.6-1-4.2-3.4-2.6-5.4
		c2.7-3.3,10-2.9,13.7-2.9c0.6,0,1.1-0.6,0.9-1.2c-4.1-13.5-7-27.3-12-40.5c-0.2-0.5-0.6-0.8-1.1-0.7c-5.6,1.3-11.4,1.8-17.2,2.6
		c-8,1.2-15.6,3.6-23,6.7c-0.4,0.2-0.5,0.7-0.4,1.1c2.4,7.2,5.5,14.1,7.8,21.4c2.4,7.6,5.3,16.8,2.6,24.7c-1.6,4.6-6,6-10.4,6.4
		c-3.5,0.3-8.3-0.3-8.2-4.8c0.1-6.4,8.4-12.9,14.5-11.6c0.6,0.1,1.4-0.4,1.1-1.1c-2.7-7.7-5.4-15.4-8-23.1c-1.9-5.5-3.7-11-5.5-16.5
		c-0.6-1.9-1.2-3.9-1.8-5.8c-0.2-0.7-0.5-2.7-0.7-2.3c0.6-1-1-2-1.6-0.9c-0.9,1.5,1,5.5,1.5,6.9c1.7,5.5,3.6,11,5.4,16.5
		c2.9,8.6,5.9,17.2,8.9,25.7c0.4-0.4,0.8-0.8,1.1-1.1c-7.4-1.7-18.2,6.5-16.8,14.7c1.7,9.9,19,5.3,21.9-1.8
		c4.7-11.6-2.2-26.8-6.3-37.6c-1.1-2.8-2.2-5.5-3.2-8.3c-0.8-2.3,3.3-2.5,5.2-3.2c2.8-1,5.7-1.8,8.7-2.6c8.2-2,16.7-2.3,24.9-4.2
		c-0.4-0.2-0.8-0.4-1.1-0.7c5,13.2,7.9,27,12,40.5c0.3-0.4,0.6-0.8,0.9-1.2c-4,0-19.5,0.4-15.4,8.4c2.5,5.1,11.2,7.5,16.2,5.4
		c9.3-4,4.7-18.1,3-25.2c-3.7-15.1-8.8-29.9-13.3-44.8c-0.2-0.5-0.6-0.7-1.1-0.7c-9.2,1.5-18.3,3-27.4,4.9
		c-8.1,1.7-17.4,3.3-24.5,7.9C135,27.6,135.9,29.2,136.9,28.6z"/>
</g>
<g class="st0">
	<g>
		<path class="st1" d="M284.8,741.5c2.6,3,6.2,5.4,9.9,6.8c0.5,0.2,1-0.2,1.1-0.7c9.7-27.3,16.3-56.1,23-84.3
			c0.6-2.7,1.9-6.2,0.2-8.7c-0.8-1.1-2.2-1.9-3.3-2.6c-3.4-2.2-7.3-4-10.9-5.9c-11.9-6.6-23.7-13.4-36.5-18.3
			c-7.1-2.8-18.4-7.2-25.5-2.3c-1.2,0.8-1.6,2.9-1.9,4.1c-1,3.5-1.5,7-2,10.6c-1.6,10.4-2.5,20.8-4.3,31.1
			c-2.6,15.2-5.9,30.6-6.5,46.1c-0.1,1.7-0.2,3.6,0.4,5.2c1.2,3,6,5.7,8.5,7.5c11.1,8,23.1,14.9,34.9,21.7c0.5,0.3,1.2,0,1.4-0.6
			c6.8-29.1,12.6-58.5,18.9-87.7c0.1-0.4,0-0.9-0.4-1.1c-13.4-6.7-28.3-11.6-39.5-21.9c-1.8-1.6-3.4-3.4-4.7-5.5
			c-1.6-2.7,0.4-6.2,3.8-5.6c1.5,0.3,3,0.8,4.4,1.2c13.2,4.3,25.4,11.3,37.4,18.1c4.8,2.7,9.6,5.4,14.5,8.1c0.8,0.5,2.2,1.6,3.3,1.5
			c0.8-0.1,0.8-1.1,0.4-1.6c-0.2-0.2-0.5-0.3-0.7-0.5c-1-0.6-2,1-0.9,1.6c0.2,0.1,0.6,0.4,0.3,0.2c0.1-0.5,0.3-1,0.4-1.6
			c1.2-0.2-0.6-0.6-1.5-1.1c-3-1.6-5.9-3.3-8.8-4.9c-10.7-6-21.3-12.1-32.5-17.1c-4-1.8-20.5-10.9-22.7-1.5
			c-1.2,5.2,6.7,10.9,10,13.5c8.3,6.6,18.6,10.6,28.2,15.1c1.2,0.6,7.2,2.8,7,3.8c-0.3,1.3-0.6,2.6-0.8,3.9c-0.8,3.7-1.6,7.3-2.3,11
			c-1.9,8.9-3.8,17.9-5.7,26.8c-3.2,15-6.3,30-9.8,45c0.5-0.2,0.9-0.4,1.4-0.6c-11.5-6.6-22.8-13.4-33.7-20.8
			c-2.7-1.8-8.7-4.9-9.1-8.5c-0.3-2.5,0-5.1,0.2-7.6c1.2-15.4,4.3-30.7,6.9-45.8c1.9-10.7,2.5-21.5,4.4-32.2c0.5-2.6,0.9-5.4,2-7.8
			c2.1-4.5,12.8-1.4,16.2-0.5c13,3.5,25.1,10.2,36.8,16.7c3.9,2.2,7.9,4.4,11.8,6.6c3.6,1.9,10.2,3.8,9.4,8.7
			c-1.5,9.7-4.5,19.4-6.9,29c-4.8,19.8-10.1,40.1-17,59.3c0.4-0.2,0.8-0.4,1.1-0.7c-3.4-1.3-6.6-3.6-9.1-6.4
			C285.3,739.3,284,740.6,284.8,741.5L284.8,741.5z"/>
	</g>
	<g>
		<path class="st1" d="M290.2,661.6c3.3-6,15.5-6.1,20.7-3c1,0.6,2-1,0.9-1.6c-6.2-3.6-19.4-3.3-23.3,3.7
			C288,661.8,289.6,662.7,290.2,661.6L290.2,661.6z"/>
	</g>
	<g>
		<path class="st1" d="M298.3,656.2c-2.3,9-3.6,18.3-5,27.5c-0.2,1.2,1.6,1.7,1.8,0.5c1.4-9.2,2.6-18.4,5-27.5
			C300.4,655.5,298.6,655,298.3,656.2L298.3,656.2z"/>
	</g>
	<g>
		<path class="st1" d="M301.8,656.4c-1.7,12-4.4,23.9-7.4,35.7c-0.3,1.2,1.5,1.7,1.8,0.5c3-11.8,5.7-23.6,7.4-35.7
			C303.8,655.7,302,655.2,301.8,656.4L301.8,656.4z"/>
	</g>
	<g>
		<path class="st1" d="M304.3,658.2c-0.4,2.9-1,5.7-1.9,8.5c-0.4,1.1,1.4,1.6,1.8,0.5c1-2.9,1.6-5.9,2-9
			C306.3,657,304.4,657,304.3,658.2L304.3,658.2z"/>
	</g>
	<g>
		<path class="st1" d="M274.8,747.3c4.2-4.9,11.2-4.8,17.1-5.4c0.4,0,0.8-0.3,0.9-0.7c8.9-27.1,11.6-55.7,19.6-83.1
			c0.3-1.2-1.5-1.6-1.8-0.5c-5.5,18.7-8.5,37.9-12.6,56.8c-1,4.4-2,8.9-3.2,13.3c-0.7,2.8-1.9,12.2-5.2,12.5
			c-5.8,0.5-12.1,1.1-16.2,5.8C272.7,746.9,274,748.2,274.8,747.3L274.8,747.3z"/>
	</g>
	<g>
		<path class="st1" d="M281.7,742.6c1-9.3,3.1-18.4,5.1-27.5c0.3-1.2-1.5-1.7-1.8-0.5c-2.1,9.3-4.1,18.6-5.1,28
			C279.7,743.7,281.5,743.7,281.7,742.6L281.7,742.6z"/>
	</g>
	<g>
		<path class="st1" d="M285.4,741.4c0.3-3.6,1-7.2,1.6-10.8c0.2-1.2-1.6-1.7-1.8-0.5c-0.7,3.8-1.3,7.5-1.6,11.3
			C283.4,742.6,285.3,742.6,285.4,741.4L285.4,741.4z"/>
	</g>
	<g>
		<path class="st1" d="M290.2,742.5c0.6,1,1.3,2,2.1,2.9c0.9,0.9,2.2-0.5,1.3-1.3c-0.7-0.7-1.3-1.6-1.8-2.5
			C291.2,740.5,289.6,741.4,290.2,742.5L290.2,742.5z"/>
	</g>
	<g>
		<path class="st1" d="M292.3,739.5c0.9,1.1,1.4,2.4,2.3,3.6c0.7,0.9,2.3,0,1.6-0.9c-0.9-1.1-1.4-2.4-2.3-3.6
			C293.2,737.6,291.6,738.5,292.3,739.5L292.3,739.5z"/>
	</g>
	<g>
		<path class="st1" d="M293.6,734.9c0.4,1.1,1,2.1,1.9,3c0.8,0.9,2.2-0.5,1.3-1.3c-0.6-0.6-1.1-1.3-1.4-2.2
			C295,733.3,293.1,733.8,293.6,734.9L293.6,734.9z"/>
	</g>
	<g>
		<path class="st1" d="M294.4,728c0.9,1.1,1.8,2.3,2.7,3.4c0.7,0.9,2.1-0.4,1.3-1.3c-0.9-1.1-1.8-2.3-2.7-3.4
			C294.9,725.8,293.6,727.1,294.4,728L294.4,728z"/>
	</g>
	<g>
		<path class="st1" d="M296.2,723.9c0.5,1.4,1.2,2.6,2.4,3.6c0.9,0.8,2.2-0.5,1.3-1.3c-0.9-0.8-1.5-1.6-1.9-2.7
			C297.6,722.3,295.8,722.8,296.2,723.9L296.2,723.9z"/>
	</g>
	<g>
		<path class="st1" d="M297.6,718.3c0.8,1.5,1.7,3,2.9,4.3c0.8,0.9,2.1-0.4,1.3-1.3c-1.1-1.2-1.8-2.6-2.6-4
			C298.7,716.3,297,717.2,297.6,718.3L297.6,718.3z"/>
	</g>
	<g>
		<path class="st1" d="M299.3,711.3c0.8,1,1.6,2,2.3,3.1c0.6,1,2.2,0.1,1.6-0.9c-0.8-1.2-1.7-2.3-2.6-3.5
			C299.9,709,298.6,710.4,299.3,711.3L299.3,711.3z"/>
	</g>
	<g>
		<path class="st1" d="M300.3,704.1c1.1,1.6,2.2,3.2,3.5,4.6c0.8,0.9,2.1-0.4,1.3-1.3c-1.2-1.3-2.2-2.8-3.2-4.2
			C301.3,702.2,299.6,703.1,300.3,704.1L300.3,704.1z"/>
	</g>
	<g>
		<path class="st1" d="M301.7,698.2c1.3,1.5,2.2,3.3,3.4,4.9c0.7,1,2.3,0,1.6-0.9c-1.2-1.8-2.2-3.7-3.6-5.3
			C302.3,696,300.9,697.3,301.7,698.2L301.7,698.2z"/>
	</g>
	<g>
		<path class="st1" d="M302.6,692.3c1.5,2.1,3,4.3,4.5,6.4c0.7,1,2.3,0,1.6-0.9c-1.5-2.1-3-4.3-4.5-6.4
			C303.6,690.4,301.9,691.3,302.6,692.3L302.6,692.3z"/>
	</g>
	<g>
		<path class="st1" d="M304.1,685.4c1.1,1.9,2.1,3.8,3.5,5.6c0.7,0.9,2.3,0,1.6-0.9c-1.3-1.7-2.4-3.7-3.5-5.6
			C305,683.4,303.4,684.4,304.1,685.4L304.1,685.4z"/>
	</g>
	<g>
		<path class="st1" d="M306.4,675.7c1,1.5,1.9,3.1,3.2,4.5c0.8,0.9,2.1-0.4,1.3-1.3c-1.1-1.2-1.9-2.7-2.9-4.1
			C307.4,673.8,305.8,674.7,306.4,675.7L306.4,675.7z"/>
	</g>
	<g>
		<path class="st1" d="M307.2,670.8c1.5,1.5,2.8,3.1,4.3,4.5c0.9,0.8,2.2-0.5,1.3-1.3c-1.5-1.5-2.8-3.1-4.3-4.5
			C307.6,668.7,306.3,670,307.2,670.8L307.2,670.8z"/>
	</g>
	<g>
		<path class="st1" d="M309.3,664.7c1.5,1.8,2.7,3.8,4.2,5.6c0.8,0.9,2.1-0.4,1.3-1.3c-1.5-1.8-2.7-3.8-4.2-5.6
			C309.9,662.4,308.6,663.8,309.3,664.7L309.3,664.7z"/>
	</g>
	<g>
		<path class="st1" d="M310.5,660.6c1.6,1.8,2.9,3.9,4.5,5.7c0.8,0.9,2.1-0.4,1.3-1.3c-1.6-1.8-2.9-3.9-4.5-5.7
			C311.1,658.3,309.8,659.7,310.5,660.6L310.5,660.6z"/>
	</g>
	<g>
		<path class="st1" d="M256.3,626.9c1.7,1.9,3.4,3.8,5.3,5.6c0.9,0.8,2.2-0.5,1.3-1.3c-1.9-1.8-3.6-3.6-5.3-5.6
			C256.8,624.6,255.5,626,256.3,626.9L256.3,626.9z"/>
	</g>
	<g>
		<path class="st1" d="M261.9,629.5c2.3,1.8,4.5,3.8,6.5,5.9c0.8,0.9,2.2-0.5,1.3-1.3c-2.1-2.1-4.2-4.1-6.5-5.9
			C262.3,627.4,261,628.8,261.9,629.5L261.9,629.5z"/>
	</g>
	<g>
		<path class="st1" d="M271,633c1.7,2.2,3.8,3.9,6,5.7c0.9,0.8,2.3-0.6,1.3-1.3c-2.1-1.7-4.2-3.5-6-5.7
			C271.6,630.8,270.3,632.1,271,633L271,633z"/>
	</g>
	<g>
		<path class="st1" d="M278.4,636.5c2.1,2.4,4.3,4.5,6.6,6.7c0.9,0.8,2.2-0.5,1.3-1.3c-2.3-2.2-4.5-4.3-6.6-6.7
			C278.9,634.3,277.6,635.6,278.4,636.5L278.4,636.5z"/>
	</g>
	<g>
		<path class="st1" d="M286.8,640.3c1.6,2.3,3.4,4.5,5.5,6.3c0.9,0.8,2.2-0.5,1.3-1.3c-2-1.7-3.7-3.8-5.2-5.9
			C287.7,638.4,286.1,639.3,286.8,640.3L286.8,640.3z"/>
	</g>
	<g>
		<path class="st1" d="M294,644.8c2,2.6,4.4,4.9,6.4,7.4c0.8,0.9,2.1-0.4,1.3-1.3c-2-2.4-4.3-4.6-6.1-7.1
			C294.9,642.9,293.3,643.8,294,644.8L294,644.8z"/>
	</g>
	<g>
		<path class="st1" d="M303.6,650.8c1.3,1.6,2.6,3.1,3.9,4.7c0.7,0.9,2.1-0.4,1.3-1.3c-1.3-1.6-2.6-3.1-3.9-4.7
			C304.2,648.6,302.9,649.9,303.6,650.8L303.6,650.8z"/>
	</g>
	<g>
		<path class="st1" d="M247.1,630.1c6.2,2.3,11.7,5.8,17.5,8.9c1.1,0.6,2-1,0.9-1.6c-5.9-3.2-11.6-6.8-17.9-9.1
			C246.4,627.9,245.9,629.7,247.1,630.1L247.1,630.1z"/>
	</g>
	<g>
		<path class="st1" d="M247.1,632.6c10.8,5.1,21.5,10.5,31.6,16.9c1,0.7,1.9-1,0.9-1.6c-10.1-6.5-20.7-11.9-31.6-16.9
			C246.9,630.5,246,632.1,247.1,632.6L247.1,632.6z"/>
	</g>
	<g>
		<path class="st1" d="M271.9,650c5.7,3.6,12.2,5.8,17.8,9.4c1,0.7,2-1,0.9-1.6c-5.7-3.6-12.1-5.8-17.8-9.4
			C271.8,647.8,270.9,649.4,271.9,650L271.9,650z"/>
	</g>
	<g>
		<path class="st1" d="M283.4,647.9c4.2,2.7,8.7,4.8,13.1,7.2c1.1,0.6,2-1,0.9-1.6c-4.4-2.4-8.9-4.6-13.1-7.2
			C283.3,645.6,282.3,647.2,283.4,647.9L283.4,647.9z"/>
	</g>
	<g>
		<path class="st1" d="M236.1,729.2c0,0,0.5,0,0.5,0c0.4,0,0.8-0.3,0.9-0.7c0.2-1-0.2-2.4-0.3-3.4c-0.2-1.4-0.4-2.9-0.5-4.4
			c0-1.2-1.9-1.2-1.9,0c0,1.4,0.2,2.7,0.4,4.1c0.1,0.7,0.2,1.4,0.3,2.1c0,0.3,0.1,1.4,0.1,1.2c0.3-0.2,0.6-0.6,0.9-0.6
			c0,0-0.5,0-0.5,0V729.2L236.1,729.2z"/>
	</g>
	<g>
		<path class="st1" d="M241.3,731.2c-0.2-1.6-0.6-3.2-0.8-4.8c-0.1-1.2-2-1.2-1.9,0c0.2,1.6,0.6,3.2,0.8,4.8
			C239.6,732.3,241.5,732.4,241.3,731.2L241.3,731.2z"/>
	</g>
	<g>
		<path class="st1" d="M244.4,733.3c0-1.2-0.4-2.3-0.6-3.5c-0.3-1.2-2-0.7-1.8,0.5c0.2,1,0.5,2,0.5,3
			C242.6,734.5,244.4,734.5,244.4,733.3L244.4,733.3z"/>
	</g>
	<g>
		<path class="st1" d="M245.4,658.1c-0.5,7-2.6,13.8-4,20.6c-0.8,4-3.6,10.4-1.8,14.5c0.5,1,1.5,1.4,2.5,1.9
			c2.7,1.5,5.3,2.9,8.1,4.1c6.4,2.7,12.3,6.2,18.7,9.1c0.5,0.2,1.2,0.1,1.4-0.6c3.6-13,5.5-26.5,10.1-39.2c0.2-0.5-0.2-1-0.7-1.1
			c-6.9-1.8-13.8-3.6-20.6-6.1c-4.2-1.6-8.1-3.7-12.7-4c-0.7,0-1.2,0.8-0.8,1.4c0,0,0,0.1,0.1,0.1c0.7,0.9,2.3,0,1.6-0.9
			c0,0,0,0-0.1-0.1c-0.3,0.5-0.5,0.9-0.8,1.4c4.3,0.3,8.2,2.3,12.2,3.9c6.6,2.7,13.7,4.3,20.6,6.1c-0.2-0.4-0.4-0.8-0.7-1.1
			c-4.7,12.7-6.6,26.2-10.1,39.2c0.5-0.2,0.9-0.4,1.4-0.6c-4.9-2.2-9.5-5.2-14.4-7.3c-2.3-1-4.7-1.9-7-3c-1.4-0.6-6.8-2.7-7.1-4.4
			c-0.7-5.6,1.8-12.1,3-17.5c1.3-5.4,2.6-10.8,3-16.4C247.3,656.9,245.5,656.9,245.4,658.1L245.4,658.1z"/>
	</g>
	<g>
		<path class="st1" d="M247.7,662.8c-0.4,9.4-3.5,18.3-4.8,27.5c-0.1,0.4,0,0.9,0.4,1.1c7.8,3.8,14.8,9.5,23.4,11.4
			c0.5,0.1,1-0.1,1.1-0.7c0.9-4.8,2.6-9.3,3.9-14c1.4-5.1,1.8-10.5,3.2-15.6c0.1-0.5-0.1-1-0.7-1.1c-8.8-1.8-17.1-5.5-25.2-9.3
			c-1.1-0.5-2,1.1-0.9,1.6c8.3,3.9,16.7,7.6,25.7,9.5c-0.2-0.4-0.4-0.8-0.7-1.1c-1.2,4.6-1.9,9.3-2.8,14c-1,5.3-3.3,10.3-4.3,15.6
			c0.4-0.2,0.8-0.4,1.1-0.7c-4-0.8-7.5-2.5-11-4.5c-1.6-0.9-11.5-5.5-11.3-7.3c1.2-8.9,4.2-17.4,4.6-26.4
			C249.6,661.6,247.7,661.6,247.7,662.8L247.7,662.8z"/>
	</g>
</g>
<g class="st0">
	<g>
		<path class="st1" d="M1363.4,382.1c-11.8-14.5-37.1-16.4-44.2,3.5c-3.1,8.5-1.7,18.2,0.5,26.7c2.2,8.7,6.2,17.7,13.4,23.3
			c3.9,3,8.5,3,13.2,2.7c6.6-0.4,11.4,2.7,17.5,3.8c8.7,1.6,18.8-5.5,24.9-10.9c7.1-6.2,12.9-14.9,13.9-24.5
			c0.8-8.5-3.1-17.1-9.6-22.5c-8.7-7.2-21.1-7.5-30.8-2.2c-1.1,0.6-0.1,2.2,0.9,1.6c18.1-10,40.5,4.2,37.3,25.2
			c-1.6,10.3-9.9,19.3-18.1,25.1c-3.9,2.8-8.4,4.9-13.1,5.9c-5.8,1.3-10-1.5-15.5-2.9c-5.1-1.3-10.3,0.4-15.4-0.7
			c-5.2-1.1-9-6.3-11.5-10.6c-4.8-8-7.3-18.1-7.6-27.4c-0.3-9.1,2.4-18.7,10.9-23.3c11-6,24.5-0.5,31.8,8.5
			C1362.9,384.4,1364.2,383.1,1363.4,382.1z"/>
	</g>
	<g>
		<g>
			<path class="st1" d="M1378.1,355.4c-3.1,5.8-6.1,11.7-9.1,17.5c-1.4,2.8-3.7,8.7-7,9.8c-1.7,0.6,0.3-4.8,0.5-5.4
				c1.2-3.3,2.9-6.4,4.6-9.4c1.9-3.4,4.1-6.6,6.3-9.8c0.6-0.8,1-2.4,1.9-2.3c1.1,0.2,2.3,0.5,3.4,0.9c1.1,0.4,1.6-1.4,0.5-1.8
				c-1.4-0.5-2.8-0.8-4.2-1.1c-0.5-0.1-0.8,0.1-1.1,0.4c-1.4,1.9-20.3,30-12.3,30.3c3.1,0.1,5.1-3.8,6.5-6.1
				c4.3-7.2,7.7-14.9,11.7-22.2C1380.3,355.3,1378.7,354.4,1378.1,355.4z"/>
		</g>
	</g>
	<g>
		<path class="st1" d="M1364.7,369.4c-16.7,4.4-22.3-23-18.3-34.6c-0.4,0.2-0.8,0.4-1.1,0.6c15.9,4.1,26.2,17.6,18.9,34.4
			c0.5,0,1.1,0,1.6,0c-4.3-7.5-10-16-14.7-24.2c-0.6-1-2.2-0.1-1.6,1c4.8,8.1,10.5,15.8,14.7,24.2c0.3,0.6,1.3,0.6,1.6,0
			c7.8-17.1-2.9-32.7-20-37.2c-0.5-0.1-1,0.2-1.1,0.7c-4.5,13,2.3,41.8,20.6,36.9C1366.4,370.9,1365.9,369.1,1364.7,369.4
			L1364.7,369.4z"/>
	</g>
	<g>
		<path class="st1" d="M1378.1,392.3c2,3.7,2.9,7.8,2,11.9c-0.3,1.2,1.5,1.7,1.8,0.5c1-4.6,0-9.2-2.2-13.4
			C1379.1,390.3,1377.5,391.3,1378.1,392.3L1378.1,392.3z"/>
	</g>
	<g>
		<path class="st1" d="M1384.4,395.5c1,2.1,0.8,4.4,0.4,6.6c-0.2,1.2,1.6,1.7,1.8,0.5c0.5-2.8,0.6-5.5-0.6-8.1
			C1385.5,393.4,1383.9,394.4,1384.4,395.5L1384.4,395.5z"/>
	</g>
	<g>
		<path class="st1" d="M1388.5,397.7c0,0-0.1,3.9-0.5,5.8c-0.3,1.2,1.5,1.6,1.8,0.4c0.5-2,0.6-4.3,0.6-6.1H1388.5L1388.5,397.7z"/>
	</g>
	<g>
		<path class="st1" d="M1374.8,391.3c0,1.7,0.5,3.4,1.1,5c0.4,1.1,2.2,0.6,1.8-0.5c-0.5-1.5-1-2.9-1-4.5
			C1376.6,390.1,1374.8,390.1,1374.8,391.3L1374.8,391.3z"/>
	</g>
</g>
<g class="st0">
	<g>
		<path class="st1" d="M1268.6,38.9c-5.8-0.9-9.8-5-9.1-11.1c0.6-5.1,5.5-10.7,11-9.8c5.7,0.9,9.6,6,9.9,11.6
			c0.4,6.3-6.1,9.7-11.6,9.3c-1.2-0.1-1.2-2,0-1.9c4.3,0.3,8.3-1.5,9.5-5.8c1.3-4.5-2.6-9.4-6.6-11c-5.6-2.2-10,3.7-10.6,8.6
			c-0.6,4.8,3.7,7.6,7.9,8.3C1270.3,37.3,1269.8,39.1,1268.6,38.9z"/>
	</g>
	<g>
		<path class="st1" d="M1290.1,46c-3.3,0.4-6.8-0.4-7.9-3.9c-1.1-3.6,1.9-7.3,5.2-8.2c3.7-1.1,6.9,1.7,8.2,4.9
			c1.4,3.7-1.9,6.7-5.2,7.3c-1.2,0.2-1.7-1.6-0.5-1.8c2.6-0.5,4.7-2.1,3.9-5c-0.8-2.8-3.8-4.2-6.4-3.4c-2.6,0.8-4.1,4.2-3,6.6
			c0.9,2,3.9,1.9,5.8,1.7C1291.3,44,1291.3,45.9,1290.1,46z"/>
	</g>
	<g>
		<path class="st1" d="M1269.7,47.1c3.1-0.9,7.6,0.3,8.2,3.9c0.6,3.3-2.2,6.3-5.1,7.2c-3,1-6.4-0.7-7-3.8
			C1265.2,51.5,1267,48.2,1269.7,47.1c1.1-0.5,1.6,1.3,0.5,1.8c-1.7,0.7-2.6,2.8-2.6,4.5c0,2.3,2.3,3.4,4.4,3.1
			c2.2-0.4,3.9-2.3,4.2-4.5c0.3-3-3.9-3.7-5.9-3.1C1269,49.2,1268.5,47.4,1269.7,47.1z"/>
	</g>
	<g>
		<path class="st1" d="M1305.1,75.3c-2.1-5-1.3-7.9,1.6-12.3c3.5-5.2-1.8-10.2-6.5-10.5c-4-0.3-8.1,2.8-11.5,4.5
			c-5.4,2.8-17,7.1-17.7,13.9c-0.4,4,3,4.3,5.9,5.1c1.4,0.4,2.6,3.3,3.2,4.3c8.2,13.8,8.8,30.8,9.1,46.4c0.4,16.7-0.7,33.4-1,50
			c-0.1,3-1.3,10,1.6,11.9c5,3.3,14,1.8,19.7,1.5c7.5-0.4,14.9-1.6,22-3.8c12.6-4,25.6-12.6,34.5-22.4c4-4.4,10.2-14.4,5.2-19.8
			c-4.2-4.6-10.6-7.9-15.5-11.7c-19.5-15-40.2-34-50.5-56.8c-0.5-1.1,1.1-2,1.6-0.9c5.7,12.6,15,23.6,24.4,33.5
			c10.3,10.7,21.7,20.2,33.7,28.9c3.6,2.6,7.9,4.9,9.9,9.1c1.6,3.4-1,8.8-2.4,11.9c-4.8,10.8-16.8,18.2-26.6,23.8
			c-11.4,6.5-23.2,9.5-36.2,10.4c-4.7,0.3-20.3,2.6-22.6-3.7c-1.3-3.6-0.6-8.5-0.5-12.2c0.2-7.7,0.5-15.3,0.7-23
			c0.4-13.4,0.6-26.8-0.4-40.2c-0.4-5.8-1.2-11.7-2.5-17.4c-0.6-2.4-1.3-4.7-2.3-6.9c-1.3-3-3.4-10.4-7.3-10.5
			c-4.9-0.1-6.2-6.1-5-10c0.8-2.6,3.7-4.4,5.8-5.8c4.9-3.1,10-5.7,15-8.4c5.5-2.9,11.2-5.2,16.3-0.5c2,1.9,2.9,4.8,2.7,7.5
			c-0.1,1.5-1.2,3-2,4.1c-2.2,3.3-2.2,6.2-0.7,9.8C1307.4,75.9,1305.6,76.4,1305.1,75.3z"/>
	</g>
	<g>
		<path class="st1" d="M1291.7,57.7c1.8-0.8,11.6-5.4,11.2-0.4c-0.4,5-9.4,9.1-12.8,10.7c-2.8,1.3-12,5.7-13.6,0.8
			c-1.1-3.4,7.5-5.9,9.4-6.9c1.1-0.6,2,1.1,0.9,1.6c-1.9,1-3.8,1.7-5.7,2.7c-0.7,0.4-5,2.9-0.7,2.9c2,0,4.2-1,6.1-1.6
			c4.2-1.5,8.5-3.8,11.8-6.8c0.9-0.8,1.6-1.7,2.3-2.6c-1-1-2-1.2-3.1-0.6c-1.7,0.4-3.3,1.2-4.8,1.9
			C1291.6,59.8,1290.6,58.2,1291.7,57.7L1291.7,57.7z"/>
	</g>
	<g>
		<path class="st1" d="M1288.1,134.6c0.3-3.9,3.5-5.8,6.7-7.5c6.2-3.2,12.8-5.7,19.4-8c6.2-2.1,13-4.9,19.6-5.5
			c2.9-0.3,6,4.2,4.5,6.7c-2.4,4.2-7.1,7.2-11,9.8c-5.4,3.5-12.2,5.9-18.3,8.1C1303.4,140.4,1289.3,143.9,1288.1,134.6
			c-0.2-1.2,1.7-1.2,1.9,0c1,7.7,15.9,2.9,20.1,1.3c7.9-2.9,15.1-6.5,21.9-11.4c1.6-1.2,3-2.4,4.2-4c-1.7-4-3.9-5.3-6.8-4
			c-1.1,0.3-2.2,0.6-3.2,0.9c-4.4,1.3-8.7,2.6-13,4.1c-4.7,1.6-9.3,3.5-13.8,5.5c-3.2,1.5-9,3.4-9.3,7.6
			C1289.8,135.8,1288,135.8,1288.1,134.6z"/>
	</g>
	<g>
		<path class="st1" d="M1325.9,140.4c2.5-5.8,8-9,13.9-5.7c5,2.8,6.7,9.9,3.9,14.7c-2.3,3.9-7.2,5.5-11.5,4.7
			c-6.5-1.1-8.3-8.1-6.4-13.5c0.4-1.1,2.2-0.6,1.8,0.5c-1.7,4.9-0.2,9.9,5.1,11.2c3.2,0.8,6.6-0.7,8.7-3c3.3-3.5,1.7-8.9-1.2-12
			c-4.7-4.9-10.5-1-12.7,4C1327,142.4,1325.4,141.5,1325.9,140.4z"/>
	</g>
	<g>
		<path class="st1" d="M1312.4,149.2c2.5,1.8,2.5,6,0.5,8.3c-2.1,2.4-6,3.1-8.6,1.2c-2.4-1.8-2.3-5.7-0.5-7.9
			C1305.9,148.1,1309.5,147.5,1312.4,149.2c1,0.6,0.1,2.2-0.9,1.6c-3.6-2.1-9.1,1.5-6.7,5.7c1.1,1.9,3.9,1.5,5.5,0.7
			c2-1,3.2-4.9,1.2-6.4C1310.5,150.1,1311.5,148.5,1312.4,149.2z"/>
	</g>
	<g>
		<path class="st1" d="M1325.3,166c2.4,1.8,3.7,5,1.9,7.7c-1.7,2.5-5.2,2.8-7.5,1.2c-2.4-1.6-2.9-4.9-1.7-7.3
			C1319.3,164.8,1322.9,164.5,1325.3,166c1,0.6,0.1,2.2-0.9,1.6c-3.8-2.3-6.9,2.4-4.1,5.4c1.3,1.4,3.6,1.3,5,0.1
			c1.8-1.6,0.8-4.3-0.9-5.5C1323.4,166.9,1324.3,165.3,1325.3,166z"/>
	</g>
	<g>
		<path class="st1" d="M1341.7,164.2c4.8,1.3,4.5,8.7-0.9,8.5c-2.6-0.1-4.7-2.1-4.8-4.7C1335.9,164.9,1339.2,163.7,1341.7,164.2
			c1.2,0.2,0.7,2-0.5,1.8c-1.6-0.3-3.4,0.3-3.3,2.2c0.1,1.6,1.7,2.6,3.2,2.6c3.2,0.2,2.7-4.1,0.1-4.8
			C1340,165.7,1340.5,163.9,1341.7,164.2z"/>
	</g>
	<g>
		<path class="st1" d="M1334.9,117.3c-4.7,5.7-9.4,11.5-15.2,16.3c-0.9,0.8-2.2-0.6-1.3-1.3c5.7-4.7,10.5-10.5,15.2-16.3
			C1334.4,115.1,1335.7,116.4,1334.9,117.3L1334.9,117.3z"/>
	</g>
	<g>
		<path class="st1" d="M1332.8,116.2c-7.2,6.5-13.8,13.7-20.5,20.8c-0.8,0.9-2.1-0.4-1.3-1.3c6.7-7.1,13.3-14.2,20.5-20.8
			C1332.4,114.1,1333.7,115.4,1332.8,116.2L1332.8,116.2z"/>
	</g>
	<g>
		<path class="st1" d="M1327.1,117c-8.1,7.3-15.3,15.6-23.6,22.6c-0.9,0.8-2.2-0.5-1.3-1.3c8.3-7,15.5-15.3,23.6-22.6
			C1326.7,114.9,1328,116.2,1327.1,117L1327.1,117z"/>
	</g>
	<g>
		<path class="st1" d="M1320,119.1c-7,6.8-13.3,14.2-20.3,21.1c-0.9,0.8-2.2-0.5-1.3-1.3c7-6.8,13.3-14.2,20.3-21.1
			C1319.6,116.9,1320.9,118.2,1320,119.1L1320,119.1z"/>
	</g>
	<g>
		<path class="st1" d="M1313.2,121.4c-5.4,6.5-11.3,12.7-17.5,18.4c-0.9,0.8-2.2-0.5-1.3-1.3c6.3-5.7,12.1-11.9,17.5-18.4
			C1312.7,119.2,1314,120.5,1313.2,121.4L1313.2,121.4z"/>
	</g>
	<g>
		<path class="st1" d="M1303.3,125.2c-4,4.1-7.8,8.4-11.4,12.8c-0.8,0.9-2.1-0.4-1.3-1.3c3.7-4.4,7.5-8.7,11.4-12.8
			C1302.8,123,1304.1,124.4,1303.3,125.2L1303.3,125.2z"/>
	</g>
	<g>
		<path class="st1" d="M1309,62.7c-6.5,9.4-21.1,14.9-32.3,15.1c-1.2,0-1.2-1.8,0-1.9c10.5-0.2,24.6-5.4,30.7-14.2
			C1308.1,60.8,1309.7,61.7,1309,62.7L1309,62.7z"/>
	</g>
	<g>
		<path class="st1" d="M1295,73c0.6,2.8,1,5.6,1.6,8.4c0.2,1.2-1.6,1.7-1.8,0.5c-0.6-2.8-1-5.6-1.6-8.4
			C1293,72.3,1294.8,71.8,1295,73L1295,73z"/>
	</g>
	<g>
		<path class="st1" d="M1292.4,74c0.5,2.2,1,4.3,1.1,6.6c0,1.2-1.8,1.2-1.9,0c0-2.1-0.5-4.1-1-6.1
			C1290.3,73.4,1292.1,72.9,1292.4,74L1292.4,74z"/>
	</g>
	<g>
		<path class="st1" d="M1288.8,75.8c0,0,0,2,0.8,2.8c0.8,0.9-0.5,2.3-1.3,1.4c-1.1-1.2-1.3-2.4-1.3-4.2S1288.8,73.9,1288.8,75.8
			C1288.8,75.8,1288.8,73.9,1288.8,75.8z"/>
	</g>
	<g>
		<path class="st1" d="M1298.1,191.1c1-2.5,2.4-4.7,3.5-7.1c0.5-1.1,2.1-0.1,1.6,0.9c-1,2.3-2.4,4.3-3.3,6.6
			C1299.5,192.7,1297.7,192.3,1298.1,191.1L1298.1,191.1z"/>
	</g>
	<g>
		<path class="st1" d="M1299.2,185.9c-1.2,1.8-1.9,3.8-3.1,5.6c-0.7,1-2.3,0.1-1.6-0.9c1.2-1.8,1.9-3.8,3.1-5.6
			C1298.2,184,1299.8,184.9,1299.2,185.9L1299.2,185.9z"/>
	</g>
	<g>
		<path class="st1" d="M1295.2,188.1c-0.6,1.2-1.4,2.3-2.3,3.3c-0.8,0.9-2.2-0.5-1.3-1.3c0.8-0.9,1.5-1.8,2-2.9
			C1294.1,186.1,1295.7,187.1,1295.2,188.1L1295.2,188.1z"/>
	</g>
	<g>
		<path class="st1" d="M1365.2,159.9c-1.3,3.9-3,7.6-4.4,11.5c-0.4,1.1-2.2,0.6-1.8-0.5c1.3-3.9,3-7.6,4.4-11.5
			C1363.8,158.3,1365.6,158.8,1365.2,159.9L1365.2,159.9z"/>
	</g>
	<g>
		<path class="st1" d="M1359.5,167.6c-0.9,2.1-1.6,4.2-2.5,6.2c-0.5,1.1-2.1,0.2-1.6-0.9c0.9-2.1,1.6-4.2,2.5-6.2
			C1358.3,165.6,1360,166.5,1359.5,167.6L1359.5,167.6z"/>
	</g>
	<g>
		<path class="st1" d="M1354,173.3c-0.3,1.4-0.9,2.7-1.6,4c-0.7,1-2.3,0.1-1.6-0.9c0.7-1.1,1.2-2.2,1.5-3.5
			C1352.4,171.6,1354.2,172.1,1354,173.3L1354,173.3z"/>
	</g>
	<g>
		<path class="st1" d="M1368.5,150.8c-5.5-3.2-13-0.7-18.6,1.1c-5.6,1.8-11.2,4.1-16.7,6.1c-14.2,5.2-29.2,11.9-38.8,24
			c-0.7,0.9-2.1-0.4-1.3-1.3c9.9-12.4,25.1-19.1,39.6-24.5c6.3-2.3,12.6-4.9,19.1-6.8c5.5-1.7,12.4-3.2,17.6-0.2
			C1370.5,149.8,1369.5,151.4,1368.5,150.8L1368.5,150.8z"/>
	</g>
	<g>
		<g>
			<path class="st1" d="M1351.1,145.1c1.6-2.3,4.5-2.5,6.5-0.5c1.5,1.5,1.8,4.1,0.5,5.8c-1.4,1.8-4.3,1.9-6.2,0.8
				C1349.7,149.9,1349.9,147.1,1351.1,145.1c0.6-1,2.2-0.1,1.6,0.9c-0.7,1.1-1.1,2.4,0,3.4c0.9,0.9,3,0.8,3.8,0
				c2.2-2-1.7-6.3-3.8-3.4C1352,147,1350.4,146.1,1351.1,145.1z"/>
		</g>
	</g>
	<g>
		<g>
			<path class="st1" d="M1296.3,170.8c0.9-2.2,3.5-3.6,5.9-3.3c2.8,0.4,3.8,3.3,3.4,5.8c-0.4,2.8-3.3,4.5-6,3.9
				C1296.8,176.6,1295.5,173.3,1296.3,170.8c0.4-1.1,2.2-0.7,1.8,0.5c-0.5,1.6,0.1,3.4,1.7,4c1.8,0.7,3.4-0.6,3.9-2.2
				c0.4-1.4-0.2-3.5-1.8-3.7c-1.3-0.2-3.2,0.6-3.8,1.9C1297.6,172.4,1295.8,171.9,1296.3,170.8z"/>
		</g>
	</g>
</g>
<g class="st0">
	<g>
		<path class="st1" d="M1019.3,379.4c-11.3-5.8-23.8-5.8-36.3-6c-7-0.1-13.9-0.6-20.8-2.1c-7-1.6-12.8-5.1-19.3-7.8
			c-20.2-8.5-43.7,4.4-50.7,24.3c-6.8,19.1,1.1,41.4,13.2,56.4c7.4,9.2,17.3,16,28.4,19.8c10.9,3.8,22.9,4.4,34.3,4.5
			c24.6,0.3,52.4-6.7,62.5-31.7C1038.1,418.7,1039.2,390.3,1019.3,379.4c-1.1-0.6-2,1-0.9,1.6c17.5,9.6,17.5,33.8,12.4,50.6
			c-6.9,22.7-28.2,32.9-50.5,34.8c-25.2,2.2-52.2-1.1-70.4-20.1c-15.5-16.1-24-43.4-13-64.1c4.7-8.9,13.3-14.6,22.6-17.9
			c6.1-2.2,12.4-2.3,18.7-0.7c5.5,1.4,10.5,4.8,15.7,7.1c20.6,8.8,44.4-0.1,64.6,10.3C1019.5,381.5,1020.4,379.9,1019.3,379.4z"/>
	</g>
	<g>
		<path class="st1" d="M953.6,407.4c8.4-0.2,12.3-4.8,12.4-13c0.1-8.6-6-13.7-14.3-14.9c-8.4-1.2-14.6,5-14.1,13.3
			C938.2,401.2,945.5,407.1,953.6,407.4c1.2,0,1.2-1.8,0-1.9c-6.7-0.3-11.8-4.3-13.7-10.6c-2.5-8.5,4.3-14.6,12.4-13.4
			c6.5,0.9,11.5,5.2,11.8,11.8c0.4,7.4-2.8,12.1-10.5,12.2C952.4,405.6,952.4,407.4,953.6,407.4z"/>
	</g>
	<g>
		<path class="st1" d="M916.2,399.9c3.9-2.3,5.6-5.4,4-9.9c-1.4-3.9-7.7-3.7-10.7-2.4c-4.1,1.8-5.4,7.7-3.1,11.2
			C908.5,402.2,913.2,401.5,916.2,399.9c1.1-0.6,0.1-2.2-0.9-1.6c-2,1.1-4.3,1.6-6.4,0.4c-3.3-1.9-1.6-6.7,0.4-8.7
			c2-2,8.1-2.2,9.3,1.1c1.2,3.3-0.5,5.6-3.3,7.3C914.2,398.9,915.1,400.5,916.2,399.9z"/>
	</g>
	<g>
		<path class="st1" d="M942.9,443c0.8-5.4-0.8-10.5-6.4-12.1c-6-1.6-11.8,1.8-13.3,7.7c-1.5,5.8,3.8,11.2,8.9,12.8
			C937.8,453.3,941.8,448,942.9,443c0.3-1.2-1.5-1.7-1.8-0.5c-0.8,3.7-2.8,7.1-6.9,7.4c-5.1,0.3-9.3-5.3-9.3-9.9
			c0-5.2,5.1-7.5,9.5-7.4c5.6,0.1,7.5,5.2,6.8,10C940.9,443.7,942.7,444.2,942.9,443z"/>
	</g>
	<g>
		<path class="st1" d="M996.6,447c0.6-4.9-1.3-8.9-6.5-9.6c-5-0.6-10.6,1.8-12.1,6.8c-3.2,10.9,16.5,14.4,18.5,3.1
			c0.2-1.2-1.6-1.7-1.8-0.5c-1.6,8.9-16.8,6.8-14.9-2.1c0.9-4.1,5.5-5.4,9.2-5.5c4.8-0.1,6.2,3.6,5.8,7.8
			C994.6,448.2,996.5,448.2,996.6,447z"/>
	</g>
	<g>
		<path class="st1" d="M980.9,449.7c2.2-2.2,4.4-4.4,6.5-6.5c0.9-0.9-0.5-2.2-1.3-1.3c-2.2,2.2-4.4,4.4-6.5,6.5
			C978.8,449.3,980.1,450.6,980.9,449.7L980.9,449.7z"/>
	</g>
	<g>
		<path class="st1" d="M985.3,450.9c0.8-1.3,1.7-2.5,2.9-3.4c1-0.7,0-2.3-0.9-1.6c-1.5,1.1-2.6,2.5-3.6,4.1
			C983,451,984.6,451.9,985.3,450.9L985.3,450.9z"/>
	</g>
	<g>
		<path class="st1" d="M985.6,454.4c2-2,4-4,6.1-6.1c0.9-0.9-0.5-2.2-1.3-1.3c-2,2-4,4-6.1,6.1C983.4,453.9,984.7,455.2,985.6,454.4
			L985.6,454.4z"/>
	</g>
	<g>
		<path class="st1" d="M989.6,452.2c1.4-0.9,2.6-1.8,3.6-3.1c0.7-1-0.9-1.9-1.6-0.9c-0.8,1.1-1.8,1.7-2.9,2.5
			C987.7,451.3,988.6,452.9,989.6,452.2L989.6,452.2z"/>
	</g>
	<g>
		<path class="st1" d="M930.4,439.7c0,0.3,0,0.6,0,0.9c0,1.2,1.9,1.2,1.9,0c0-0.3,0-0.6,0-0.9C932.2,438.5,930.4,438.5,930.4,439.7
			L930.4,439.7z"/>
	</g>
	<g>
		<path class="st1" d="M931.8,444.9c0.3,0,0.6,0,0.9,0c1.2,0,1.2-1.9,0-1.9c-0.3,0-0.6,0-0.9,0C930.6,443,930.6,444.9,931.8,444.9
			L931.8,444.9z"/>
	</g>
	<g>
		<path class="st1" d="M934.6,441.1c1.2,0,1.2-1.9,0-1.9S933.4,441.1,934.6,441.1L934.6,441.1z"/>
	</g>
	<g>
		<path class="st1" d="M933.4,435.4c-0.2,0.2-0.3,0.3-0.5,0.5c-0.9,0.9,0.5,2.2,1.3,1.3c0.2-0.2,0.3-0.3,0.5-0.5
			C935.6,435.8,934.3,434.5,933.4,435.4L933.4,435.4z"/>
	</g>
	<g>
		<path class="st1" d="M928.5,435.1c-0.7,0-1.2,0.5-1.4,1.2c-0.2,1.2,1.6,1.7,1.8,0.5c-0.1,0.1-0.3,0.2-0.4,0.2
			C929.7,436.9,929.7,435,928.5,435.1L928.5,435.1z"/>
	</g>
	<g>
		<path class="st1" d="M925.7,441.1c0,0.8,0.2,1.7,1.2,1.8c1.2,0.2,1.7-1.6,0.5-1.8c0.2,0.3,0.3,0.3,0.2,0
			C927.6,439.9,925.7,439.9,925.7,441.1L925.7,441.1z"/>
	</g>
	<g>
		<path class="st1" d="M929.7,446.5c0.7,0.6,1.6,0.7,2.5,0.7c1.2,0,1.2-1.9,0-1.9c-0.4,0-0.9,0.1-1.2-0.2
			C930.1,444.4,928.8,445.7,929.7,446.5L929.7,446.5z"/>
	</g>
	<g>
		<path class="st1" d="M936.7,445.8c0.7-0.1,1.1-0.7,1.2-1.4c0.1-1.2-1.8-1.2-1.9,0c0-0.2,0.1-0.3,0.2-0.4
			C935,444.2,935.5,446,936.7,445.8L936.7,445.8z"/>
	</g>
	<g>
		<path class="st1" d="M937.8,440.7c1.2,0,1.2-1.9,0-1.9S936.6,440.7,937.8,440.7L937.8,440.7z"/>
	</g>
	<g>
		<path class="st1" d="M937.8,440.7c1.2,0,1.2-1.9,0-1.9S936.6,440.7,937.8,440.7L937.8,440.7z"/>
	</g>
	<g>
		<path class="st1" d="M905.7,392.2c0,1.9,0.1,3.5,1.1,5.1c0.4,0.6,1.2,0.6,1.6,0c1.6-2.4,2-5.4,2.4-8.1c-0.6-0.1-1.2-0.2-1.8-0.2
			c0,3.4-0.6,7.1,1.1,10.3c0.4,0.8,1.4,0.5,1.7-0.2c1-2.6,1.4-5.2,1.9-7.9c-0.6-0.1-1.2-0.2-1.8-0.2c0,2.9,0,5.9,1,8.6
			c0.3,0.8,1.6,1,1.8,0c0.5-2.3,1.7-4.2,2.7-6.3c-0.4,0.1-0.9,0.2-1.3,0.3c0.9,0.6,1.4,1.1,2,2c0.6,1,2.2,0.1,1.6-0.9
			c-0.7-1.1-1.5-2-2.7-2.7c-0.4-0.2-1,0.2-1.3,0.7c-1.1,2.2-2.3,3.4-2.9,7.1c0.6,0,1.2,0,1.8,0c-0.9-3.7-0.9-5.8-0.9-8.5
			c0-1-1.7-1.5-1.8-0.4c-0.4,2.7-0.9,5.3-1.9,7.8c0.6-0.1,1.1-0.2,1.7-0.3c-1.4-2.8-0.8-6.3-0.8-9.3c0-1-1.7-1.5-1.8-0.5
			c-0.4,2.6-0.7,5.6-2.2,7.5c0.5,0,1.1,0,1.6,0c-0.8,0-0.8-2.4-0.8-4C907.5,390.8,905.7,391,905.7,392.2L905.7,392.2z"/>
	</g>
	<g>
		<defs>
			<path id="SVGID_1_" d="M924.7,423.4c0.5-0.9,0.8-1.9,0.8-3c0-4-4.3-6.8-7.9-7.3c-3.6-0.5-6.7,1.4-7.2,5.1c-0.3,2.1,0.6,4.6,2,6.3
				C915.6,428.2,922.4,427.4,924.7,423.4z"/>
		</defs>
		<clipPath id="SVGID_2_">
			<use xlink:href="#SVGID_1_"  style="overflow:visible;"/>
		</clipPath>
		<g class="st2">
			<path class="st1" d="M911.9,415c-1.3,1.9-2.3,4-2.9,6.3c-0.2,0.6,0.5,1.4,1.1,1.1c3.9-1.4,5.3-5.3,6.2-9c0.3-1-1.3-1.7-1.7-0.7
				c-2,4.5-3.8,9.3-2.4,14.2c0.2,0.7,1,0.9,1.6,0.4c3.9-3.6,5.8-8.6,7.7-13.5c-0.6-0.2-1.2-0.3-1.8-0.5c-1.5,4.8-3.3,9.4-5.1,14
				c-0.4,1.1,1.1,1.5,1.7,0.7c2.8-3.9,4.7-8.4,7-12.6c-0.6-0.2-1.1-0.5-1.7-0.7c-0.5,3.5-1.7,6.6-3.6,9.6c0.5,0.3,1.1,0.6,1.6,0.9
				c1.5-3.3,3.2-6.5,4.3-10c0.3-0.9-0.9-1.6-1.6-0.9c-2.4,2.4-6.4,7.6-9.9,4.2c-0.7-0.7-1.7,0-1.6,0.9c0.4,2.2,1.7,5.8,4.6,4.1
				c3.1-1.7,5-5.3,7.2-7.9c-0.5-0.1-1-0.3-1.6-0.4c0.7,2.9,0,5.6-0.9,8.4c0.6,0.2,1.2,0.3,1.8,0.5c0.5-2,0.9-4,1.4-6.1
				c0.3-1.2-1.5-1.7-1.8-0.5c-0.5,2.1-1.1,4.1-1.9,6.1c-0.4,1.1,1.4,1.6,1.8,0.5c0.8-2,1.3-4,1.9-6.1c-0.6-0.2-1.2-0.3-1.8-0.5
				c-0.5,2-0.9,4-1.4,6.1c-0.3,1.2,1.4,1.6,1.8,0.5c1-3.1,1.8-6.1,0.9-9.4c-0.2-0.6-1.1-1-1.6-0.4c-1.3,1.6-2.5,3.3-3.9,4.9
				c-0.8,0.9-1.6,1.8-2.6,2.5c-1.7,1.2-2.1-1.7-2.3-2.8c-0.5,0.3-1,0.6-1.6,0.9c4.5,4.4,9.3-0.9,12.5-4.2c-0.5-0.3-1-0.6-1.6-0.9
				c-1,3.3-2.7,6.4-4.1,9.6c-0.5,1.1,0.9,2,1.6,0.9c2-3.1,3.3-6.4,3.8-10c0.1-1-1.2-1.7-1.7-0.7c-2.3,4.2-4.2,8.7-7,12.6
				c0.6,0.2,1.1,0.5,1.7,0.7c1.8-4.6,3.7-9.2,5.1-14c0.4-1.2-1.4-1.6-1.8-0.5c-1.8,4.6-3.6,9.2-7.2,12.6c0.5,0.1,1,0.3,1.6,0.4
				c-1.2-4.4,0.5-8.8,2.2-12.8c-0.6-0.2-1.1-0.5-1.7-0.7c-0.8,3-1.7,6.6-4.9,7.7c0.4,0.4,0.8,0.8,1.1,1.1c0.6-2.1,1.4-4,2.7-5.8
				C914.2,415,912.5,414.1,911.9,415L911.9,415z"/>
		</g>
	</g>
	<g>
		<defs>
			<path id="SVGID_3_" d="M965.1,452.9c0.7-2.6,0.7-5.6-0.7-7.2c-3.9-4.5-15-1.2-14.6,5.2c0,0.3,0.1,0.7,0.2,1c1.2,4.8,9,7.9,13,4.8
				C963.8,455.9,964.6,454.5,965.1,452.9z"/>
		</defs>
		<clipPath id="SVGID_4_">
			<use xlink:href="#SVGID_3_"  style="overflow:visible;"/>
		</clipPath>
		<g class="st3">
			<path class="st1" d="M948.6,446.1c1.4,4.9,2.8,9.7,5.2,14.2c0.5,0.9,1.7,0.4,1.7-0.5c0.3-5.3-1.8-10.1-3.3-15.2
				c-0.6,0.2-1.1,0.5-1.7,0.7c2.9,5.5,4.9,11.7,9.5,16c0.6,0.5,1.6,0.2,1.6-0.7c-0.2-5.8-2.6-11.5-5.7-16.3
				c-0.6-0.9-1.8-0.3-1.7,0.7c0.7,5.1,3.1,9.6,5.2,14.2c0.4,0.9,1.8,0.4,1.7-0.5c-0.2-5.9-1.9-11.4-3.3-17c-0.6,0.2-1.2,0.3-1.8,0.5
				c2.3,5.7,4.2,11.6,6.5,17.3c0.4,0.9,1.9,0.9,1.8-0.2c-0.2-5.3-1.8-10.2-3.3-15.2c-0.6,0.2-1.1,0.5-1.7,0.7
				c2,3.5,3.8,7.1,5.6,10.7c0.5,1.1,2.1,0.1,1.6-0.9c-1.8-3.6-3.6-7.2-5.6-10.7c-0.5-0.9-2-0.3-1.7,0.7c1.5,4.8,3.1,9.6,3.2,14.7
				c0.6-0.1,1.2-0.2,1.8-0.2c-2.3-5.7-4.2-11.6-6.5-17.3c-0.4-1.1-2.1-0.7-1.8,0.5c1.4,5.5,3.1,10.9,3.2,16.5
				c0.6-0.2,1.2-0.3,1.7-0.5c-2-4.5-4.4-8.8-5-13.8c-0.6,0.2-1.1,0.5-1.7,0.7c3,4.6,5.3,9.9,5.5,15.4c0.5-0.2,1.1-0.4,1.6-0.7
				c-4.4-4.2-6.4-10.4-9.2-15.7c-0.5-0.9-2-0.3-1.7,0.7c1.4,4.9,3.5,9.5,3.2,14.7c0.6-0.2,1.2-0.3,1.7-0.5c-2.3-4.4-3.6-9.1-5-13.8
				C950,444.4,948.2,444.9,948.6,446.1L948.6,446.1z"/>
		</g>
	</g>
	<g>
		<defs>
			<path id="SVGID_5_" d="M1018.9,432.3c-0.1-1.4-0.6-2.8-1.5-3.8c-2-2.5-5.3-2.8-8.3-2.8c-3.4,0.1-7.5,1.6-7.4,5.6
				c0.1,2.5,2.5,7.7,4.7,9.2c3.3,2.2,8.2,0.2,10.7-2.3C1018.5,436.8,1019.1,434.5,1018.9,432.3z"/>
		</defs>
		<clipPath id="SVGID_6_">
			<use xlink:href="#SVGID_5_"  style="overflow:visible;"/>
		</clipPath>
		<g class="st4">
			<path class="st1" d="M1003.2,432.3c-0.7,1.5-1.1,3.2-1.9,4.7c0.6,0.2,1.1,0.5,1.7,0.7c1.5-5.1,3.8-9.7,6.4-14.2
				c-0.6-0.2-1.2-0.3-1.7-0.5c0.2,5.8-2.2,11.1-2.8,16.8c-0.1,0.9,1.1,1.2,1.6,0.7c3.5-3.2,6-7.4,7.2-12.1c0.3-1.1-1.1-1.5-1.7-0.7
				c-2.3,3-3.8,6.5-5.6,9.8c0.6,0.2,1.1,0.5,1.7,0.7c0.9-4.3,1.8-8.5,1.9-12.8c0-0.9-1.3-1.2-1.7-0.5c-3,5-3,11.5-1.5,17
				c0.2,0.7,1.1,0.9,1.6,0.4c4.5-4.4,6.2-11.8,6.3-17.9c0-1-1.3-1.2-1.7-0.5c-3,4.7-8.6,18.3,1.7,17.7c1.2-0.1,1.2-1.9,0-1.9
				c-8.2,0.5-2.4-11.4-0.1-14.9c-0.6-0.2-1.2-0.3-1.7-0.5c-0.1,5.5-1.7,12.6-5.8,16.6c0.5,0.1,1,0.3,1.6,0.4c-1.4-5-1.4-11,1.3-15.6
				c-0.6-0.2-1.2-0.3-1.7-0.5c-0.1,4.2-0.9,8.3-1.8,12.3c-0.2,1,1.2,1.7,1.7,0.7c1.8-3.3,3.3-6.8,5.6-9.8c-0.6-0.2-1.1-0.5-1.7-0.7
				c-1.1,4.4-3.4,8.2-6.8,11.2c0.5,0.2,1.1,0.4,1.6,0.7c0.6-5.7,3-11,2.8-16.8c0-0.9-1.3-1.3-1.7-0.5c-2.8,4.7-5.1,9.5-6.6,14.7
				c-0.3,1,1.2,1.7,1.7,0.7c0.8-1.5,1.2-3.1,1.9-4.7C1005.3,432.1,1003.7,431.2,1003.2,432.3L1003.2,432.3z"/>
		</g>
	</g>
	<g>
		<defs>
			<path id="SVGID_7_" d="M1023.8,407c-0.1-0.6-0.3-1.2-0.6-1.8c-2.8-6.8-13.4-3.2-12.4,3.8c0.6,4.1,5.4,6.2,9.1,5.4
				C1023.8,413.5,1024.6,410.2,1023.8,407z"/>
		</defs>
		<clipPath id="SVGID_8_">
			<use xlink:href="#SVGID_7_"  style="overflow:visible;"/>
		</clipPath>
		<g class="st5">
			<path class="st1" d="M1008.5,402.6c3.8,4.7,7.8,9.3,10.6,14.7c0.6,1.1,2.2,0.1,1.6-0.9c-2.9-5.6-7-10.3-10.9-15.1
				C1009.1,400.4,1007.8,401.7,1008.5,402.6L1008.5,402.6z"/>
		</g>
		<g class="st5">
			<path class="st1" d="M1013.6,405c2.4,2.9,4.2,6.1,6.4,9.1c0.7,1,2.3,0,1.6-0.9c-2.2-3.2-4.2-6.5-6.7-9.5
				C1014.2,402.7,1012.9,404,1013.6,405L1013.6,405z"/>
		</g>
		<g class="st5">
			<path class="st1" d="M1013.6,400c2.7,3.8,5.9,7.2,8.6,11c0.7,1,2.3,0,1.6-0.9c-2.7-3.8-5.9-7.2-8.6-11
				C1014.5,398.1,1012.9,399,1013.6,400L1013.6,400z"/>
		</g>
		<g class="st5">
			<path class="st1" d="M1016,401.2c2.4,2.4,4.5,5,6.4,7.7c0.7,1,2.3,0.1,1.6-0.9c-2-2.9-4.2-5.6-6.7-8.1
				C1016.4,399.1,1015.1,400.4,1016,401.2L1016,401.2z"/>
		</g>
	</g>
	<g>
		<path class="st1" d="M925.5,423.8c4.3-8.8-10.4-16.6-15.3-8.3c-2.3,4,0.2,9.5,4,11.4C918.1,429,923.2,427.4,925.5,423.8
			c0.7-1-1-1.9-1.6-0.9c-4.1,6.2-13.8,2-12.5-5.3c1.4-7.7,16.2-2.4,12.5,5.3C923.4,424,925,424.9,925.5,423.8z"/>
	</g>
	<g>
		<path class="st1" d="M966,453.2c1.2-4.8,0-9.4-5.3-10.3c-4.1-0.7-9,1.2-11.1,4.8c-2.4,4.2,1.3,8.5,5,10.2
			C959.6,460.2,964.3,458.3,966,453.2c0.4-1.1-1.4-1.6-1.8-0.5c-3.1,9.4-17.6,1.2-12.1-5.2c1.7-2,4.6-2.8,7.2-2.8c4.8-0.1,6,4,5,8.1
			C963.9,453.8,965.7,454.3,966,453.2z"/>
	</g>
	<g>
		<path class="st1" d="M1019.8,432.1c-1-6.2-6.7-7.8-12.3-7.1c-4.3,0.5-7.4,3.6-6.5,8c0.9,4.5,3.9,9.2,8.8,9.5
			c5.7,0.3,10.3-4.7,10-10.2c0-1.2-1.9-1.2-1.9,0c0.2,4.5-2.6,7-6.6,8.1c-4.5,1.2-6.7-2.9-8.1-6.4c-1.6-4.2,0.9-6.8,5-7.3
			c4.4-0.5,8.9,0.9,9.7,5.8C1018.2,433.8,1020,433.2,1019.8,432.1z"/>
	</g>
	<g>
		<path class="st1" d="M1024.7,406.7c-1.1-3.8-3.8-6.8-8.1-6c-3.6,0.7-6.4,3.4-6.7,7.1c-0.4,4.6,4.2,7.4,8.3,7.6
			C1023.4,415.8,1025.6,411.3,1024.7,406.7c-0.2-1.2-2-0.7-1.8,0.5c0.8,4.1-1.6,6.9-5.8,6.3c-3.2-0.5-5.9-3.1-5.3-6.5
			c0.4-2.4,2.6-3.9,4.8-4.4c3.4-0.9,5.5,1.6,6.3,4.6C1023.2,408.4,1025,407.9,1024.7,406.7z"/>
	</g>
	<g>
		<path class="st1" d="M1001.4,374.8c-2.6,1-5,2.4-7.4,3.8c-1,0.6-0.1,2.2,0.9,1.6c2.2-1.3,4.5-2.7,6.9-3.6
			C1003,376.2,1002.5,374.4,1001.4,374.8L1001.4,374.8z"/>
	</g>
	<g>
		<path class="st1" d="M1007.7,375.7c-2.1,1.8-4.7,2.6-7.2,3.8c-1.1,0.5-0.1,2.1,0.9,1.6c2.6-1.3,5.3-2.2,7.5-4.1
			C1009.9,376.3,1008.6,374.9,1007.7,375.7L1007.7,375.7z"/>
	</g>
	<g>
		<path class="st1" d="M1012.5,377.1c-1.1,1-2.5,1.6-3.7,2.4c-1,0.6-0.1,2.3,0.9,1.6c1.4-0.9,2.9-1.5,4.1-2.7
			C1014.7,377.6,1013.4,376.3,1012.5,377.1L1012.5,377.1z"/>
	</g>
	<g>
		<path class="st1" d="M1018.9,380.2c-1.2,0.7-2.5,1.4-3.7,2.1c-1,0.6-0.1,2.2,0.9,1.6c1.2-0.7,2.5-1.4,3.7-2.1
			C1020.9,381.2,1019.9,379.6,1018.9,380.2L1018.9,380.2z"/>
	</g>
	<g>
		<path class="st1" d="M900.6,376.8c14.7-16,38.1-11.2,55.4-2.7c10.2,5,22.1,6.8,33.3,7.6c7.1,0.5,14.1,0.8,20.9,2.8
			c7.7,2.2,12.2,6.8,16.2,13.4c0.6,1,2.2,0.1,1.6-0.9c-2.8-4.7-5.9-8.8-10.7-11.6c-5.5-3.1-12.1-4.1-18.2-4.8
			c-15.5-1.6-30.9-2-45-9.5c-16.7-8.9-41.1-10.5-54.8,4.5C898.4,376.3,899.8,377.7,900.6,376.8L900.6,376.8z"/>
	</g>
	<g>
		<path class="st1" d="M1028.5,404.2c0,0.7,0.3,1.1,0.9,1.5c1,0.6,2-1,0.9-1.6c0,0,0,0.1,0,0.1C1030.4,403,1028.5,403,1028.5,404.2
			L1028.5,404.2z"/>
	</g>
	<g>
		<path class="st1" d="M1030.4,410.2c0.4,5.7-0.1,11.2-1.6,16.8c-0.3,1.2,1.5,1.7,1.8,0.5c1.5-5.7,2-11.4,1.6-17.3
			C1032.2,409,1030.3,409,1030.4,410.2L1030.4,410.2z"/>
	</g>
	<g>
		<path class="st1" d="M941,397.1c-0.3-4.8,2.2-8.6,6.2-11.1c4.9-3,10.7-1.6,15.2,1.4c1,0.7,1.9-0.9,0.9-1.6
			c-5.4-3.6-11.2-4.4-17-1.4c-4.7,2.4-7.5,7.5-7.1,12.7C939.2,398.3,941,398.3,941,397.1L941,397.1z"/>
	</g>
	<g>
		<path class="st1" d="M940.3,384.7c0.2,1.3,0.2,2.6,0,3.9c-0.2,1.2,1.6,1.7,1.8,0.5c0.2-1.6,0.2-3.2,0-4.9
			C941.9,383,940.1,383.5,940.3,384.7L940.3,384.7z"/>
	</g>
	<g>
		<path class="st1" d="M944.8,382.4c0,0.9,0,1.8,0,2.8c0,1.2,1.9,1.2,1.9,0c0-0.9,0-1.8,0-2.8C946.7,381.2,944.8,381.2,944.8,382.4
			L944.8,382.4z"/>
	</g>
	<g>
		<path class="st1" d="M949.9,381.5c0.1,0.5,0.2,0.9,0.2,1.4c0,1.2,1.9,1.2,1.9,0c0-0.6-0.1-1.2-0.3-1.9
			C951.4,379.8,949.6,380.3,949.9,381.5L949.9,381.5z"/>
	</g>
</g>
<g class="st0">
	<g>
		<path class="st1" d="M276.8,53.9c9.4-26.6,44.4-29.1,66.6-18.4c11.8,5.7,16.7,16.3,20.2,28.3c0.6,2.1,0.9,8,3.3,8.7
			c3.1,1,7,0.3,10.2,0.6c8.2,0.8,5.6,18.3,5.1,23.9c-0.7,6.7-5.9,6.3-11.3,6.1c-7.3-0.3-14.7,0.1-22,0.1
			c-15.1-0.1-30.2-0.1-45.4,0.2c-7.4,0.1-14.7,0.2-22.1,0.2c-3.7,0-7.3-0.1-11-0.2c-1.8,0-3.7-0.1-5.5-0.2c-1.3-0.1-2.8,0.9-2.8-0.2
			c-0.3-5.8-0.2-11.6-0.4-17.3c-0.1-2.9-1.1-8,1.2-10.4c2.1-2.2,7.6-2,10.3-2.5c0.4-0.1,0.7-0.5,0.7-0.9
			C274.3,65.8,275,59.7,276.8,53.9c0.4-1.1-1.4-1.6-1.8-0.5c-1.2,3.9-2,7.9-2.5,12c-0.1,0.8,0.1,5.7-1,5.9c-1.7,0.3-3.3,0.5-5,0.8
			c-3.5,0.6-6,2-6.6,5.7c-0.7,4.5,0,9.4,0,13.9c0,2.7,0.1,5.5,0.2,8.2c0,1.3-0.2,3.2,0.2,4.4c0.2,0.4,0.4,0.7,0.9,0.7
			c30.3,1.6,60.8,0.1,91.1,0.2c6.5,0,13.1-0.3,19.6,0c3.6,0.1,7.5,0.5,10.3-2.1c1.8-1.7,1.7-5.2,1.9-7.5c0.4-4.5,0.5-9.1,0.1-13.6
			c-0.3-2.8-0.7-6.2-2.5-8.4c-1.8-2.3-4.7-2.2-7.5-2.3c-1.8-0.1-3.6-0.1-5.5-0.2c-2.3-0.1-2.1-2.9-2.7-5c-1.4-5.1-3-10.2-5.2-15.1
			c-9.7-21.2-37.6-26.3-58.3-21.3c-13,3.2-23.2,11.2-27.6,23.9C274.6,54.5,276.4,55,276.8,53.9z"/>
		<path class="st1" d="M296.7,74c14.9,0,30.6,0,45.8,0c0.5,0,1.1-0.4,1.1-0.9c0.5-11.9-6.9-22.2-18.8-23.8c-5-0.7-11.9-0.4-16.7,1.7
			c-8.6,3.6-11.1,13.8-11.6,22.2c-0.1,1.2,1.8,1.2,1.9,0c0.5-8.2,3-17.7,11.5-20.9c4.5-1.7,11-1.6,15.5-1
			c10.7,1.5,17,11.6,16.5,21.9c0.3-0.3,0.3-0.6,0.6-0.9c-15.2,0-30.8,0-45.8,0V74z"/>
	</g>
	<g>
		<path class="st1" d="M272.4,91.1c-0.5,3.5-0.3,7.1,0.5,10.5c0.3,1.2,2.1,0.7,1.8-0.5c-0.7-3-1-6.4-0.5-9.5
			C274.4,90.4,272.6,89.9,272.4,91.1L272.4,91.1z"/>
	</g>
	<g>
		<path class="st1" d="M282.9,90.6c0.5,4.2,0.5,7.3,0.5,12.9h1.9c0-5.6,0-8.6-0.5-12.8C284.6,89.5,282.8,89.4,282.9,90.6L282.9,90.6
			z"/>
	</g>
	<g>
		<path class="st1" d="M298.6,105.3c0,0,0-7.5,0-11.2h-1.9c0,3.7,0,7.5,0,11.2H298.6L298.6,105.3z"/>
	</g>
	<g>
		<path class="st1" d="M311.1,103.7c-1.3-3.2,0-7.8,0.5-11.1c0.2-1.2-1.6-1.7-1.8-0.5c-0.5,3.6-2,8.5-0.5,12.1
			C309.7,105.3,311.5,104.8,311.1,103.7L311.1,103.7z"/>
	</g>
	<g>
		<path class="st1" d="M324.8,105.3c0,0,0-8.2,0.5-12c0.2-1.2-1.7-1-1.9,0.2c-0.5,3.8-0.5,6.2-0.5,11.8H324.8L324.8,105.3z"/>
	</g>
	<g>
		<path class="st1" d="M336.3,104.2c0.6-3,1.1-6,1.6-8.9c0.2-1.2-1.6-1.7-1.8-0.5c-0.5,3-1,6-1.6,8.9
			C334.3,104.9,336.1,105.4,336.3,104.2L336.3,104.2z"/>
	</g>
	<g>
		<path class="st1" d="M351.1,103.5c0,0,0.1-7,0.5-10.5c0.2-1.2-1.7-1.2-1.9,0c-0.5,3.5-0.5,6.8-0.5,10.5
			C349.2,105.3,351.1,105.3,351.1,103.5C351.1,103.5,351.1,105.3,351.1,103.5z"/>
	</g>
	<g>
		<path class="st1" d="M365.3,103.6c-0.5-3.2-0.5-7.5-0.5-9.4c0-1.9-1.9-1.9-1.9,0c0,1.9,0,6.7,0.6,10.1
			C363.7,105.4,365.5,104.7,365.3,103.6L365.3,103.6z"/>
	</g>
	<g>
		<path class="st1" d="M372.7,103.5c0,0,0-5.3,1-7.9c0.4-1.1-1.4-1.7-1.8-0.6c-1,2.8-1.1,6.7-1.1,8.5
			C370.8,105.3,372.7,105.3,372.7,103.5C372.7,103.5,372.7,105.3,372.7,103.5z"/>
	</g>
</g>
<g class="st0">
	<g>
		<path class="st1" d="M443.1,568.2c6.6-1.2,14.7,2.2,20.8,4.3c8.3,2.8,16.5,6,24.6,9.5c5.9,2.6,14.4,5.2,15.9,12.2
			c1.2,5.6-0.9,12-2.4,17.4c-4.2,15.3-9.6,30.4-15.1,45.3c-2.2,6-4.5,12.1-7.1,18c-1.9,4.4-4.9,8.4-10.6,7.4
			c-17.6-3.3-36.3-9.6-51.5-19.2c-3-1.9-11.3-7.1-9.7-11.8c1.1-3.3,2.3-6.5,3.4-9.8c4.8-13.6,9.8-27.1,15.2-40.5
			c2.7-6.8,5.5-13.6,8.6-20.2c1.9-4,3.7-8.5,6.7-11.8C442.4,568.6,442.7,568.3,443.1,568.2c1.2-0.3,0.7-2.1-0.5-1.8
			c-2.5,0.7-4.2,4.4-5.4,6.5c-3,5.3-5.4,10.9-7.8,16.5c-5.9,13.8-11.1,27.9-16.3,42c-1.9,5.1-3.7,10.3-5.5,15.4
			c-0.8,2.2-1.8,4.2-1.5,6.5c0.8,5.4,7.3,9.4,11.4,11.9c7.6,4.8,16.2,8.2,24.6,11.3c8.4,3.1,17,5.6,25.7,7.4
			c4.3,0.9,9.1-0.2,11.6-4.3c2.2-3.6,3.6-7.9,5.2-11.9c2.8-7.1,5.4-14.2,7.9-21.4c4.9-13.7,10-27.7,13-42c1.1-5.3,1.6-11.5-2.1-15.9
			c-3.6-4.3-10.8-6.6-15.8-8.7c-8.3-3.6-16.8-6.9-25.4-9.7c-6-1.9-13.4-4.7-19.8-3.6C441.4,566.6,441.9,568.4,443.1,568.2z"/>
	</g>
	<g>
		<path class="st1" d="M471.5,683.9c6.3-14.5,12.2-29.4,16.9-44.5c5.2-16.7,12.8-33.5,14.9-51c0.1-1.2-1.7-1.2-1.9,0
			c-2,17.3-9.8,33.9-14.8,50.5c-4.6,15-10.5,29.7-16.7,44C469.4,684,471,685,471.5,683.9L471.5,683.9z"/>
	</g>
	<g>
		<path class="st1" d="M458.4,575.9c-3.2-0.9-6.4-1.3-9.6-2c-1.4-0.3-3-1-4.5-0.8c-3.2,0.6-4.1,4.4-5.2,7c-1.5,3.6-6.3,12.8-2,16
			c4.5,3.4,10.4,5.4,15.6,7.4c7.3,2.8,14.7,5.2,22.2,7.1c2.4,0.6,9.4,3.1,11.7,1c4-3.6,6.4-11.9,7.2-17c0.9-5.5-7.4-8.9-11.3-10.6
			C474.8,580.5,466.5,578.4,458.4,575.9c-1.2-0.4-1.6,1.4-0.5,1.8c5.8,1.8,11.7,3.5,17.5,5.5c3.5,1.2,6.9,2.7,10.1,4.4
			c2,1,6.3,3.2,6.6,5.8c0.5,4.8-3.4,11.7-5.7,15.6c-1.8,3-7.5,0.7-10.1,0.1c-11.1-2.6-22.2-6.5-32.6-11.3c-1.7-0.8-3.4-1.7-4.9-2.7
			c-2.3-1.5-1.2-4-0.6-6.3c1-3.8,2.4-7.5,4.1-11.1c2.1-4.6,12-1,15.7,0C459.1,578,459.5,576.2,458.4,575.9z"/>
	</g>
	<g>
		<path class="st1" d="M466.3,599.9c3,6.4,10.1-1.3,9.2-5.9c-0.6-3.1-3.5-5.5-6.5-3.4c-2.6,1.9-3.9,6-2.8,9.1
			c0.4,1.1,2.2,0.6,1.8-0.5c-0.8-2.1-0.1-4.5,1.3-6.2c0.8-1,2-1.8,3.1-0.9c0.9,0.7,1.3,1.9,1.3,3c0,1.6-1.2,3.3-2.2,4.4
			c-1.4,1.5-2.7,1.5-3.6-0.4C467.4,597.8,465.8,598.8,466.3,599.9z"/>
	</g>
	<g>
		<path class="st1" d="M478.7,595.6c1.7-0.1,3.4-0.5,5,0c-0.2-0.4-0.4-0.8-0.7-1.1c-0.7,3.8-4.2,6.3-6.6,9.1
			c-0.5,0.6-0.2,1.6,0.7,1.6c2.3,0.1,4.5,0.9,6.8,1.1c1.2,0.1,1.2-1.8,0-1.9c-2.3-0.2-4.5-1-6.8-1.1c0.2,0.5,0.4,1.1,0.7,1.6
			c2.6-3,6.3-5.7,7.1-9.9c0.1-0.5-0.1-1-0.7-1.1c-1.8-0.5-3.6-0.1-5.5,0C477.5,593.8,477.5,595.6,478.7,595.6L478.7,595.6z"/>
	</g>
	<g>
		<path class="st1" d="M481.5,619.3c-1.1,6.8-3.4,13.4-5.5,19.9c-2.5,7.7-5.1,15.6-9,22.8c-1,1.9-1.8,3.6-4.1,3.4
			c-3.2-0.3-6.5-1.6-9.5-2.6c-8.4-2.9-16.5-6.4-24.6-10.1c-2.9-1.3-5.8-2.6-8.6-4c-1.8-0.9-1.7-0.7-1.4-2.7c0.4-2.5,1.1-5,1.8-7.4
			c2.9-10.5,7.1-20.8,11.8-30.6c0.5-0.9,2.3-3.6,1.3-3.9c0.4,0.1,0.8,0.3,1.2,0.4c2.2,0.7,4.3,1.5,6.5,2.2
			c6.8,2.3,13.6,4.6,20.4,6.9c6.8,2.3,13.5,4.6,20.3,6.9c1.1,0.4,1.6-1.4,0.5-1.8c-16.1-5.5-32.3-11-48.4-16.5
			c-0.4-0.1-0.9,0.1-1.1,0.4c-3.8,7-6.9,14.5-9.7,21.9c-2.9,7.7-5.7,15.6-6.7,23.8c0,0.3,0.2,0.7,0.5,0.8c7.9,4.1,16.2,7.6,24.4,11
			c4.9,2,9.8,3.9,14.8,5.5c2.6,0.8,5.9,2.1,8.7,1.5c2.1-0.5,3.5-3.9,4.3-5.4c2.3-4.4,4-9.2,5.7-13.9c3.3-9,6.7-18.5,8.2-28
			C483.4,618.6,481.6,618.1,481.5,619.3z"/>
	</g>
	<g>
		<path class="st1" d="M426.4,652.4c5.5-15.4,10.6-31.1,16.8-46.2c0.5-1.1-1.3-1.6-1.8-0.5c-6.3,15.2-11.3,30.8-16.8,46.2
			C424.2,653,426,653.5,426.4,652.4L426.4,652.4z"/>
	</g>
	<g>
		<path class="st1" d="M435.9,656.6c5.4-15.7,10.9-31.5,18.1-46.6c0.5-1.1-1.1-2-1.6-0.9c-7.2,15.2-12.7,31.1-18.2,47
			C433.7,657.3,435.5,657.8,435.9,656.6L435.9,656.6z"/>
	</g>
	<g>
		<path class="st1" d="M447,661.2c4.7-16.2,12-31.6,16.9-47.7c0.4-1.2-1.4-1.6-1.8-0.5c-4.9,16.1-12.3,31.5-16.9,47.7
			C444.8,661.9,446.6,662.4,447,661.2L447,661.2z"/>
	</g>
	<g>
		<path class="st1" d="M455.9,663.8c5.1-15.7,11.6-30.8,17.3-46.3c0.4-1.1-1.4-1.6-1.8-0.5c-5.7,15.5-12.2,30.6-17.3,46.3
			C453.7,664.5,455.5,665,455.9,663.8L455.9,663.8z"/>
	</g>
	<g>
		<path class="st1" d="M429.1,613.3c16.6,5.3,34.2,9.5,49.9,17.4c1.1,0.5,2-1.1,0.9-1.6c-15.8-7.9-33.5-12.2-50.3-17.6
			C428.5,611.1,428,612.9,429.1,613.3L429.1,613.3z"/>
	</g>
	<g>
		<path class="st1" d="M425.3,624.3c16.9,4.7,33.9,9.8,50,16.9c1.1,0.5,2-1.1,0.9-1.6c-16.2-7.1-33.3-12.4-50.4-17.1
			C424.6,622.1,424.1,623.9,425.3,624.3L425.3,624.3z"/>
	</g>
	<g>
		<path class="st1" d="M421.5,632.9c9.5,1.8,18.8,5.1,28,8.1c7.9,2.6,15.9,5.2,23.7,8.2c1.1,0.4,1.6-1.4,0.5-1.8
			c-7.5-2.8-15.1-5.3-22.6-7.8c-9.5-3.2-19.2-6.6-29.1-8.5C420.8,630.9,420.3,632.7,421.5,632.9L421.5,632.9z"/>
	</g>
	<g>
		<path class="st1" d="M418.7,640.7c16.3,7.7,34,11.5,50.4,18.9c1.1,0.5,2-1.1,0.9-1.6c-16.4-7.5-34.1-11.2-50.4-18.9
			C418.6,638.6,417.6,640.2,418.7,640.7L418.7,640.7z"/>
	</g>
	<g>
		<path class="st1" d="M477.3,665.6c0.7,1.4,1.7,2.7,2.8,3.9c0.8,0.9,2.2-0.5,1.3-1.3c-1-1-1.8-2.2-2.5-3.5
			C478.4,663.6,476.8,664.6,477.3,665.6L477.3,665.6z"/>
	</g>
	<g>
		<path class="st1" d="M480,661.4c1.1,1.7,2,3.5,3.2,5.3c0.7,1,2.3,0.1,1.6-0.9c-1.1-1.7-2-3.6-3.2-5.3
			C480.9,659.5,479.3,660.4,480,661.4L480,661.4z"/>
	</g>
	<g>
		<path class="st1" d="M481.7,657.4c0.8,0.8,1.8,1.7,2.3,2.8c0.1,0.1,0-0.1,0.1,0.2c0.1,0.2,0.1,0.3,0.2,0.5
			c0.1,0.3,0.4,0.6,0.6,0.8c0.8,0.9,2.2-0.5,1.3-1.3c-0.2-0.2-0.2-0.2-0.4-0.6c0.1,0.2,0-0.1-0.1-0.1c-0.1-0.2-0.2-0.4-0.3-0.6
			c-0.6-1.1-1.6-2.1-2.5-3C482.1,655.3,480.8,656.6,481.7,657.4L481.7,657.4z"/>
	</g>
	<g>
		<path class="st1" d="M483.1,650.9c1.5,2,2.6,4.3,3.6,6.6c0.4,1.1,2.2,0.6,1.8-0.5c-1-2.5-2.2-4.9-3.8-7.1
			C484,649,482.4,649.9,483.1,650.9L483.1,650.9z"/>
	</g>
	<g>
		<path class="st1" d="M485.7,645.2c1.1,1.8,2.2,3.5,3.5,5.2c0.7,0.9,2.3,0,1.6-0.9c-1.3-1.7-2.4-3.4-3.5-5.2
			C486.7,643.2,485.1,644.1,485.7,645.2L485.7,645.2z"/>
	</g>
	<g>
		<path class="st1" d="M487.3,637.5c1.5,2.2,2.9,4.6,4.5,6.7c0.7,1,2.3,0,1.6-0.9c-1.6-2.2-3-4.5-4.5-6.7
			C488.3,635.5,486.7,636.5,487.3,637.5L487.3,637.5z"/>
	</g>
	<g>
		<path class="st1" d="M490.5,630c1.3,2.5,2.3,5.1,3.7,7.5c0.6,1,2.2,0.1,1.6-0.9c-1.4-2.4-2.4-5-3.7-7.5
			C491.5,628,489.9,628.9,490.5,630L490.5,630z"/>
	</g>
	<g>
		<path class="st1" d="M492.6,623c1.6,2.3,2.6,5,4,7.4c0.6,1,2.2,0.1,1.6-0.9c-1.4-2.4-2.3-5.1-4-7.4
			C493.5,621.1,491.9,622,492.6,623L492.6,623z"/>
	</g>
	<g>
		<path class="st1" d="M495.8,614.8c1.3,2.6,2.2,5.3,3.1,8c0.4,1.1,2.2,0.6,1.8-0.5c-1-2.9-1.9-5.7-3.3-8.4
			C496.9,612.8,495.3,613.7,495.8,614.8L495.8,614.8z"/>
	</g>
	<g>
		<path class="st1" d="M496.9,608.5c1.3,2.6,2.8,5.1,4.1,7.6c0.5,1.1,2.2,0.1,1.6-0.9c-1.3-2.6-2.8-5.1-4.1-7.6
			C498,606.5,496.4,607.5,496.9,608.5L496.9,608.5z"/>
	</g>
	<g>
		<path class="st1" d="M499.6,600.7c1,2.9,2,5.6,3.4,8.3c0.5,1.1,2.1,0.1,1.6-0.9c-1.3-2.6-2.3-5.2-3.2-7.9
			C501.1,599.1,499.3,599.6,499.6,600.7L499.6,600.7z"/>
	</g>
	<g>
		<path class="st1" d="M500.6,594.9c1.4,2.8,2.4,5.8,3.7,8.7c0.5,1.1,2.1,0.1,1.6-0.9c-1.4-2.8-2.4-5.8-3.7-8.7
			C501.7,592.9,500.1,593.8,500.6,594.9L500.6,594.9z"/>
	</g>
</g>
<g class="st0">
	<g>
		<path class="st1" d="M521.9,79.5c7.2-2.2,15.9-1.3,23.3-0.7c4.2,0.4,8.5,1,12.6,2.5c2.6,0.9,2.8,1.7,2.6,4.4
			c0,0.1,0.7-0.1-0.1,0.2c-0.4,0.1-0.7,0.3-1.1,0.5c-10.6,4.8-20.5,11.7-30.4,17.8c-14.4,8.9-28.8,17.9-43.3,26.6
			c-9.5,5.7-19.7,13.1-30.4,16.3c-6.8,2-16-0.1-22.7-1.3c-4-0.7-8-1.6-11.9-2.9c-1.5-0.5-2.9-1.1-4.3-2c-0.6-0.4-1.5-6.6-1.5-6.6
			c6.1-3.1,12.2-6.2,18.4-9.4c25.2-12.8,50.4-25.7,75.5-38.5c4.5-2.3,9-4.6,13.5-6.9c1.1-0.5,0.1-2.2-0.9-1.6
			c-18.7,9.5-37.5,19.1-56.2,28.6c-12.4,6.3-24.8,12.6-37.1,18.9c-3.7,1.9-7.5,3.8-11.2,5.7c-2.5,1.3-3.5,1.3-3.5,4.4
			c0,2.1,0.3,5.6,2.1,6.9c2.6,1.9,6.2,2.7,9.2,3.5c8.1,2.1,16.8,3.3,25.2,3.5c9.6,0.2,18.6-6.5,26.6-11.1
			c26.6-15.3,51.9-32.7,78.6-47.6c2.1-1.2,4.2-2.4,6.5-3.2c0.4-0.1,0.7-0.5,0.7-0.9c0.3-3.8,0.8-5.2-3.2-6.8
			c-4.1-1.6-8.4-2.2-12.7-2.7c-7.8-0.9-17.3-1.6-24.9,0.6C520.3,78.1,520.7,79.9,521.9,79.5z"/>
	</g>
	<g>
		<path class="st1" d="M415.1,134.8c12.5,3.3,24.8,7.7,38,7.4c-0.3-0.3-1.1-0.6-1.1-0.9c0,2.3,0,5,0,6.9c0,1.9,1.9,1.9,1.9,0
			c0-1.9,0-4.5,0-6.9c0-0.5-0.2-0.9-0.8-0.9c-13,0.3-25.2-4.1-37.6-7.3C414.3,132.7,413.9,134.5,415.1,134.8L415.1,134.8z"/>
	</g>
	<g>
		<path class="st1" d="M453.5,142.2c19.6-6.5,37.1-17.5,54.6-28.2c17-10.3,32-24.5,51.2-30.8c1.1-0.4,0.7-2.2-0.5-1.8
			c-17.7,5.8-32.5,18.2-47.8,28.5c-17.8,12.1-37.5,23.7-58,30.5C451.8,140.8,452.3,142.6,453.5,142.2L453.5,142.2z"/>
	</g>
	<g>
		<path class="st1" d="M416.8,137.2c2.3,2.8,4.6,5.6,7.4,7.9c0.9,0.8,2.2-0.6,1.3-1.3c-2.8-2.3-5.1-5.1-7.4-7.9
			C417.3,134.9,416,136.3,416.8,137.2L416.8,137.2z"/>
	</g>
	<g>
		<path class="st1" d="M422.6,138.8c2.2,2.7,4.7,5.2,7.4,7.4c0.9,0.7,2.3-0.6,1.3-1.3c-2.7-2.2-5.2-4.7-7.4-7.4
			C423.1,136.5,421.8,137.9,422.6,138.8L422.6,138.8z"/>
	</g>
	<g>
		<path class="st1" d="M429.1,141.6c1.8,1.2,3.5,2.5,5.1,4.1c0.9,0.8,2.2-0.5,1.3-1.3c-1.7-1.6-3.5-3.1-5.5-4.4
			C429,139.3,428.1,140.9,429.1,141.6L429.1,141.6z"/>
	</g>
	<g>
		<path class="st1" d="M434.2,141.4c2.2,2.2,4.9,3.8,7.6,5.4c1,0.6,2-1,0.9-1.6c-2.5-1.5-5.1-3-7.2-5.1
			C434.6,139.3,433.3,140.6,434.2,141.4L434.2,141.4z"/>
	</g>
	<g>
		<path class="st1" d="M441.9,143.2c1.4,0.5,2.7,1.3,4,2c1.1,0.5,2-1.1,0.9-1.6c-1.5-0.8-2.9-1.6-4.4-2.2
			C441.3,141,440.8,142.8,441.9,143.2L441.9,143.2z"/>
	</g>
	<g>
		<path class="st1" d="M447.7,131.7c5.4,2,11.4,3,17.1,3.7c1.2,0.1,1.2-1.7,0-1.9c-5.5-0.7-11.4-1.7-16.6-3.6
			C447.1,129.4,446.6,131.2,447.7,131.7L447.7,131.7z"/>
	</g>
	<g>
		<path class="st1" d="M462.2,124.7c5.4,2.5,11.9,4.1,17.8,4.9c1.2,0.2,1.2-1.7,0-1.9c-5.6-0.7-11.8-2.2-16.9-4.6
			C462.1,122.6,461.1,124.2,462.2,124.7L462.2,124.7z"/>
	</g>
	<g>
		<path class="st1" d="M472.7,119.3c5.7,1.8,12.2,2.6,18.1,2.7c1.2,0,1.2-1.8,0-1.9c-5.8-0.1-12.1-0.9-17.6-2.6
			C472,117.1,471.6,118.9,472.7,119.3L472.7,119.3z"/>
	</g>
	<g>
		<path class="st1" d="M485.3,114.8c6.1,0.5,12.3,1,18.4,1.1c1.2,0,1.2-1.9,0-1.9c-6.2,0-12.3-0.5-18.4-1.1
			C484.1,112.9,484.1,114.7,485.3,114.8L485.3,114.8z"/>
	</g>
	<g>
		<path class="st1" d="M500.5,105.6c1.1,1.3,4.2,1.2,5.7,1.3c3.4,0.3,6.8,0.5,10.2,0.5c1.2,0,1.2-1.9,0-1.9c-2.5,0-4.9-0.1-7.4-0.3
			c-1.5-0.1-6.2,0.2-7.2-1C501,103.4,499.7,104.7,500.5,105.6L500.5,105.6z"/>
	</g>
	<g>
		<path class="st1" d="M511.1,96.6c4.7,1.1,9.5,1.6,14.2,2.6c1.2,0.3,1.7-1.5,0.5-1.8c-4.7-1-9.5-1.5-14.2-2.6
			C510.4,94.6,509.9,96.3,511.1,96.6L511.1,96.6z"/>
	</g>
	<g>
		<path class="st1" d="M526.1,89c4.7,2,9.8,2.6,14.7,3.7c1.2,0.3,1.7-1.5,0.5-1.8c-5-1.1-10-1.7-14.7-3.7
			C525.5,86.8,525.1,88.6,526.1,89L526.1,89z"/>
	</g>
	<g>
		<path class="st1" d="M538.5,83.8c4.3,0.6,8.8,0.5,12.9,2.1c1.1,0.4,1.6-1.4,0.5-1.8c-4.3-1.7-8.9-1.6-13.4-2.1
			C537.3,81.8,537.3,83.6,538.5,83.8L538.5,83.8z"/>
	</g>
</g>
<g class="st0">
	<g>
		<path class="st1" d="M61.9,525.5c5.8,2.7,12.1,3.9,18.1,5.9c1.1,0.4,1.6-1.4,0.5-1.8c-5.9-2-12-3.1-17.7-5.8
			C61.8,523.4,60.8,525,61.9,525.5L61.9,525.5z"/>
	</g>
	<g>
		<path class="st1" d="M57.5,546.1c6,0.1,11.9,0.9,17.9,1.3c1.2,0.1,1.2-1.8,0-1.9c-6-0.4-11.9-1.2-17.9-1.3
			C56.3,544.3,56.3,546.1,57.5,546.1L57.5,546.1z"/>
	</g>
	<g>
		<path class="st1" d="M64.6,565.6c3.6-1.3,7.4-1.9,11.1-2.9c1.2-0.3,0.7-2.1-0.5-1.8c-3.7,1-7.4,1.7-11.1,2.9
			C63,564.2,63.5,566,64.6,565.6L64.6,565.6z"/>
	</g>
	<g>
		<path class="st1" d="M121.7,532.7c4.5-2.3,9-4.5,13.7-6.5c1.1-0.5,0.2-2.1-0.9-1.6c-4.6,2-9.1,4.2-13.7,6.5
			C119.7,531.6,120.6,533.2,121.7,532.7L121.7,532.7z"/>
	</g>
	<g>
		<path class="st1" d="M123.1,547.4c5.2-0.9,10.4-1.2,15.7-1.3c1.2,0,1.2-1.9,0-1.9c-5.4,0-10.8,0.4-16.2,1.3
			C121.4,545.8,121.9,547.6,123.1,547.4L123.1,547.4z"/>
	</g>
	<g>
		<path class="st1" d="M120.9,559.5c5.3,0.7,10.6,1.9,15.9,2.3c1.2,0.1,1.2-1.8,0-1.9c-5.4-0.4-10.6-1.6-15.9-2.3
			C119.7,557.4,119.7,559.3,120.9,559.5L120.9,559.5z"/>
	</g>
	<g>
		<path class="st1" d="M93.2,558.2c0.1-2.9,0.4-5.7-0.1-8.6c-0.6-3.2-4.3-5.2-6-7.7c-3.9-5.9,0.8-14.6,6-17.7
			c5.3-3.1,12.4-2.2,17.1,1.5c8.7,6.7,2.8,20-4.3,25.5c-1.6,1.3-2,3.9-2,5.8c0,1.8-0.2,2.2-2.4,2.7c-2.8,0.8-7.2-0.1-8.7-2.7
			c-0.6-1-2.2-0.1-1.6,0.9c1.8,3.2,6.4,4.3,9.9,3.7c1.6-0.3,3.6-0.8,4.7-2.3c0.9-1.2-0.1-2.6,0.2-4c0.5-2.7,2.4-3.6,4.1-5.7
			c1.8-2.3,3.4-4.8,4.7-7.4c2.3-4.8,2.6-10-0.1-14.6c-5.6-9.7-20.4-9-27.1-1.1c-3.6,4.3-4.2,11.3-1.9,16.2c1.3,2.9,4.8,4.1,5.8,7.2
			c0.8,2.5,0.1,5.5,0,8.1C91.3,559.4,93.2,559.4,93.2,558.2L93.2,558.2z"/>
	</g>
	<g>
		<path class="st1" d="M91.3,557.3c-2.5-0.3-2.9,1.9-2.3,3.8c0.9,3,3.7,4.3,6.5,4.8c5,0.8,12.9-0.7,12.9-7.1c0-0.4-0.3-0.8-0.7-0.9
			c-0.9-0.1-1.6,0.2-2.4,0.3c-1.2,0.2-0.7,2.1,0.5,2.1c0.5,0,1,0,1.5,0c-0.2,0-0.5-0.9-0.7-1.2c0,3.9-4.3,4.9-7.5,5.2
			c-1.6,0.1-3.2-0.1-4.8-0.5c-0.9-0.2-1.5-0.7-2.2-1.3c-0.2-0.2-2.6-3.6-0.8-3.4C92.5,559.3,92.5,557.4,91.3,557.3L91.3,557.3z"/>
	</g>
	<g>
		<path class="st1" d="M89.9,562c-3.4,4.4,3,7.1,6.4,7.6c4.7,0.8,11.1-0.7,10.9-6.5c0-1.2-1.9-1.2-1.9,0c0.1,4.3-4.4,5-7.8,4.8
			c-2.2-0.2-8.6-1.7-6-5C92.2,561.9,90.6,561,89.9,562L89.9,562z"/>
	</g>
	<g>
		<path class="st1" d="M92.7,568c-1.3,7.2,9.6,5.9,11.8,1c0.5-1.1-1.1-2-1.6-0.9c-1.2,2.8-9.3,5.2-8.4,0.4
			C94.7,567.4,92.9,566.9,92.7,568L92.7,568z"/>
	</g>
	<g>
		<path class="st1" d="M98.4,559.9c-1.3-4.7-2.7-9.3-3.5-14.1c-0.5-2.9-0.6-5.9-0.1-8.8c0.3-1.4,2.7-7.2,5.6-3.2
			c0.8,1.4,1.1,2.9,1,4.5c0.1,2-0.3,2.3-1.1,0.8c-0.1-0.9,3.4-7.9,5-3.7c0.5,1.2,0.1,3.2-0.1,4.3c-0.4,2.3-1.1,4.5-1.7,6.7
			c-1.4,4.8-3.4,9.4-3.3,14.5c0,1.2,1.9,1.2,1.9,0c-0.2-5.7,2.4-11.1,3.9-16.5c0.8-2.9,2.7-8.6,0.2-11.1c-2.9-2.9-6.1,0.9-7.3,3.5
			c-0.5,1.2-1,7.1,1.8,6.3c6.1-1.6,0.9-17-4.7-11.6c-7.4,7.1-1.7,20.7,0.5,29C96.9,561.6,98.7,561.1,98.4,559.9L98.4,559.9z"/>
	</g>
	<g>
		<path class="st1" d="M145.6,509.6c3.4,15.4,5,32,4.7,47.8c-0.1,3-0.2,6-1,8.9c-0.6,2.2-2.2,2.7-4.3,3.3
			c-6.8,2.2-13.9,3.3-20.9,4.6c-16.6,3-33.7,6.4-50.6,7.4c-5.2,0.3-10.5,0.7-15.7-0.1c-2.8-0.4-2.5-0.7-2.9-3.3
			c-1-6.3-1.8-12.7-2.6-19.1c-1-8.2-2-16.4-2.9-24.5c-0.5-5-1.6-10.4-1.1-15.4c-0.3,0.3-0.6,0.6-0.9,0.9c15.3-1.9,30.7-3.7,46-5.4
			c11.2-1.2,22.3-2.5,33.5-3.5c5.9-0.5,13.4-2.2,19.3-1c1.2,0.2,1.7-1.6,0.5-1.8c-5.4-1.1-12,0.3-17.5,0.7
			c-11.3,1-22.6,2.2-33.9,3.5c-16,1.8-32,3.7-47.9,5.6c-0.5,0.1-0.9,0.4-0.9,0.9c-0.4,4.5,0.5,9.3,0.9,13.7
			c0.8,7.8,1.7,15.6,2.7,23.4c0.8,6.6,1.7,13.2,2.7,19.8c0.6,4.2,0,6.4,4.6,7.3c7.9,1.6,16.7,0.3,24.6-0.8
			c8.3-1.1,16.6-2.3,24.9-3.6c8.9-1.4,17.9-2.9,26.8-4.7c5-1,10.8-1.8,15.3-4.2c2.3-1.3,2.6-4.8,2.9-7.1c0.8-6.1,0.4-12.4,0-18.5
			c-0.7-11.8-1.9-23.8-4.4-35.3C147.2,507.9,145.4,508.4,145.6,509.6z"/>
	</g>
	<g>
		<path class="st1" d="M149.4,503.2c1.6,1.1,1.9,9.4,2.2,11.4c1.1,7.5,1.9,15.1,2.7,22.6c0.7,7.4,1.4,14.8,1.8,22.2
			c0.2,3.8,1.1,8.6,0.2,12.4c-1.3,5.6-16.2,6.8-21.1,7.7c-8.5,1.6-17,3-25.6,4.3c-16.1,2.5-32.9,5.5-49.3,5.2
			c-2.2,0-9.7,0.7-10.5-1.5c-0.6-1.4-0.8-3-1.2-4.5c-1.3-5.9-2.3-11.9-3.3-17.9c-2.3-14.4-4.6-29.3-4.4-43.9c0-1.6-0.1-7.7,1.9-7.9
			c3.1-0.4,6.3-0.8,9.4-1.1c13.6-1.6,27.2-3.2,40.8-4.6c12.1-1.3,24.3-2.6,36.5-3.6c4.5-0.4,8.9-0.7,13.4-0.9
			c1.9-0.1,4.7-0.5,6.5,0.2c1.1,0.5,1.6-1.4,0.5-1.8c-2.3-0.9-5.7-0.4-8.1-0.3c-5.7,0.2-11.4,0.7-17.1,1.2
			c-15.2,1.3-30.5,3-45.7,4.7c-11.3,1.3-22.5,2.6-33.8,3.9c-1.5,0.2-3.5,0-4.5,1.3c-2.2,2.6-1.8,7.7-1.8,10.8
			c0,14.5,2.3,29.1,4.6,43.3c0.9,5.8,1.9,11.7,3.2,17.5c0.7,3.2,1.2,6.5,5.3,6.7c15.2,0.6,30.2-1.1,45.3-3.2c16.1-2.2,32.2-4.6,48-8
			c4.7-1,9.4-2.5,12.3-6.6c0.7-1.1,0.4-3.3,0.4-4.5c-0.1-8.1-0.9-16.3-1.6-24.4c-0.8-9.4-1.9-18.9-3.1-28.3c-0.5-3.3-1-6.7-1.6-10
			c-0.3-1.2-0.5-3.3-1.7-4.1C149.3,500.9,148.4,502.5,149.4,503.2z"/>
	</g>
	<g>
		<path class="st1" d="M98.4,587.5c0.6,4.1,1.7,8.2,1.9,12.4c0.1,1.2,1.9,1.2,1.9,0c-0.2-4.4-1.4-8.5-2-12.9
			C100,585.8,98.2,586.3,98.4,587.5L98.4,587.5z"/>
	</g>
	<g>
		<path class="st1" d="M112.1,584.5c0.1,4.6,0.8,9,1.7,13.5c0.2,1.2,2,0.7,1.8-0.5c-0.8-4.3-1.5-8.6-1.6-13
			C113.9,583.3,112.1,583.3,112.1,584.5L112.1,584.5z"/>
	</g>
	<g>
		<path class="st1" d="M141.3,603.9c-0.2-1.6-0.1-8.6-2.5-9.3c-2.3-0.7-5.8,0.4-8.1,0.7c-8,1-16.1,2.2-24.1,3.4
			c-7,1-14.1,1.9-21,3.2c-3,0.5-6,0.9-8.9,1.4c-1.1,0.2-2.5,0.4-3.2,1.3c-2,2.7,0.4,7.7,1.3,10.6c0.2,0.5,0.6,0.7,1.1,0.7
			c11.8-1.8,23.5-3.7,35.3-5.5c6.4-1,12.9-2,19.3-3.1c3.2-0.5,7.4-0.7,10.4-2.2c1.1-0.6,0.1-2.2-0.9-1.6c-2.7,1.5-6.9,1.5-9.9,2.1
			c-6.4,1.1-12.9,2.1-19.3,3.1c-11.8,1.8-23.5,3.7-35.3,5.5c0.4,0.2,0.8,0.4,1.1,0.7c-0.5-1.5-0.7-3.1-1.2-4.7
			c-1-3.2-0.2-4.8,3.3-5.1c4-0.4,7.9-1.4,11.8-2c5.2-0.7,10.3-1.5,15.4-2.3c6.7-1,13.4-2,20.1-2.9c2.9-0.4,5.7-0.8,8.6-1.1
			c1.4-0.2,3.5-0.9,3.8,1.5c0.2,2.1,0.7,4.1,1,6.2C139.7,605.6,141.5,605.1,141.3,603.9z"/>
	</g>
	<g>
		<path class="st1" d="M101,592.4c2-2.3,4.2-4.4,6.2-6.6c0.8-0.9-0.5-2.2-1.3-1.3c-2,2.3-4.2,4.4-6.2,6.6
			C98.8,592,100.2,593.3,101,592.4L101,592.4z"/>
	</g>
	<g>
		<path class="st1" d="M101.9,597.2c1.6-1.4,2.6-3.4,3.7-5.1c1.7-2.5,3.9-4.7,5.6-7.1c0.7-1-0.9-1.9-1.6-0.9
			c-1.7,2.3-3.7,4.4-5.4,6.8c-1.2,1.7-2.1,3.7-3.7,5.1C99.7,596.7,101,598,101.9,597.2L101.9,597.2z"/>
	</g>
	<g>
		<path class="st1" d="M103.4,600.5c3.6-3.7,7.1-7.5,10.4-11.4c0.8-0.9-0.5-2.2-1.3-1.3c-3.3,4-6.8,7.8-10.4,11.4
			C101.3,600,102.6,601.4,103.4,600.5L103.4,600.5z"/>
	</g>
	<g>
		<path class="st1" d="M110.6,599.1c1.2-1.3,2.5-2.4,3.4-3.9c0.7-1-1-1.9-1.6-0.9c-0.9,1.3-2.1,2.4-3.1,3.5
			C108.4,598.6,109.8,600,110.6,599.1L110.6,599.1z"/>
	</g>
	<g>
		<path class="st1" d="M57.4,580.6c0.3-0.2,0.6-0.4,0.9-0.6c0.9-0.7-0.4-2.1-1.3-1.3c-0.3,0.2-0.6,0.4-0.9,0.6
			C55.2,580,56.5,581.3,57.4,580.6L57.4,580.6z"/>
	</g>
	<g>
		<path class="st1" d="M60.6,582.5c1-1,2.1-1.8,3.1-2.8c0.9-0.8-0.5-2.2-1.3-1.3c-1,1-2.1,1.8-3.1,2.8
			C58.4,582,59.7,583.3,60.6,582.5L60.6,582.5z"/>
	</g>
	<g>
		<path class="st1" d="M65.7,582.3c0.3-0.6,0.9-1,1.2-1.6c0.6-1-1-2-1.6-0.9c-0.3,0.6-0.9,1-1.2,1.6
			C63.4,582.4,65.1,583.3,65.7,582.3L65.7,582.3z"/>
	</g>
	<g>
		<path class="st1" d="M71.7,581.2c0.3-0.3,0.6-0.6,0.9-0.9c0.9-0.9-0.5-2.2-1.3-1.3c-0.3,0.3-0.6,0.6-0.9,0.9
			C69.6,580.8,70.9,582.1,71.7,581.2L71.7,581.2z"/>
	</g>
	<g>
		<path class="st1" d="M130.9,509.2c-1,1.3-1.7,2.8-2.3,4.3c-0.5,1.1,1.4,1.6,1.8,0.5c0.5-1.4,1.2-2.6,2.1-3.8
			C133.2,509.2,131.6,508.3,130.9,509.2L130.9,509.2z"/>
	</g>
	<g>
		<path class="st1" d="M134.3,510.2c-0.6,1.1-1.2,2.1-1.9,3.1c-0.7,1,0.9,1.9,1.6,0.9c0.7-1,1.3-2,1.9-3.1
			C136.5,510,134.9,509.1,134.3,510.2L134.3,510.2z"/>
	</g>
	<g>
		<path class="st1" d="M138.7,510.5c-0.5,0.9-1,1.8-1.3,2.7c-0.4,1.1,1.4,1.6,1.8,0.5c0.3-0.8,0.8-1.5,1.1-2.3
			C140.8,510.3,139.2,509.4,138.7,510.5L138.7,510.5z"/>
	</g>
	<g>
		<path class="st1" d="M78.9,615.1c1.2-1.2,2.3-2.6,2.9-4.2c0.5-1.1-1.1-2-1.6-0.9c-0.6,1.5-1.5,2.7-2.7,3.9
			C76.7,614.6,78.1,616,78.9,615.1L78.9,615.1z"/>
	</g>
	<g>
		<path class="st1" d="M83.9,613.9c1.5-1.6,2.7-3.4,3.9-5.2c0.7-1-0.9-1.9-1.6-0.9c-1.1,1.7-2.2,3.3-3.6,4.8
			C81.7,613.4,83,614.7,83.9,613.9L83.9,613.9z"/>
	</g>
	<g>
		<path class="st1" d="M90.1,612.3c1.2-1.5,2.2-3.2,3.3-4.9c0.6-1-1-2-1.6-0.9c-0.9,1.5-1.9,3.1-3,4.5
			C88,611.9,89.3,613.3,90.1,612.3L90.1,612.3z"/>
	</g>
	<g>
		<path class="st1" d="M95.4,612c0.7-0.7,1.4-1.5,2-2.4c0.7-1-0.9-1.9-1.6-0.9c-0.5,0.7-1.1,1.4-1.7,2
			C93.2,611.5,94.5,612.9,95.4,612L95.4,612z"/>
	</g>
</g>
<g class="st0">
	<defs>
		<path id="SVGID_9_" class="st0" d="M136.5,27.8c9.2-6.2,39.9-10.6,51.7-12.6c4.2,13.7,14.8,45.3,15.8,57.6
			c2.2,27.2-43.2-0.8-5.3-0.8c-4.2-13.7-6.4-25.8-12-40.5c-10.4,2.5-22.1,1.4-40,9.3c4.2,12.6,22.6,50.2,1.5,53.4
			c-22.3,3.3-7.4-21.1,4.2-17.9C152.3,76.2,135.5,28.4,136.5,27.8z"/>
	</defs>
	<clipPath id="SVGID_10_">
		<use xlink:href="#SVGID_9_"  style="overflow:visible;"/>
	</clipPath>
	<g class="st6">
		<path class="st1" d="M134.9,32.4c-0.7,1.9-1.2,3.7-1.4,5.7c-0.1,0.9,1,1.2,1.6,0.7c4.5-4.1,6.8-9.9,8.8-15.5
			c0.3-0.9-0.9-1.6-1.6-0.9c-4.1,4.3-11.1,14.1-8.5,20.4c0.2,0.6,0.8,0.9,1.4,0.6c8.3-4.6,13.6-16.3,15.5-25.2
			c0.2-0.8-0.9-1.7-1.6-0.9c-6.7,8.6-13.5,21.7-12.6,32.9c0.1,0.6,0.8,1.3,1.4,0.8c9.9-7.1,13.3-22.1,16.5-33.1
			c0.3-1.1-1.1-1.5-1.7-0.7c-8,11.3-11.5,25.1-15.2,38.3c-0.3,1,1.1,1.6,1.7,0.7c7.4-11.4,11.8-24.6,15.5-37.6
			c0.2-0.8-1-1.7-1.6-0.9c-8.3,10.5-10.4,24-16.9,35.5c0.6,0.2,1.1,0.5,1.7,0.7c4.9-13.5,11.6-26.4,16.1-40.1c0.3-1-1.2-1.6-1.7-0.7
			c-8.1,12.5-10.2,27.9-18.8,40.1c0.6,0.2,1.1,0.5,1.7,0.7c4.3-12.6,11.1-24.2,15.8-36.7c0.4-1-1.2-1.6-1.7-0.7
			c-5.2,9.6-8.6,20.1-12.4,30.2c-2.5,6.6-6.4,16.3-2.7,23.1c0.2,0.4,0.6,0.5,1.1,0.4c10.1-1.8,12.7-17.3,14.7-25.3
			c-0.6-0.1-1.2-0.2-1.8-0.2c-2,16.4-9.1,32.6-5.8,49.3c0.2,1,1.5,0.8,1.8,0c2.9-8.9,4.1-18.3,4.1-27.7c0-1-1.6-1.3-1.8-0.2
			c-1.8,8.5-4.3,16.9-4.8,25.6c-0.1,1.1,1.5,1.2,1.8,0.2c2.8-7.7,4.4-16,3.8-24.2c-0.1-0.8-1-1.3-1.6-0.7c-3.4,3.7-4.6,9.2-5.5,13.9
			c-1.1,5.3-1.8,11.1-0.9,16.5c0.1,0.8,1.3,0.9,1.7,0.2c4.7-8.6,7.8-20.1,5.6-29.9c-0.2-0.7-1.1-0.9-1.6-0.4
			c-4.3,3.9-5.5,11.1-6.4,16.5c-0.9,5.2-2,12.8,1.1,17.6c0.3,0.5,1.1,0.7,1.5,0.2c8.7-10,10.9-27,9.9-39.7c-0.1-0.9-1.2-1.3-1.7-0.5
			c-5.7,9.7-5.7,26-0.7,35.9c0.3,0.5,1.1,0.6,1.5,0.2c4.8-4.8,3.1-14.3,2.6-20.3c-1-11,0-22.1-3.4-32.7c-0.3-1-1.8-0.8-1.8,0.2
			c-1,14.9,3.5,32.9,12.5,45c0.5,0.7,1.8,0.5,1.7-0.5c-0.3-9.6-5.5-17.7-7.6-26.9c-2.3-9.8-3.2-19.9-7.6-29.1
			c-0.4-0.9-1.6-0.4-1.7,0.5c-2,18.8,5.7,38.8,14.2,55.3c0.5,1,1.9,0.3,1.7-0.7c-2.3-11-6.8-21.3-8.8-32.3
			c-1.6-8.7-2.3-18.1-7.1-25.8c-0.5-0.8-1.7-0.5-1.7,0.5c-0.5,19.3,7.9,38.4,16.9,55c0.6,1.1,2.1,0.1,1.6-0.9
			c-8.3-19.8-11.2-41-12.6-62.2c-0.1-1.2-1.8-1.2-1.9,0c-1.4,14.3-1.6,28.6,0,42.8c0.1,1,1.6,1.4,1.8,0.2c1.5-7.9,0.8-16.1,1.3-24.2
			c0.6-8.1,1.7-16.2,0-24.3c-0.2-0.8-1.3-0.9-1.7-0.2c-6.6,10.4-7.9,23.3-9.7,35.2c-0.2,1,1.2,1.7,1.7,0.7
			c4.4-7.8,7.3-16.5,10.7-24.8c3.2-8,6.4-17.4,13.5-23c-0.5-0.2-1.1-0.4-1.6-0.7c1.3,10.6-6.8,20.3-9.9,30
			c-3.4,10.6-4.9,22.7-12.4,31.4c0.5,0.2,1.1,0.4,1.6,0.7c2.1-19.5,16.4-34.7,21.6-53.2c0.2-0.9-0.9-1.6-1.6-0.9
			c-8.2,9.3-11.6,20.7-16,32c-3.4,8.7-9.3,19.6-6.9,29.2c0.2,0.7,1.1,0.9,1.6,0.4c5.6-5.7,7.7-13.8,10.1-21.2
			c3.7-11,7-22.4,12.3-32.8c-0.6-0.2-1.2-0.3-1.7-0.5c-0.9,6.8-3.1,13.2-4.9,19.8c-1.8,6.6-3,13.4-4,20.1
			c-1.9,12.5-2.8,25.2-2.1,37.9c0.1,1.2,1.7,1.2,1.9,0c3.1-22.9,3.8-46.2,9.9-68.6c-0.6-0.2-1.2-0.3-1.8-0.5
			c-3.6,13.6-7.6,27.2-9.5,41.2c-1.7,12.6-2.3,26.2-7,37.3c0.6,0,1.2,0,1.8,0c-3-11.2,1.4-22.9,4.2-33.6
			c3.6-13.8,6.9-27.3,13.2-40.2c-0.6-0.2-1.1-0.4-1.7-0.7c-3,11.6-7.9,22.7-11.1,34.3c-3.3,12.1-5.8,24.4-9.8,36.3
			c0.6,0.2,1.2,0.3,1.8,0.5c3.8-17.2,10-34,16.8-50.2c6.5-15.4,14.9-30.3,17.4-47.1c0.1-0.7-0.6-1.6-1.4-1.1
			c-7.5,5.2-11.3,14.3-15.1,22.3c-5.7,12-11.2,23.8-14.1,36.9c-0.2,0.9,0.9,1.6,1.6,0.9c6.9-7.8,11.1-17.3,16.2-26.3
			C171,26.9,177,15,183.6,3.3c0.6-1.1-1-2-1.6-0.9c-11,18.3-19.8,37.7-26.1,58.1c-0.3,1,1.2,1.7,1.7,0.7c9.3-18.4,16.6-37.8,26-56.2
			c-0.6-0.2-1.1-0.5-1.7-0.7c-6.9,18.5-13.7,37-20.6,55.5c0.6,0.2,1.2,0.3,1.8,0.5c5.9-16.9,13.4-33.3,19.9-50
			c-0.6-0.2-1.2-0.3-1.8-0.5c-4.7,14.8-15.1,30.3-11.7,46.4c0.1,0.7,1.1,1.3,1.6,0.8c10.1-11.1,8.9-28.8,12.2-41.9
			c-0.6,0-1.2,0-1.8,0c1.4,9.3,1.1,20.3,3.3,30.6c1.3,6.2,3,13.9,8.3,18c0.5,0.4,1.4,0.3,1.6-0.5c1.3-6.5-1.7-12.8-3-19.1
			c-1.8-8.3-5.2-16.4-4.5-25.1c-0.6,0.2-1.2,0.3-1.7,0.5c4.7,7.4,5.3,16.5,7.4,24.8c2.7,10.5,6.6,21,10.3,31.2
			c0.4,1.1,2.1,0.7,1.8-0.5c-4.3-14.8-8.1-29.7-10.6-44.9c-0.2-1-1.9-0.8-1.8,0.2c1.8,17.7,5.7,35,6.9,52.8c0.6-0.1,1.2-0.2,1.8-0.2
			c-1.6-5.2-2.2-10.6-3.8-15.8c-0.3-0.8-1.6-1-1.8,0c-1,5.2-1.4,10.4-0.3,15.6c0.2,1,1.5,0.8,1.8,0c1.4-4.3,0.1-9.6-5.4-7.1
			c-2.9,1.3-4.5,8.5,0.1,8.3c3.5-0.2,7.6-4.8,6.6-8.4c-1.3-4.6-9.4-0.2-10.4,2.7c-1.6,4.7,4.1,7.5,7.7,5.3c3.3-2.1,7-9.1,1.8-11.1
			c-3.8-1.4-10.4,1-12.2,4.6c-2.4,4.8,4,6.9,7.4,6.6c3.8-0.4,8.2-2.5,9.5-6.3c1.5-4.2-3.7-7.8-7.3-8.3c-7.1-1-14.9,12-5.4,13.6
			c5.7,1,11.2-3.4,13.3-8.5c2.3-5.6-4.5-8.2-8.4-4.9c-3,2.6-5,10.9,0.9,11.6c6.9,0.9,9.3-7.6,8.9-13c0-0.5-0.4-1-0.9-0.9
			c-5.9,0.3-9.4,10.9-5.5,15c0.4,0.4,1,0.4,1.3,0c7.8-7.8,3.8-22.8,1.6-32.2c-2.6-11.5-5.4-26.3-15.5-33.7c-0.6-0.5-1.3,0.2-1.4,0.8
			c-1,7.4,2.5,18.2,9,22.4c0.4,0.3,1,0.1,1.3-0.3c4.3-6.4-5.6-14-10.8-16.1c-9.3-3.7-21.3-0.4-25.7,9c-0.2,0.5-0.1,1.2,0.6,1.4
			c8,1.6,17.3-1.9,22.8-7.8c0.7-0.7,0-1.7-0.9-1.6c-10.3,1.9-20.4,5.3-29.7,10c-0.8,0.4-0.4,1.7,0.5,1.7c10.9-0.1,21.7-2,32.1-5.2
			c1.1-0.3,0.7-2.1-0.5-1.8c-8.3,2.1-16.6,2.7-25,4.2c-2.9,0.5-5.7,1.1-8.6,1.5c-1.5,0.2-2.9,0.2-4.4,0.2c-0.4,0-4.5-0.7-4.1-1.1
			c10.5-9.6,27.2-9.1,39.3-16.1c1-0.6,0.1-2.2-0.9-1.6c-11,5.7-23.1,8.7-33.9,14.7c-0.8,0.4-0.5,1.8,0.5,1.7
			c12.8-0.9,25.7-5.1,36.8-11.4c0.9-0.5,0.3-2-0.7-1.7c-12.7,3.9-25,9.1-38,11.7c-1.2,0.2-0.7,2,0.5,1.8c14.3-2.3,28.8-2.9,42.8-6.5
			c1.2-0.3,0.7-2.1-0.5-1.8c-12.4,3-25.1,4.7-37,9.6c-1.1,0.4-0.7,2.1,0.5,1.8c11.6-2.5,25.1-2.3,34.7-10.2c0.7-0.5,0.1-1.6-0.7-1.6
			c-12.8-0.5-25.4,5-38.1,2.1c0.1,0.5,0.3,1,0.4,1.6c3.9-3.5,9.3-4.1,14.3-4.8c6.9-0.9,13.3-3.7,20.3-3.9c-0.2-0.6-0.3-1.2-0.5-1.7
			c-7.3,4.8-16.1,6-24.5,7.1c-1.2,0.2-1.2,2,0,1.9c8.8-1.2,17.9-2.4,25.5-7.3c0.7-0.5,0.5-1.8-0.5-1.7c-7.2,0.2-13.8,3-20.8,4
			c-5.4,0.7-10.9,1.5-15.1,5.2c-0.5,0.5-0.3,1.4,0.4,1.6c12.9,2.9,25.7-2.5,38.6-2c-0.2-0.5-0.4-1.1-0.7-1.6
			c-9.2,7.6-22.7,7.3-33.9,9.7c0.2,0.6,0.3,1.2,0.5,1.8c11.9-4.9,24.6-6.6,37-9.6c-0.2-0.6-0.3-1.2-0.5-1.8
			c-14,3.6-28.6,4.2-42.8,6.5c0.2,0.6,0.3,1.2,0.5,1.8c13.1-2.5,25.3-7.8,38-11.7c-0.2-0.6-0.5-1.1-0.7-1.7
			C170.5,25,157.8,29.1,145.4,30c0.2,0.6,0.3,1.2,0.5,1.7c10.8-6.1,22.9-9.1,33.9-14.7c-0.3-0.5-0.6-1.1-0.9-1.6
			c-12.8,7.5-29.4,6.9-40.6,17.3c-0.4,0.3-0.4,1,0,1.3c3.9,3.6,10.7,2,15.4,1.2c9.8-1.7,19.7-2.6,29.4-5.1c-0.2-0.6-0.3-1.2-0.5-1.8
			c-10.3,3.1-20.9,5-31.6,5.1c0.2,0.6,0.3,1.2,0.5,1.7c9.2-4.7,19.1-7.9,29.3-9.8c-0.3-0.5-0.6-1-0.9-1.6c-5,5.4-13.7,8.8-21,7.3
			c0.2,0.5,0.4,0.9,0.6,1.4c3.6-7.7,12.4-10.7,20.4-9.2c4.8,0.9,16.9,8.6,13,14.4c0.4-0.1,0.9-0.2,1.3-0.3c-5.9-3.8-9-14.1-8.1-20.8
			c-0.5,0.3-0.9,0.5-1.4,0.8c10.4,7.6,12.6,23.7,15.3,35.4c1.4,6.2,2.3,12.6,1.7,18.9c-0.2,2-0.7,3.9-1.5,5.8
			c-0.8,1.9-1.5,3-1.8,0.2c-0.3-2.9,1.6-9,5.2-9.1c-0.3-0.3-0.6-0.6-0.9-0.9c0.2,3.5-0.5,7.3-3,10c-2.9,2.3-4.9,1.5-6.2-2.5
			c0-1.6,0.5-3,1.7-4.1c3.1-3.5,7.2,0.4,5.1,4.1c-1.9,3.4-5.8,5.5-9.6,5.5c-2.7,0-4.1-1.7-3.4-4.2c1.2-4.5,6.7-7.1,10.7-4.6
			c7,4.3-1.2,9.4-5.9,9.8c-2.4,0.2-5-0.6-5.1-3.4c-0.1-2,3.5-3.3,4.9-3.8c1.7-0.6,4.5-1.2,6.1,0.1c2.6,2.1-3.3,7.9-5.3,8
			c-1.6,0.1-2.7-1.6-2.8-3c-0.3-2,1.7-3.1,3.3-3.6c1.2-0.4,4.1-0.9,3.6,1.3c-0.2,1-1,2-1.7,2.8c-0.7,0.8-1.5,1.5-2.5,1.8
			c-2.5,1-1.6-3-1-3.8c0.7-0.8,1.7-1.2,2.8-1.3c2.8-0.2,1.4,3.6,1,5.5c0.6,0,1.2,0,1.8,0c-0.9-5.6-0.6-9.3,0.3-14.9
			c-0.6,0-1.2,0-1.8,0c1.6,5.6,2.2,10.7,3.8,15.9c0.3,1,1.9,0.9,1.8-0.2c-1.1-17.7-5-35.1-6.9-52.8c-0.6,0.1-1.2,0.2-1.8,0.3
			c2.5,15.2,6.3,30.1,10.6,44.9c0.6-0.2,1.2-0.3,1.8-0.5c-3.8-10.6-7.7-21.5-10.6-32.3c-2.1-8.1-2.7-16.8-7.3-24.1
			c-0.5-0.8-1.7-0.4-1.7,0.5c-0.6,7.3,1.5,14.3,3.4,21.3c1.8,6.7,5.5,15.4,4.2,22.3c0.5-0.1,1-0.3,1.6-0.4c-5.6-4.4-6.9-13-8.3-19.5
			c-2-9.5-1.5-19.1-2.8-28.7c-0.1-0.9-1.6-0.8-1.8,0c-3.3,13.3-2,30.7-11.8,41.4c0.5,0.1,1,0.3,1.6,0.4
			c-3.3-15.6,7.1-31.1,11.7-45.4c0.4-1.2-1.4-1.6-1.8-0.5c-6.5,16.7-13.9,33.1-19.9,50c-0.4,1.1,1.4,1.6,1.8,0.5
			c6.9-18.5,13.7-37,20.6-55.5c0.4-1-1.2-1.6-1.7-0.7c-9.5,18.4-16.7,37.8-26,56.2c0.6,0.2,1.1,0.5,1.7,0.7
			c6.3-20.2,15.1-39.5,26-57.7C183,3,182.5,2.7,182,2.4c-6.1,10.9-11.7,22-17.8,32.9c-5.3,9.5-10,20-17.3,28.3
			c0.5,0.3,1,0.6,1.6,0.9c2.6-11.7,7.2-22.7,12.4-33.5c4.2-8.4,7.9-19.1,15.9-24.6c-0.5-0.4-0.9-0.7-1.4-1.1
			c-2.6,17.1-11.2,32.4-17.9,48.2c-6.7,15.9-12.6,32.3-16.4,49.2c-0.3,1.2,1.4,1.6,1.8,0.5c4.1-11.9,6.6-24.2,9.8-36.3
			c3.1-11.6,8-22.7,11.1-34.3c0.3-1-1.2-1.7-1.7-0.7c-6.4,13-9.8,26.8-13.4,40.7c-2.8,11-7.3,23.3-4.2,34.7c0.3,1,1.5,0.8,1.8,0
			c4.5-11.5,5.3-24,6.8-36.2c1.7-14.4,5.9-28.6,9.6-42.6c0.3-1.2-1.5-1.6-1.8-0.5c-6.1,22.6-6.9,46.8-10,69.2c0.6,0,1.2,0,1.9,0
			c-0.8-13.1,0.3-27.3,2.5-40.8c2-12.5,6.7-24.5,8.4-37c0.1-0.9-1.3-1.3-1.7-0.5c-4.7,9.2-7.7,19.1-11,28.9
			c-2.8,8.3-4.8,18.3-11.2,24.7c0.5,0.1,1,0.3,1.6,0.4c-2.2-8.8,3.3-19.2,6.5-27.2c4.5-11.3,7.7-22.8,15.9-32.2
			c-0.5-0.3-1-0.6-1.6-0.9c-5.2,18.7-19.5,34-21.6,53.7c-0.1,0.8,1.1,1.2,1.6,0.7c7.5-8.6,9.5-20.5,12.6-31.1
			c3-10.2,11.6-20.5,10.3-31.6c-0.1-0.8-0.9-1.2-1.6-0.7c-6.1,4.8-9.3,12.3-12.1,19.2c-4,9.6-7.3,19.8-12.3,28.9
			c0.6,0.2,1.1,0.5,1.7,0.7c1.8-11.7,3-24.5,9.5-34.7c-0.6-0.1-1.1-0.1-1.7-0.2c1.6,7.9,0.6,15.9-0.1,23.8
			c-0.6,7.9,0.2,15.9-1.3,23.7c0.6,0.1,1.2,0.3,1.8,0.3c-1.6-14.2-1.4-27.8,0-42.8c-0.6,0-1.2,0-1.9,0c1.4,20.5,4.3,43,12.8,63.1
			c0.5-0.3,1.1-0.7,1.6-1c-8.8-16.3-17.1-35.1-16.7-54c-0.6,0.2-1.2,0.3-1.7,0.5c4.9,7.9,5.5,17.7,7.1,26.7
			c1.9,10.6,6.4,20.5,8.6,31c0.6-0.2,1.1-0.5,1.7-0.7c-8.4-16.2-15.9-35.9-13.9-54.4c-0.6,0.2-1.2,0.3-1.7,0.5
			c4.1,8.5,5.2,18,7.1,27.2c2,9.5,7.6,18,7.9,27.9c0.6-0.2,1.2-0.3,1.7-0.5c-8.7-11.8-13.2-29.5-12.2-44.1c-0.6,0.1-1.2,0.2-1.8,0.2
			c3.1,9.7,2.4,19.6,3.1,29.6c0.4,6,3,16.8-1.8,21.6c0.5,0.1,1,0.1,1.5,0.2c-4.7-9.3-4.6-25,0.7-34c-0.6-0.2-1.2-0.3-1.7-0.5
			c1,12.2-1,28.8-9.3,38.4c0.5,0.1,1,0.1,1.5,0.2c-2.8-4.3-1.7-11.3-0.9-16.1c0.8-5,2-12.1,5.9-15.7c-0.5-0.1-1-0.3-1.6-0.4
			c2.1,9.2-1,20.3-5.4,28.4c0.6,0.1,1.1,0.1,1.7,0.2c-0.8-4.7-0.1-9.7,0.7-14.3c0.8-4.7,1.9-10.6,5.3-14.3c-0.5-0.2-1.1-0.4-1.6-0.7
			c0.6,8.1-1,16.1-3.7,23.7c0.6,0.1,1.2,0.2,1.8,0.2c0.5-8.6,3-16.8,4.8-25.1c-0.6-0.1-1.2-0.2-1.8-0.2c-0.1,9.2-1.3,17.8-4.1,27.2
			c0.6,0,1.2,0,1.8,0c-3.3-16.8,3.9-32.6,5.9-48.8c0.1-1.1-1.6-1.2-1.8-0.2c-1.4,5.7-2.9,11.4-5.5,16.7c-1.3,2.7-3.1,5.2-5.8,6.7
			c-3.2,1.8-2.1-6.7-1.8-8.3c1-6.3,3.6-12.4,5.9-18.4c3.1-8,5.8-16.2,9.9-23.8c-0.6-0.2-1.1-0.5-1.7-0.7
			c-4.6,12.5-11.4,24.1-15.8,36.7c-0.4,1.1,1.1,1.5,1.7,0.7c8.6-12.2,10.8-27.6,18.8-40.1c-0.6-0.2-1.1-0.5-1.7-0.7
			c-4.6,13.7-11.2,26.6-16.1,40.1c-0.4,1,1.2,1.6,1.7,0.7c6.5-11.3,8.5-24.8,16.6-35.1c-0.5-0.3-1-0.6-1.6-0.9
			c-3.7,12.8-8,25.9-15.3,37.1c0.6,0.2,1.1,0.5,1.7,0.7c3.6-13,7.1-26.6,15-37.8c-0.6-0.2-1.1-0.5-1.7-0.7
			c-3.1,10.5-6.3,25.2-15.7,32c0.5,0.3,0.9,0.5,1.4,0.8c-0.9-10.7,5.7-23.3,12.1-31.6c-0.5-0.3-1-0.6-1.6-0.9
			c-1.8,8.4-6.8,19.7-14.7,24.1c0.5,0.2,0.9,0.4,1.4,0.6c-2.4-5.6,4.3-14.7,8-18.6c-0.5-0.3-1-0.6-1.6-0.9
			c-1.9,5.3-4.1,10.8-8.3,14.7c0.5,0.2,1.1,0.4,1.6,0.7c0.2-1.9,0.7-3.5,1.3-5.2C137.1,31.8,135.3,31.3,134.9,32.4L134.9,32.4z"/>
	</g>
</g>
<g class="st0">
	<path class="st1" d="M1083.1,462.4c-5.9,7.6,0.3,16.9,9.5,16c7-0.7,12.5-9.7,3.8-12.7c-3.2-1.1-7.1,0-9.1,2.9
		c-1.6,2.2-1.7,5.5,1.3,6.6c2.7,1,6.1,0.6,7-2.6c0.9-3.1-2.5-4-4.7-3.1c-1.1,0.4-0.6,2.2,0.5,1.8c2.8-1.1,3.2,1.7,0.8,2.5
		c-2.3,0.8-4.9-1-3.7-3.4c1.9-4,11.7-4.5,10.8,1.1c-0.7,5-7.8,5.8-11.5,4.6c-5.7-1.9-6.1-8.5-2.9-12.7
		C1085.4,462.4,1083.8,461.5,1083.1,462.4L1083.1,462.4z"/>
</g>
</svg>
