<?xml version="1.0" encoding="utf-8"?>
<!-- Generator: Adobe Illustrator 24.1.3, SVG Export Plug-In . SVG Version: 6.00 Build 0)  -->
<svg version="1.1" id="Layer_1" xmlns="http://www.w3.org/2000/svg" xmlns:xlink="http://www.w3.org/1999/xlink" x="0px" y="0px"
	 viewBox="0 0 1440 800" style="enable-background:new 0 0 1440 800;" xml:space="preserve">
<style type="text/css">
	.st0{opacity:0.2;fill:none;stroke:#59BAF7;stroke-width:4;stroke-linecap:round;stroke-linejoin:round;}
	.st1{opacity:0.2;}
	.st2{fill:none;stroke:#59BAF7;stroke-width:4;stroke-linecap:round;stroke-linejoin:round;}
</style>
<desc>Created with Sketch.</desc>
<path class="st0" d="M977.6,449.6c69.8-27.4,140.4-52.9,211.6-76.5c-2.6,22.3-27,34.2-48.1,42c-36.9,13.7-73.8,27.3-110.6,41
	c-34.9,12.9-74.7,31.2-82.9,67.5c84-22.6,165.9-53.1,244.2-90.9c25.5-12.3,55.9-25.4,80.6-11.6c-16.3,29.2-48.3,45.3-78.5,59.7
	c-52.4,24.9-104.8,49.9-157.1,74.8c-28.4,13.5-57.1,27.2-82.1,46.4c-5.1,3.9-10.5,9.1-9.9,15.5c0.8,9.5,13,12.7,22.5,12.8
	c107.8,1,200.2-74.3,303.9-103.6c9.4-2.7,20.6-4.7,28.3,1.5c-3.4,36.7-40.4,59.5-73.1,76.4c-65.4,33.7-130.7,67.4-196.1,101.2
	c-13.6,7-29.5,22.2-20.4,34.5c3.1,4.2,8.3,6.2,13.4,7.5c37.7,9.8,76.8-5.8,112.5-21.1c62.4-26.6,124.7-53.2,187.1-79.8
	c8.7-3.7,18.3-7.5,27.3-4.5c13.3,4.3,18.2,22.2,13,35.2c-5.1,13.1-17,22.1-28.8,29.7c-87,56-195.3,69.7-284.8,121.6
	c-8,4.7-17.1,12.4-14.4,21.3c1.1,3.8,4.2,6.6,7.3,9.1c23.7,18.8,56,26.1,85.4,19.5c19.4-4.4,37-14.3,54.4-23.8
	c86-46.9,176-86.2,268.8-117.5"/>
<g class="st1">
	<path class="st2" d="M718.3,114.5c0.6,2.4,3.6,3.7,6,3.1c2.4-0.6,4.2-2.7,5.2-5c0.9-2,1.2-4.2,1-6.4c-0.3-2.7-1.4-5.2-2.4-7.7
		c-1.4-3.3-2.8-6.5-4.2-9.8"/>
	<path class="st2" d="M731.4,85.3c4.1,8.5,6.9,17.6,9.6,26.6c0.3,1.1,0.7,2.3,0.2,3.3"/>
	<path class="st2" d="M715.2,96.1c-1-1.4-1.4-3.3-1.1-5c0.7-3.6,4.3-5.9,7.9-6.9c3.5-1,7.4-1.2,10.7-2.7c3.4-1.5,6.3-5.1,5.4-8.6"/>
	<path class="st2" d="M747.9,89.1c3.3-1.4,6.6-2.7,9.8-4.1"/>
	<path class="st2" d="M751.2,96.1c2-2.4,4.9-4,8-4.4c0.4,0,0.9-0.1,1.2-0.4c0.3-0.3,0.1-1-0.3-0.9"/>
	<path class="st2" d="M767.6,74c2.1-3,5.2-5.3,8.7-6.4c0.5-0.2,1.1-0.3,1.5,0c0.4,0.2,0.6,0.6,0.7,1c1.4,3.5,0.6,7.8-1.9,10.7
		c0.9-3,5.1-4,7.8-2.4c2.7,1.6,3.8,5,3.6,8.1c-0.2,2.7-1.5,5.3-3.8,6.7c-2.3,1.3-5.7,0.9-7.1-1.4"/>
	<path class="st2" d="M796.8,87c1.4,0.9,1.9,2.9,1.2,4.4"/>
	<path class="st2" d="M803.2,58c4.5,5,5.7,11.9,6.8,18.5c0.4,2.6,0.8,5.2,1.3,7.9"/>
	<path class="st2" d="M817.7,53.3c1.3,0.9,1.1,2.9,0.7,4.4c-1,4.4-1.5,8.9-1.4,13.4c0,0.4,0.1,0.9,0.4,1.1c0.3,0.2,0.8,0.1,1.1-0.1
		c2.8-1.2,5.7-2.4,8.5-3.6c0.2-0.1,0.5-0.2,0.5-0.5c0.1-0.2-0.3-0.5-0.4-0.3"/>
	<path class="st2" d="M818.3,54.1c5,7.4,5.5,17.4,11.5,24"/>
</g>
<g class="st1">
	<path class="st2" d="M48,559.8c0.9,3.5,5.1,5.3,8.5,4.4c3.5-0.9,6-3.9,7.4-7.2c1.2-2.9,1.7-6.1,1.4-9.2c-0.4-3.8-1.9-7.5-3.5-11
		c-2-4.6-4-9.3-6-13.9"/>
	<path class="st2" d="M66.7,518.3c5.8,12.1,9.8,25,13.7,37.9c0.5,1.6,0.9,3.3,0.2,4.8"/>
	<path class="st2" d="M43.6,533.6c-1.5-2-2-4.7-1.5-7.1c1-5.2,6.2-8.5,11.3-9.9c5.1-1.4,10.5-1.7,15.3-3.9c4.8-2.2,9-7.2,7.7-12.3"
		/>
	<path class="st2" d="M90.1,523.7c4.7-2,9.3-3.9,14-5.9"/>
	<path class="st2" d="M94.9,533.6c2.8-3.4,7-5.7,11.4-6.2c0.6-0.1,1.3-0.1,1.7-0.6c0.4-0.5,0.1-1.4-0.5-1.3"/>
	<path class="st2" d="M118.2,502.1c3-4.3,7.4-7.5,12.3-9.1c0.7-0.2,1.5-0.4,2.2-0.1c0.5,0.3,0.8,0.9,1,1.5c1.9,5,0.9,11.1-2.7,15.2
		c1.3-4.2,7.3-5.7,11.1-3.4c3.8,2.3,5.5,7.1,5.1,11.6c-0.3,3.8-2.1,7.6-5.4,9.5c-3.3,1.9-8.1,1.2-10.1-2"/>
	<path class="st2" d="M159.8,520.7c2,1.3,2.7,4.2,1.7,6.3"/>
	<path class="st2" d="M169,479.4c6.4,7.1,8.2,17,9.7,26.4c0.6,3.7,1.2,7.5,1.8,11.2"/>
	<path class="st2" d="M189.6,472.7c1.9,1.2,1.5,4.1,1,6.3c-1.4,6.2-2.1,12.7-1.9,19.1c0,0.6,0.1,1.2,0.6,1.5
		c0.5,0.3,1.1,0.1,1.6-0.1c4-1.7,8.1-3.4,12.1-5.1c0.3-0.1,0.7-0.3,0.8-0.7c0.1-0.4-0.5-0.7-0.6-0.4"/>
	<path class="st2" d="M190.5,473.7c7.1,10.6,7.9,24.8,16.4,34.3"/>
</g>
<g class="st1">
	<path class="st2" d="M1168.4,30.8c-0.4,6.6-0.6,13.2-0.4,19.8c0,0.3,0,0.6,0.3,0.8c0.2,0.1,0.6-0.3,0.4-0.4"/>
	<path class="st2" d="M1159.6,60.7c7.3,0,14.6,0,21.9,0"/>
	<path class="st2" d="M1164.2,70.8c4.1,5.1,10.5,8.2,17,8.2"/>
	<path class="st2" d="M1172.9,69.3c0.7,3.3-0.7,6.7-2.8,9.3c-2.1,2.6-4.9,4.6-7.7,6.5"/>
</g>
<g class="st1">
	<path class="st2" d="M61.5,624.9c2.1,0.2,4.1,0,6.2-0.3"/>
	<path class="st2" d="M58.9,619.3c3.1,0.4,6.3,0.3,9.5-0.3"/>
	<path class="st2" d="M75.8,622c6.6,0,148.6,0,155.2,0"/>
	<g>
		<path class="st2" d="M39.6,619.5c3.7,4.6,9.5,7.4,15.4,7.4"/>
		<path class="st2" d="M47.5,618.1c0.6,3-0.6,6.1-2.5,8.4c-1.9,2.4-4.4,4.1-6.9,5.8"/>
	</g>
	<path class="st2" d="M83.3,612.5c2.4-0.7,5-0.9,7.5-0.6"/>
	<path class="st2" d="M97,612.7c1.9-2.5,3.1-5.4,3.7-8.5c0.4-1.9,0.4-4.1-0.9-5.5c-0.5-0.6-1.6-1-2.1-0.4c-0.2,0.2-0.2,0.6-0.3,0.9
		c-0.5,4.5-1,9.2,0.4,13.6c0.8,2.5,2.6,5.1,5.2,5.1c0.3,0,0.7-0.1,0.9-0.3c0.3-0.3,0.4-0.7,0.4-1.1c0.2-1.4,0.2-3-0.6-4.2
		c-1.2-1.9-4.3-2.2-5.9-0.6"/>
	<path class="st2" d="M141.1,612.7c1.9-2.5,3.1-5.4,3.7-8.5c0.4-1.9,0.4-4.1-0.9-5.5c-0.5-0.6-1.6-1-2.1-0.4
		c-0.2,0.2-0.2,0.6-0.3,0.9c-0.5,4.5-1,9.2,0.4,13.6c0.8,2.5,2.6,5.1,5.2,5.1c0.3,0,0.7-0.1,0.9-0.3c0.3-0.3,0.4-0.7,0.4-1.1
		c0.2-1.4,0.2-3-0.6-4.2c-1.2-1.9-4.3-2.2-5.9-0.6"/>
	<path class="st2" d="M111.5,603.4c3.1-0.6,6.3-0.8,9.4-0.5"/>
	<path class="st2" d="M115.6,597.7c0.4,3.5,0.8,6.9,1.1,10.4"/>
	<path class="st2" d="M113.1,613.1c3.4,0.1,6.7,0.2,10.1,0.3"/>
	<path class="st2" d="M128.3,601.6c2.1,3.9,3.7,8.1,4.7,12.4c0.3-5.9,0.5-11.7,0.8-17.6c0-1,0.1-2.1,0.9-2.7c0.5-0.4,1.3-0.5,2-0.5
		c24.4-1.1,62.8-1.4,87.2-2.6"/>
	<path class="st2" d="M151.4,600.2c-0.4-1-0.1-2.3,0.8-2.9c0.9-0.6,2.2-0.6,3,0.2c1.4,1.2,0.9,3.5-0.1,5.1c-1,1.5-2.5,2.8-3.1,4.6
		c2.8-0.4,5.5-0.7,8.3-1.1c0.6-0.1,1.3-0.7,0.8-1"/>
	<path class="st2" d="M169,608.3c0.2-0.9,1.3-1,2.2-1c3.8,0.1,7.7,0.4,11.5,1.1"/>
	<g>
		<path class="st2" d="M192.7,596.6c0.8,1,0.2,2.4-0.5,3.5c-1.8,3.1-3.2,6.5-4.1,9.9c-0.1,0.3-0.2,0.7,0.1,0.9
			c0.2,0.2,0.6,0.2,0.9,0.2c2.4-0.3,4.9-0.5,7.3-0.8c0.2,0,0.4-0.1,0.5-0.2c0.1-0.2-0.2-0.4-0.3-0.3"/>
		<path class="st2" d="M193.1,597.3c2.1,6.8,0.2,14.6,3.3,21.1"/>
	</g>
	<g>
		<path class="st2" d="M207.8,609.3c-0.1-0.3-0.5-0.5-0.9-0.5c-1,0-2,0.5-2.7,1.3c-0.7,0.8-1,1.8-1.2,2.9c-0.2,1.2,0,2.7,1,3.3
			c1,0.6,2.4,0,3.1-1c0.7-1,0.8-2.2,0.9-3.4c0.1-1,0.1-2.2-0.8-2.6"/>
		<path class="st2" d="M207.7,609.2c0.5,2.1,1.5,4.1,2.8,5.9c0.5,0.7,1.1,1.4,1.9,1.7c1.2,0.6,2.6,0.3,3.8,0.1"/>
	</g>
	<g>
		<path class="st2" d="M154.6,639.2c-0.1-0.3-0.5-0.5-0.9-0.5c-1,0-2,0.5-2.7,1.3c-0.7,0.8-1,1.8-1.2,2.9c-0.2,1.2,0,2.7,1,3.3
			c1,0.6,2.4,0,3.1-1c0.7-1,0.8-2.2,0.9-3.4c0.1-1,0.1-2.2-0.8-2.6"/>
		<path class="st2" d="M154.4,639.1c0.5,2.1,1.5,4.1,2.8,5.9c0.5,0.7,1.1,1.4,1.9,1.7c1.2,0.6,2.6,0.3,3.8,0.1"/>
	</g>
	<path class="st2" d="M222.6,607.2c-0.7-0.4-1.6-0.4-2.3-0.1c-0.7,0.3-1.3,0.9-1.7,1.6c-0.8,1.3-1.1,3-0.7,4.5
		c0.4,1.5,1.6,2.7,3.1,3.2c1.5,0.4,3.2-0.1,4.2-1.3"/>
	<path class="st2" d="M134.5,633.6c-0.3-1.1,0.3-2.2,1.3-2.8c0.9-0.6,2.1-0.6,3.2-0.4c0.9,0.2,1.8,0.6,2.3,1.4
		c0.6,0.9,0.5,2,0.2,2.9c-0.3,1-1,1.8-1.6,2.6c-2.7,3.8-4.9,8-6.5,12.3c5.1-0.5,10.3-1,15.4-1.4"/>
</g>
<g class="st1">
	<path class="st2" d="M1341.5,69.7c2.3,4.3,4.1,8.9,5.2,13.7c0.3-6.5,0.6-13,0.8-19.5c0-1.1,0.2-2.3,1-2.9c0.6-0.5,2.2,0.2,2.2-0.6
		c0,0,42-1.3,42-1.3"/>
	<g>
		<path class="st2" d="M1383.6,76.8c-0.1-0.4-0.6-0.5-1-0.5c-1.2,0-2.3,0.6-3,1.5c-0.7,0.9-1.1,2-1.3,3.2c-0.2,1.3-0.1,3,1.1,3.6
			c1.1,0.6,2.7,0,3.4-1.1c0.7-1.1,0.9-2.4,1-3.8c0.1-1.1,0.1-2.4-0.9-2.9"/>
		<path class="st2" d="M1383.4,76.7c0.6,2.3,1.7,4.6,3.1,6.5c0.6,0.8,1.2,1.5,2.1,1.9c1.3,0.6,2.8,0.4,4.2,0.1"/>
	</g>
	<path class="st2" d="M1361.3,70.7c-0.3-1.2,0.4-2.5,1.4-3.1c1-0.6,2.4-0.7,3.5-0.4c1,0.2,2,0.7,2.6,1.5c0.6,0.9,0.6,2.2,0.2,3.3
		c-0.4,1.1-1.1,2-1.7,2.9c-3,4.2-5.4,8.8-7.2,13.7c5.7-0.5,11.4-1.1,17.1-1.6"/>
</g>
<g class="st1">
	<path class="st2" d="M71.7,445.6c2.9,5.4,5.2,11.3,6.6,17.3c0.4-8.2,0.7-16.3,1.1-24.5c0.1-1.4,0.2-2.9,1.3-3.7
		c0.8-0.6,2.8,0.3,2.8-0.7c0,0,52.9-1.6,52.9-1.6"/>
	<path class="st2" d="M98.4,475.3c3.7-6.7,7.2-14.1,6.1-21.6c-0.4-2.5-1.4-5.1-3.6-6.5c-2.2-1.4-5.6-0.8-6.5,1.5
		c-1.2,2.9,1.9,5.9,5,6.4c1.7,0.3,3.9-0.2,4.4-1.9"/>
</g>
<g class="st1">
	<path class="st2" d="M36.7,33.9c-0.4,0.3-0.4-0.8,0.1-0.7s0.6,0.8,0.6,1.3c-0.1,2.7-0.1,5.5,0.9,8c1,2.5,3.1,4.7,5.7,5.1
		c3.6,0.5,6.9-2.4,8.2-5.8c1.2-3.4,0.8-7.1,0.4-10.7c1.4,12.1,2.7,24.2,4.1,36.2c0.3,2.9,0.7,5.8,0.1,8.7c-0.4,2-1.3,3.9-2.5,5.6
		c-1.8,2.4-4.8,4.3-7.7,3.5c-2.7-0.8-4.3-3.5-4.7-6.3c-0.7-4.9,1.4-9.7,3.8-14c5.3-9.2,12.5-17.4,20.9-23.9"/>
	<path class="st2" d="M66.5,19.5c-0.9-2.3-0.1-5.1,1.9-6.6c2-1.4,5-1.3,6.8,0.4c3.1,2.8,2.1,8-0.2,11.5c-2.3,3.5-5.7,6.4-6.9,10.4
		c6.2-0.8,12.5-1.7,18.7-2.5c1.3-0.2,2.9-1.6,1.8-2.3"/>
</g>
<g class="st1">
	<path class="st2" d="M1222.6,47.9c1.4,7.6,2,15.3,1.8,23"/>
	<path class="st2" d="M1234.8,58.4c0.7-0.8,2-0.9,3.1-0.9c5.5,0,11.1,0,16.6,0"/>
	<path class="st2" d="M1242.1,49.4c1.9,5.6,3,11.4,3.3,17.2"/>
	<g>
		<path class="st2" d="M1262,52.1c4.1,5.1,10.5,8.2,17,8.2"/>
		<path class="st2" d="M1270.7,50.6c0.7,3.3-0.7,6.7-2.8,9.3c-2.1,2.6-4.9,4.6-7.7,6.5"/>
	</g>
	<path class="st2" d="M1214.1,38.5c-4.8,6.3-5.4,14.8-5.3,22.8c0.1,7.1,1,15.2,6.6,19.6"/>
	<path class="st2" d="M1277.2,38.9c5.3,6.6,8.4,14.8,8.9,23.2c0.3,5.1-0.6,10.7-4.4,14.1"/>
	<path class="st2" d="M1287.9,36.6c-0.5-1.1-0.1-2.5,0.9-3.2c1-0.7,2.4-0.6,3.3,0.2c1.5,1.4,1,3.9-0.1,5.6c-1.1,1.7-2.8,3.1-3.4,5.1
		c3-0.4,6.1-0.8,9.1-1.2c0.6-0.1,1.4-0.8,0.9-1.1"/>
</g>
<g class="st1">
	<path class="st2" d="M680.6,225.6c3.4,6.9,6.1,14.2,7.9,21.7"/>
	<path class="st2" d="M695.2,232.4c0.5-1,1.7-1.4,2.8-1.7c5.4-1.5,10.7-2.9,16.1-4.4"/>
	<path class="st2" d="M699.8,221.8c3.3,4.8,5.9,10.1,7.8,15.7"/>
	<g>
		<path class="st2" d="M719.8,219.1c5.3,3.8,12.3,5.1,18.6,3.4"/>
		<path class="st2" d="M727.7,215.3c1.5,3,1.1,6.7-0.2,9.7c-1.3,3.1-3.5,5.7-5.7,8.3"/>
	</g>
	<path class="st2" d="M669.9,218.8c-2.9,7.4-1.3,15.8,0.9,23.4c2,6.9,5,14.3,11.6,17.2"/>
	<path class="st2" d="M730.8,202.3c6.8,4.9,12.1,12,14.8,20c1.7,4.8,2.3,10.5-0.5,14.8"/>
	<path class="st2" d="M740.6,197.2c-0.7-0.9-0.7-2.4,0-3.3c0.8-0.9,2.2-1.2,3.3-0.7c1.8,0.9,2,3.5,1.4,5.4c-0.6,1.9-1.8,3.7-1.9,5.8
		c2.8-1.2,5.7-2.4,8.5-3.6c0.6-0.2,1.1-1.1,0.6-1.3"/>
</g>
<g class="st1">
	<path class="st2" d="M247.1,88.7c-5.9,2.7-12,4.8-18.3,6.2"/>
	<path class="st2" d="M241.1,100.8c0.8,0.4,1.1,1.4,1.4,2.4c1.1,4.5,2.2,9,3.4,13.5"/>
	<path class="st2" d="M249.8,104.8c-4.1,2.7-8.6,4.8-13.3,6.2"/>
	<g>
		<path class="st2" d="M251.7,121.6c-3.3,4.3-4.5,10.2-3.2,15.5"/>
		<path class="st2" d="M254.8,128.3c-2.5,1.2-5.6,0.8-8.1-0.3c-2.5-1.2-4.7-3-6.8-4.9"/>
	</g>
	<path class="st2" d="M253,79.9c-6.1-2.6-13.1-1.4-19.6,0.3c-5.8,1.5-12.1,3.9-14.6,9.3"/>
	<path class="st2" d="M265.6,131.1c-4.3,5.6-10.3,9.8-17,12c-4.1,1.3-8.8,1.7-12.3-0.7"/>
	<path class="st2" d="M269.6,139.4c0.8-0.6,2-0.6,2.8,0.1c0.8,0.6,1,1.8,0.5,2.7c-0.8,1.5-3,1.6-4.6,1.1c-1.6-0.6-3.1-1.6-4.8-1.7
		c1,2.4,1.9,4.8,2.9,7.2c0.2,0.5,0.9,1,1.1,0.5"/>
</g>
<g class="st1">
	<path class="st2" d="M120.3,384.4c-0.8,9.7-2.7,19.3-5.7,28.5"/>
	<path class="st2" d="M131.5,401.3c1.2-0.8,2.7-0.4,4.1,0c6.7,1.9,13.4,3.8,20.2,5.7"/>
	<path class="st2" d="M143.4,392.9c0.4,7.4-0.2,14.8-1.8,22"/>
	<g>
		<path class="st2" d="M166.7,402.9c3.2,7.5,10,13.5,17.8,15.8"/>
		<path class="st2" d="M177.7,404c-0.3,4.2-3.1,7.9-6.5,10.4c-3.4,2.5-7.5,3.8-11.5,5.2"/>
	</g>
	<path class="st2" d="M113.2,370.1c-8,6-11.6,16.1-14.2,25.8c-2.3,8.7-3.9,18.7,1.3,26"/>
	<path class="st2" d="M189.5,392c4.1,9.7,5.2,20.8,2.9,31.1c-1.4,6.3-4.4,12.8-10.2,15.6"/>
	<path class="st2" d="M203.3,392.9c-0.2-1.5,0.8-3.1,2.2-3.6c1.4-0.5,3.2,0.1,4,1.3c1.4,2.2-0.1,5.1-2,6.8c-1.9,1.7-4.4,2.8-5.8,5
		c3.8,0.5,7.7,1.1,11.5,1.6c0.8,0.1,2-0.4,1.4-1"/>
</g>
<g class="st1">
	<path class="st2" d="M1038.8,28.7c1.5,2.5-0.7,6.2,1.3,8.3c0.7,0.7,1.7,1,2.5,1.4c2.3,1.1,4,3.6,4.1,6.1c0.2,2.6-1.1,5.2-3.3,6.6
		c-2.1,1.4-5.4,1.4-6.8-0.8"/>
	<path class="st2" d="M1037.4,29.4c4.2,0.1,8.3,0.2,12.5,0.4"/>
</g>
<g class="st1">
	<g>
		<path class="st2" d="M142.3,80c5.9,3.4,13.3,4,19.6,1.6"/>
		<path class="st2" d="M150.2,75.2c1.9,2.9,1.9,6.8,0.8,10.1c-1.1,3.3-3,6.3-5,9.1"/>
	</g>
	<g>
		<path class="st2" d="M82.8,104.6c5.9,3.4,13.3,4,19.6,1.6"/>
		<path class="st2" d="M90.6,99.8c1.9,2.9,1.9,6.8,0.8,10.1c-1.1,3.3-3,6.3-5,9.1"/>
	</g>
	<path class="st2" d="M118.3,84.3c-0.8-1-0.6-2.5,0.2-3.5c0.8-1,2-1.5,3.3-1.7c1-0.2,2.2-0.1,3.1,0.5c1,0.7,1.4,1.9,1.4,3.1
		c0,1.2-0.3,2.3-0.6,3.5c-1.3,5.2-1.9,10.6-1.9,16c5.3-2.7,10.7-5.3,16-8"/>
	<path class="st2" d="M117.8,132.6c-0.8-1-0.6-2.5,0.2-3.5c0.8-1,2-1.5,3.3-1.7c1-0.2,2.2-0.1,3.1,0.5c1,0.7,1.4,1.9,1.4,3.1
		c0,1.2-0.3,2.3-0.6,3.5c-1.3,5.2-1.9,10.6-1.9,16c5.3-2.7,10.7-5.3,16-8"/>
	<path class="st2" d="M104.8,98.5c4.1-2.2,8.4-4.1,12.8-5.6"/>
	<path class="st2" d="M62.7,137.7c32.2-12,84-34.2,114.2-50.6"/>
	<g>
		<path class="st2" d="M62.4,102.4c2.4,1.8,1.6,6.3,4.4,7.6c0.9,0.4,2,0.3,3,0.4c2.7,0.2,5.2,2,6.3,4.4c1.1,2.4,0.9,5.5-0.7,7.7
			c-1.5,2.2-4.8,3.4-6.9,1.8"/>
		<path class="st2" d="M61.3,103.6c4.1-1.4,8.2-2.9,12.2-4.3"/>
	</g>
	<path class="st2" d="M105.5,135c0.9,0,1.5,1.1,1.8,1.9c2.2,5.6,4.3,11.2,6.5,16.8"/>
</g>
<g class="st1">
	<path class="st2" d="M48.5,226.8c0.4,54.1,2.6,108.2,4.8,162.2c0.7,17.1,1.4,34.3,2.1,51.4"/>
	<path class="st2" d="M42.3,241.9c2-4.6,4-9.2,5.9-13.8"/>
	<path class="st2" d="M48.1,228.5c2.3,4,4.4,8.2,6.1,12.5"/>
</g>
<g class="st1">
	<path class="st2" d="M861.1,129.1c25.7,9.6,36.7,26.6,38.7,40.4c2.1,13.8-1.4,28.5-10.4,39.2c-11.4,13.6-30.2,19.2-47.9,18
		c-5.2-0.3-10.4-1.2-15.1-3.2c-8.2-3.4-14.9-9.9-19.8-17.4c-10.9-16.5-13.4-38.9-4.2-56.5c9.2-17.5,36.8-30.8,55.9-25.5"/>
	<path class="st2" d="M845.6,176.5c0,0.4,0.3,0.8,0.7,0.8c0.4,0,0.8-0.2,1.1,0c0.3,0.2-0.5,0.5-0.3,0.2"/>
	<path class="st2" d="M852.8,182c2.3,1.2,4.4,2.8,6.1,4.8"/>
	<path class="st2" d="M863.6,189.2c2,1.4,3.9,2.8,5.9,4.2"/>
	<path class="st2" d="M875,197.1c2.7,1.2,5.2,2.8,7.3,4.8"/>
	<path class="st2" d="M885.3,205.8c2.9,2,5.8,4,8.7,6"/>
</g>
<g class="st1">
	<path class="st2" d="M385.5,203.1c15.5,21.6,15.1,41.2,9.4,53.4c-5.8,12.2-16.5,22.2-29.5,25.9c-16.5,4.8-34.7-0.9-48.3-11.3
		c-4-3.1-7.7-6.5-10.5-10.7c-4.8-7.2-6.6-16-6.5-24.7c0.2-19.2,10.2-38.6,27.1-47.8c16.9-9.2,46.3-4.9,58.7,9.7"/>
	<path class="st2" d="M347.4,232.9c-0.2,0.3-0.2,0.8,0.1,1c0.3,0.2,0.8,0.3,0.9,0.6c0.1,0.3-0.7,0.2-0.3,0.1"/>
	<path class="st2" d="M350.2,241.1c1.2,2.2,2,4.7,2.3,7.2"/>
	<path class="st2" d="M355.1,252.8c0.8,2.2,1.7,4.4,2.5,6.5"/>
	<path class="st2" d="M360,265.3c1.5,2.4,2.6,5,3.3,7.8"/>
	<path class="st2" d="M363.6,277.9c1.3,3.2,2.5,6.4,3.8,9.5"/>
</g>
<g class="st1">
	<path class="st2" d="M247.8,36.4c0.6-0.1,0.8,0.8,0.6,1.4c-1.9,7.3-6.4,13.9-12.4,18.3"/>
	<path class="st2" d="M239.3,39.1c2.7,6,7.5,11.1,13.4,14"/>
	<path class="st2" d="M263.7,43.6c4.6,0.1,9.3,0.1,13.9-0.2"/>
	<path class="st2" d="M268,36.8c0.8,5,1.6,10,2.4,15"/>
	<path class="st2" d="M285.7,34.9c0.6,2,1.2,4.1,2.9,5.4c1.9,1.4,4.8,1.2,6.3-0.5c1.6-1.7,1.7-4.6,0.2-6.4"/>
	<path class="st2" d="M295.7,33.3c2.7,9.1,4.8,18.4,6.3,27.8c0.3,1.7,0.5,3.4,0.1,5.1c-0.4,1.6-1.7,3.2-3.4,3.4
		c-2.1,0.2-4-1.8-4.4-3.9c-0.4-2.1,0.4-4.3,1.1-6.3c3.2-8.7,6.7-17.3,10.5-25.8"/>
</g>
<g class="st1">
	<path class="st2" d="M160.1,96.7c17-8.9,34.7-16.3,52.9-22.3"/>
	<path class="st2" d="M212.9,76.2c-4.7-16.5-10.8-32.6-18.2-48.1"/>
	<path class="st2" d="M160.3,98.6c5.7-25.1,27.7-43.6,35.1-68.2"/>
	<path class="st2" d="M200.3,79.6c-1.7-3.6-3.2-7.2-4.6-11c-0.1-0.4-0.3-0.8-0.1-1.2c0.1-0.4,0.5-0.6,0.9-0.8
		c3.4-1.8,6.8-3.6,10.2-5.4"/>
</g>
<g class="st1">
	<path class="st2" d="M1280.5,111.1c3.4,0.1,6.8-0.2,10.1-0.6"/>
	<path class="st2" d="M1299.2,109.8c2.9,0.2,5.8,0.2,8.7-0.2"/>
	<path class="st2" d="M1315.5,108.8c2.4,0.3,4.9,0,7.2-0.9"/>
	<path class="st2" d="M1330.8,107.9c2.7,0,5.4-0.2,8.1-0.6"/>
	<path class="st2" d="M1348.6,107.4c3.8-0.1,7.5-0.6,11.1-1.7"/>
</g>
<path class="st0" d="M1263.6,112.9c0.5-7.7,4.2-15.2,10.1-20.3c2.6,2.3,0.9,6.4-0.5,9.6c-2.8,6.7-2.9,14.4-0.3,21.2
	c3.2,0.9,6.4-1.5,7.9-4.4c1.5-2.9,1.7-6.3,2.4-9.5c1.5-7.6,5.6-14.7,11.5-19.8c1.2-1.1,2.8-2.1,4.4-1.7c2.7,0.8,2.5,4.6,1.7,7.3
	c-4.1,13.2-10,26-11.8,39.8c-0.3,2.1,0.2,5.1,2.3,5.2c8.7-5.3,11-16.5,14.5-26c5-13.9,13.8-26.3,25.3-35.6"/>
<path class="st0" d="M194.8,134.2c-0.6-12.5,2.5-25.1,8.9-35.8c-0.8,9-1.6,18.1-2.3,27.1c-0.4,4.6-0.1,10.4,4.1,12.3
	c1.4-8.5,2.8-17,4.2-25.6c0.3-1.9,1-4.1,2.8-4.6c2.4-0.6,4.1,2.4,4,4.9c-0.1,2.4-1.2,4.9-0.6,7.2c1.1,4.2,6.6,5.2,10.9,5.4"/>
</svg>
